<svg width="151" height="167" viewBox="0 0 151 167" fill="none" xmlns="http://www.w3.org/2000/svg">
<circle cx="75.0141" cy="75.014" r="75" fill="#D9D9D9" fill-opacity="0.6"/>
<path d="M94.2173 21.0001H54.7827C52.7186 21.0001 50.739 21.8142 49.2795 23.2632C47.82 24.7122 47 26.6775 47 28.7267V127.273C47 129.323 47.82 131.288 49.2795 132.737C50.739 134.186 52.7186 135 54.7827 135H94.2173C96.2814 135 98.261 134.186 99.7205 132.737C101.18 131.288 102 129.323 102 127.273V28.7267C102 26.6775 101.18 24.7122 99.7205 23.2632C98.261 21.8142 96.2814 21.0001 94.2173 21.0001V21.0001ZM101.245 127.003C101.245 128.924 100.477 130.767 99.1088 132.126C97.7411 133.485 95.8858 134.249 93.9508 134.25H55.0551C54.0962 134.251 53.1467 134.064 52.2606 133.7C51.3746 133.336 50.5695 132.802 49.8914 132.129C49.2132 131.456 48.6752 130.657 48.3082 129.777C47.9411 128.898 47.7522 127.955 47.7522 127.003V28.9972C47.7522 27.0751 48.5213 25.2317 49.8903 23.8726C51.2593 22.5134 53.1161 21.7499 55.0522 21.7499H93.9508C95.8869 21.7499 97.7436 22.5134 99.1126 23.8726C100.482 25.2317 101.251 27.0751 101.251 28.9972L101.245 127.003Z" fill="#1A1A1A"/>
<g style="mix-blend-mode:screen" opacity="0.7">
<path d="M49.0621 23.5599C50.6393 22.1517 52.6793 21.0557 55.076 21.0852L92.3034 21.1589C97.147 21.4535 101.41 24.1049 101.575 29.732C101.575 30.3536 101.908 25.0182 98.4471 22.6614C96.8021 21.4829 94.3729 20.9674 92.9137 20.9379C90.5229 20.8937 58.9821 20.8466 55.1173 20.9379C51.8716 21.0292 50.3592 22.3226 49.0621 23.5599Z" fill="#1A1A1A"/>
</g>
<path d="M93.7681 21.0001H55.2349C54.2849 20.9997 53.3442 21.1877 52.4664 21.5534C51.5887 21.9191 50.7911 22.4552 50.1192 23.1312C49.4474 23.8072 48.9144 24.6098 48.5508 25.4932C48.1872 26.3766 48 27.3235 48 28.2797V126.721C48 128.651 48.7619 130.503 50.1182 131.868C51.4744 133.233 53.3139 134 55.2319 134H93.7681C95.6861 134 97.5256 133.233 98.8818 131.868C100.238 130.503 101 128.651 101 126.721V28.2797C101 26.349 100.238 24.4974 98.8818 23.1323C97.5256 21.7671 95.6861 21.0001 93.7681 21.0001V21.0001ZM100.627 126.502C100.627 128.391 99.8819 130.203 98.5548 131.539C97.2277 132.875 95.4277 133.625 93.551 133.625H55.452C53.5752 133.625 51.7753 132.875 50.4482 131.539C49.1211 130.203 48.3755 128.391 48.3755 126.502V28.4982C48.3794 26.6116 49.1267 24.8036 50.4534 23.471C51.78 22.1384 53.5777 21.3899 55.452 21.3899H93.5451C94.4744 21.3899 95.3946 21.5742 96.2531 21.9321C97.1117 22.2901 97.8918 22.8148 98.5489 23.4762C99.206 24.1377 99.7273 24.9229 100.083 25.7871C100.438 26.6513 100.622 27.5776 100.622 28.513L100.627 126.502Z" fill="#1A1A1A"/>
<path d="M93.74 134H55.26C53.3353 133.998 51.49 133.227 50.129 131.856C48.768 130.485 48.0023 128.626 48 126.687V28.3131C48.0023 26.3743 48.768 24.5156 50.129 23.1446C51.49 21.7737 53.3353 21.0025 55.26 21.0001H93.74C95.6647 21.0025 97.51 21.7737 98.871 23.1446C100.232 24.5156 100.998 26.3743 101 28.3131V126.687C100.998 128.626 100.232 130.485 98.871 131.856C97.51 133.227 95.6647 133.998 93.74 134ZM55.26 21.0739C53.3547 21.0762 51.5281 21.8397 50.1808 23.1968C48.8335 24.5539 48.0756 26.3939 48.0732 28.3131V126.687C48.0756 128.606 48.8335 130.446 50.1808 131.803C51.5281 133.161 53.3547 133.924 55.26 133.926H93.74C95.6451 133.923 97.4713 133.16 98.8184 131.803C100.165 130.446 100.924 128.606 100.927 126.687V28.3131C100.924 26.3941 100.165 24.5546 98.8184 23.1977C97.4713 21.8407 95.6451 21.077 93.74 21.0739H55.26ZM93.5173 133.622H55.4768C53.594 133.62 51.789 132.866 50.4577 131.525C49.1263 130.183 48.3773 128.365 48.375 126.469V28.5315C48.3773 26.6349 49.1263 24.8168 50.4577 23.4757C51.789 22.1346 53.594 21.3802 55.4768 21.3779H93.5173C95.4001 21.3802 97.2051 22.1346 98.5365 23.4757C99.8678 24.8168 100.617 26.6349 100.619 28.5315V126.469C100.617 128.365 99.8678 130.183 98.5365 131.525C97.2051 132.866 95.4001 133.62 93.5173 133.622V133.622ZM55.4768 21.4517C53.612 21.4517 51.8235 22.1979 50.5048 23.5262C49.1861 24.8544 48.4453 26.656 48.4453 28.5344V126.469C48.4453 128.347 49.1861 130.149 50.5048 131.477C51.8235 132.805 53.612 133.552 55.4768 133.552H93.5173C95.3822 133.552 97.1707 132.805 98.4893 131.477C99.808 130.149 100.549 128.347 100.549 126.469V28.5315C100.549 26.653 99.808 24.8515 98.4893 23.5232C97.1707 22.1949 95.3822 21.4487 93.5173 21.4487L55.4768 21.4517Z" fill="#1A1A1A"/>
<path d="M47 53.0001V45.0001L46 45.1035C46.5172 45.9646 46.4827 52.0471 46 52.8968L47 53.0001Z" fill="#1A1A1A"/>
<path d="M47 64.0001V55.0001L46 55.1196C46.5172 56.088 46.4827 62.9252 46 63.8839L47 64.0001Z" fill="#1A1A1A"/>
<path d="M47 40.0001V35.0001L46 35.1192C46.5172 36.1112 46.4827 38.9022 46 39.8811L47 40.0001Z" fill="#1A1A1A"/>
<path d="M79.8303 27.0001H69.1697C68.8845 27.0001 68.6021 26.9872 68.3387 26.962C68.0752 26.9369 67.8359 26.9 67.6344 26.8535C67.4328 26.8071 67.2731 26.7519 67.1642 26.6912C67.0554 26.6305 66.9996 26.5654 67 26.4998C67 26.4341 67.0561 26.3692 67.1652 26.3086C67.2742 26.2479 67.434 26.1929 67.6355 26.1465C67.837 26.1001 68.0762 26.0633 68.3394 26.0382C68.6026 26.013 68.8848 26.0001 69.1697 26.0001H79.8303C80.4057 26.0001 80.9576 26.0528 81.3645 26.1465C81.7714 26.2402 82 26.3672 82 26.4998C82.0004 26.5654 81.9446 26.6305 81.8358 26.6912C81.7269 26.7519 81.5672 26.8071 81.3656 26.8535C81.1641 26.9 80.9248 26.9369 80.6613 26.962C80.3979 26.9872 80.1155 27.0001 79.8303 27.0001Z" fill="#1A1A1A"/>
<path fill-rule="evenodd" clip-rule="evenodd" d="M71.8176 97.4461C70.9672 98.2075 70.3631 99.2055 70.0816 100.314C69.8001 101.422 69.8538 102.591 70.236 103.673C70.6183 104.755 71.3118 105.7 72.2289 106.391C73.1461 107.081 74.2456 107.486 75.3885 107.552C75.8445 107.579 76.1948 107.97 76.1709 108.426C76.1471 108.882 75.7582 109.23 75.3023 109.204C73.8328 109.118 72.4191 108.599 71.24 107.711C70.0608 106.823 69.1691 105.607 68.6777 104.216C68.1862 102.825 68.1171 101.322 68.4791 99.8974C68.841 98.4724 69.6178 97.1893 70.7111 96.2103C71.8044 95.2314 73.1652 94.6006 74.6214 94.3977C76.0776 94.1948 77.5638 94.429 78.8921 95.0705C80.2203 95.7121 81.3309 96.7322 82.0835 98.002C82.8361 99.2717 83.1968 100.734 83.1201 102.204C83.0963 102.66 82.7073 103.008 82.2514 102.982C81.7955 102.955 81.4452 102.564 81.469 102.108C81.5287 100.965 81.2481 99.8272 80.6628 98.8396C80.0775 97.8521 79.2136 97.0586 78.1806 96.5596C77.1475 96.0606 75.9916 95.8785 74.859 96.0363C73.7264 96.1941 72.668 96.6847 71.8176 97.4461Z" fill="black"/>
<path fill-rule="evenodd" clip-rule="evenodd" d="M68.9412 94.2334C67.4592 95.5603 66.4063 97.2995 65.9157 99.2311C65.4251 101.163 65.5187 103.2 66.1849 105.085C66.851 106.97 68.0597 108.619 69.658 109.822C71.2564 111.025 73.1726 111.73 75.1644 111.846C75.6204 111.872 75.9707 112.263 75.9469 112.719C75.923 113.176 75.5341 113.524 75.0782 113.497C72.7598 113.362 70.5294 112.543 68.669 111.142C66.8087 109.741 65.4018 107.823 64.6265 105.628C63.8512 103.434 63.7421 101.063 64.3132 98.8147C64.8842 96.5664 66.1097 94.5421 67.8347 92.9976C69.5596 91.4531 71.7066 90.4579 74.004 90.1379C76.3015 89.8178 78.6462 90.1872 80.7418 91.1993C82.8373 92.2115 84.5896 93.821 85.7769 95.8243C86.9643 97.8275 87.5334 100.135 87.4123 102.454C87.3885 102.91 86.9996 103.258 86.5437 103.231C86.0877 103.205 85.7374 102.814 85.7613 102.358C85.8653 100.365 85.3763 98.383 84.3562 96.6619C83.3361 94.9408 81.8307 93.558 80.0303 92.6884C78.2299 91.8188 76.2154 91.5015 74.2415 91.7765C72.2677 92.0515 70.4231 92.9065 68.9412 94.2334Z" fill="black"/>
<path d="M48 124.265L107.334 124.242" stroke="black" stroke-width="3"/>
<g filter="url(#filter0_d_1_367)">
<path d="M103.869 108.198L101.194 105.059C100.59 104.402 100.246 103.547 100.227 102.654C100.249 102.192 100.371 101.739 100.585 101.329C100.799 100.918 101.099 100.559 101.466 100.276C101.803 99.954 102.203 99.7056 102.641 99.547C103.079 99.3885 103.546 99.3234 104.011 99.3558C104.476 99.3882 104.928 99.5175 105.34 99.7353C105.752 99.9531 106.114 100.255 106.403 100.621L118.819 115.192C119.838 116.404 120.688 117.749 121.346 119.189C123.027 122.786 124.292 125.165 126.444 127.943C127.241 128.969 128.121 129.929 129.073 130.813L129.098 130.841C129.506 131.242 129.785 131.757 129.898 132.318C130.011 132.879 129.954 133.461 129.733 133.99C129.009 135.897 127.271 138.953 123.099 142.508C118.682 146.272 115.34 147.201 113.455 147.362C112.994 147.414 112.528 147.354 112.096 147.187C111.663 147.02 111.278 146.751 110.971 146.404C110.217 145.591 109.373 144.866 108.454 144.244C105.843 142.558 106.028 142.327 101.711 141.295C98.4236 140.504 93.9174 136.479 91.1435 135.54L79.3025 133.639C77.5082 133.323 75.977 132.081 76.4623 129.331C76.9078 126.787 79.171 126.469 80.36 126.465L92.5473 127.149L74.4295 105.887C73.8182 105.194 73.507 104.287 73.5645 103.365C73.6219 102.444 74.0432 101.582 74.7357 100.971C75.4283 100.36 76.3353 100.048 77.2572 100.106C78.1792 100.163 79.0406 100.585 79.6519 101.277L93.2554 117.241L87.6482 110.661C87.3509 110.313 87.1251 109.91 86.9837 109.475C86.8423 109.039 86.7881 108.58 86.8242 108.124C86.8604 107.668 86.9861 107.223 87.1942 106.815C87.4023 106.408 87.6888 106.045 88.0372 105.748C88.7411 105.148 89.6545 104.853 90.5764 104.926C91.4983 105 92.3532 105.437 92.953 106.141L94.3677 107.801C93.7687 107.098 93.4735 106.186 93.547 105.265C93.6205 104.345 94.0567 103.491 94.7597 102.892C95.4627 102.293 96.3749 101.997 97.2955 102.071C98.2162 102.145 99.07 102.581 99.669 103.284L103.868 108.211L103.869 108.198Z" fill="white"/>
<path d="M94.1111 102.131C93.3639 102.767 92.8508 103.628 92.6415 104.575C92.0451 104.21 91.366 103.986 90.656 103.93C89.4697 103.835 88.2944 104.215 87.3886 104.987C86.9402 105.369 86.5714 105.836 86.3036 106.361C86.1714 106.62 86.0651 106.89 85.9856 107.168L80.413 100.628L80.4073 100.622L80.4016 100.615C79.6147 99.7239 78.506 99.1816 77.3194 99.1077C76.1327 99.0338 74.9653 99.4343 74.074 100.221C73.1826 101.008 72.6403 102.117 72.5664 103.303C72.4927 104.487 72.8909 105.651 73.6737 106.542L90.2711 126.02L80.4161 125.466L80.3861 125.465L80.3561 125.465C79.697 125.467 78.6488 125.553 77.6733 126.057C76.645 126.589 75.7578 127.558 75.4774 129.158C75.1976 130.744 75.4803 132.05 76.2421 133.017C76.9861 133.961 78.0737 134.438 79.1291 134.623L79.1365 134.625L79.1439 134.626L90.8982 136.514C91.4708 136.718 92.1706 137.088 92.9856 137.58C93.6433 137.977 94.3355 138.429 95.0607 138.902C95.2679 139.037 95.4778 139.174 95.6904 139.312C97.5391 140.511 99.6352 141.824 101.477 142.267L101.478 142.267C103.639 142.784 104.575 143.079 105.286 143.424C105.78 143.663 106.159 143.918 106.761 144.323C107.068 144.529 107.434 144.775 107.902 145.078C108.751 145.654 109.532 146.324 110.23 147.075C110.641 147.539 111.157 147.897 111.736 148.12C112.314 148.343 112.937 148.425 113.553 148.357C115.679 148.172 119.207 147.139 123.748 143.269C128.024 139.625 129.87 136.44 130.662 134.359C130.955 133.651 131.03 132.872 130.878 132.12C130.729 131.379 130.365 130.698 129.832 130.161L129.796 130.119L129.753 130.079C128.841 129.233 127.998 128.313 127.234 127.33C125.149 124.638 123.921 122.337 122.253 118.769C121.558 117.248 120.661 115.829 119.585 114.549L119.58 114.543L107.175 99.9856C106.803 99.5174 106.337 99.1312 105.808 98.8513C105.273 98.5683 104.684 98.4003 104.08 98.3582C103.476 98.3161 102.87 98.4007 102.301 98.6067C101.749 98.8065 101.243 99.1164 100.814 99.5173C100.351 99.8832 99.9706 100.343 99.6978 100.867C99.5553 101.14 99.444 101.427 99.3651 101.723C98.7678 101.356 98.087 101.131 97.3751 101.074C96.1901 100.98 95.016 101.36 94.1111 102.131Z" stroke="#6F6E6B" stroke-width="2"/>
</g>
<g filter="url(#filter1_d_1_367)">
<circle cx="103.188" cy="21.4339" r="13.4337" fill="white"/>
<path d="M104.339 13.7576C104.339 13.1217 103.824 12.6061 103.188 12.6061C102.552 12.6061 102.036 13.1217 102.036 13.7576V21.4342C102.036 21.8313 102.241 22.2003 102.578 22.4107L107.184 25.2894C107.723 25.6265 108.433 25.4625 108.77 24.9233C109.107 24.384 108.944 23.6736 108.404 23.3365L104.339 20.796V13.7576Z" fill="#6F6E6B"/>
<path fill-rule="evenodd" clip-rule="evenodd" d="M103.188 8.00018C95.7685 8.00018 89.7539 14.0148 89.7539 21.4342C89.7539 28.8537 95.7685 34.8683 103.188 34.8683C110.607 34.8683 116.622 28.8537 116.622 21.4342C116.622 14.0148 110.607 8.00018 103.188 8.00018ZM92.0569 21.4342C92.0569 15.2867 97.0404 10.3032 103.188 10.3032C109.335 10.3032 114.319 15.2867 114.319 21.4342C114.319 27.5818 109.335 32.5653 103.188 32.5653C97.0404 32.5653 92.0569 27.5818 92.0569 21.4342Z" fill="#6F6E6B"/>
</g>
<path d="M64.5263 42.0001V35.7001H65.7323L68.4143 40.1461H67.7753L70.4123 35.7001H71.6093L71.6273 42.0001H70.2593L70.2503 37.7971H70.5023L68.3963 41.3341H67.7393L65.5883 37.7971H65.8943V42.0001H64.5263ZM75.993 42.0001V41.0551L75.903 40.8481V39.1561C75.903 38.8561 75.81 38.6221 75.624 38.4541C75.444 38.2861 75.165 38.2021 74.787 38.2021C74.529 38.2021 74.274 38.2441 74.022 38.3281C73.776 38.4061 73.566 38.5141 73.392 38.6521L72.888 37.6711C73.152 37.4851 73.47 37.3411 73.842 37.2391C74.214 37.1371 74.592 37.0861 74.976 37.0861C75.714 37.0861 76.287 37.2601 76.695 37.6081C77.103 37.9561 77.307 38.4991 77.307 39.2371V42.0001H75.993ZM74.517 42.0721C74.139 42.0721 73.815 42.0091 73.545 41.8831C73.275 41.7511 73.068 41.5741 72.924 41.3521C72.78 41.1301 72.708 40.8811 72.708 40.6051C72.708 40.3171 72.777 40.0651 72.915 39.8491C73.059 39.6331 73.284 39.4651 73.59 39.3451C73.896 39.2191 74.295 39.1561 74.787 39.1561H76.074V39.9751H74.94C74.61 39.9751 74.382 40.0291 74.256 40.1371C74.136 40.2451 74.076 40.3801 74.076 40.5421C74.076 40.7221 74.145 40.8661 74.283 40.9741C74.427 41.0761 74.622 41.1271 74.868 41.1271C75.102 41.1271 75.312 41.0731 75.498 40.9651C75.684 40.8511 75.819 40.6861 75.903 40.4701L76.119 41.1181C76.017 41.4301 75.831 41.6671 75.561 41.8291C75.291 41.9911 74.943 42.0721 74.517 42.0721ZM79.1018 43.8181C78.8498 43.8181 78.6008 43.7791 78.3548 43.7011C78.1088 43.6231 77.9078 43.5151 77.7518 43.3771L78.2648 42.3781C78.3728 42.4741 78.4958 42.5491 78.6338 42.6031C78.7778 42.6571 78.9188 42.6841 79.0568 42.6841C79.2548 42.6841 79.4108 42.6361 79.5248 42.5401C79.6448 42.4501 79.7528 42.2971 79.8488 42.0811L80.1008 41.4871L80.2088 41.3341L81.9458 37.1581H83.2958L81.1088 42.2971C80.9528 42.6871 80.7728 42.9931 80.5688 43.2151C80.3708 43.4371 80.1488 43.5931 79.9028 43.6831C79.6628 43.7731 79.3958 43.8181 79.1018 43.8181ZM79.9298 42.1891L77.7698 37.1581H79.2188L80.8928 41.2081L79.9298 42.1891ZM70.4065 53.0001V47.2401L71.0365 47.8701H69.1465V46.7001H71.8645V53.0001H70.4065ZM72.9049 53.0001V52.0551L75.3349 49.7601C75.5269 49.5861 75.6679 49.4301 75.7579 49.2921C75.8479 49.1541 75.9079 49.0281 75.9379 48.9141C75.9739 48.8001 75.9919 48.6951 75.9919 48.5991C75.9919 48.3471 75.9049 48.1551 75.7309 48.0231C75.5629 47.8851 75.3139 47.8161 74.9839 47.8161C74.7199 47.8161 74.4739 47.8671 74.2459 47.9691C74.0239 48.0711 73.8349 48.2301 73.6789 48.4461L72.6169 47.7621C72.8569 47.4021 73.1929 47.1171 73.6249 46.9071C74.0569 46.6971 74.5549 46.5921 75.1189 46.5921C75.5869 46.5921 75.9949 46.6701 76.3429 46.8261C76.6969 46.9761 76.9699 47.1891 77.1619 47.4651C77.3599 47.7411 77.4589 48.0711 77.4589 48.4551C77.4589 48.6591 77.4319 48.8631 77.3779 49.0671C77.3299 49.2651 77.2279 49.4751 77.0719 49.6971C76.9219 49.9191 76.6999 50.1681 76.4059 50.4441L74.3899 52.3431L74.1109 51.8121H77.6659V53.0001H72.9049Z" fill="black"/>
<g clip-path="url(#clip0_1_367)">
<rect width="43.123" height="15.2199" transform="translate(32.0785 71.2828)" fill="#EAEBEC"/>
<path d="M75.14 83.4674C75.14 83.4674 75.6377 80.0812 73.8148 78.1153C72.2242 76.3992 70.803 75.943 67.9076 75.8095C65.2167 75.6849 63.9699 75.8005 62.1901 75.8095C61.0486 75.8152 48.2182 76.7519 43.4476 75.8095C43.4476 75.8095 46.4009 77.2227 53.3302 77.164C59.0828 77.1154 63.9347 77.1882 65.4169 77.2144C65.688 77.2191 65.9586 77.2112 66.2289 77.1908C67.1258 77.1231 69.5937 77.0349 71.6187 77.8706C74.1426 78.9139 74.912 81.7002 75.14 83.4674Z" fill="#231F20"/>
<path d="M72.4146 83.4608C72.7239 81.4849 71.4301 79.6231 69.5249 79.3024C67.6197 78.9816 65.8245 80.3234 65.5153 82.2993C65.206 84.2752 66.4998 86.137 68.405 86.4577C70.3102 86.7784 72.1053 85.4367 72.4146 83.4608Z" fill="#231F20"/>
<path d="M43.8102 83.4603C44.1195 81.4844 42.8257 79.6226 40.9205 79.3019C39.0153 78.9812 37.2202 80.3229 36.9109 82.2988C36.6017 84.2747 37.8954 86.1365 39.8006 86.4572C41.7058 86.7779 43.501 85.4362 43.8102 83.4603Z" fill="#231F20"/>
<path d="M68.324 78.2251C68.324 78.2251 64.236 77.047 62.9281 82.4067H46.4243C46.4243 82.4067 45.3062 78.8928 42.6517 78.6372C42.6517 78.6372 42.7071 78.6947 42.794 78.8014C43.5472 79.282 44.1511 79.9774 44.5335 80.8045C44.9158 81.6316 45.0605 82.5553 44.9501 83.4654H64.5181C64.5181 83.4654 64.0807 78.6877 68.324 78.2251Z" fill="#231F20"/>
<path d="M50.6029 72.6881C56.1874 72.9577 60.7676 75.0443 60.7676 75.0443C60.7676 75.0443 59.8023 74.0432 56.7356 72.8082C53.669 71.5732 50.1865 70.5874 45.1503 71.9227C40.3883 73.1851 41.2908 75.5005 32.9225 75.0859C32.8603 75.0827 32.7985 75.097 32.7435 75.1273C32.6886 75.1575 32.6425 75.2026 32.6102 75.2578C32.5779 75.313 32.5605 75.3761 32.56 75.4407C32.5594 75.5052 32.5757 75.5687 32.6071 75.6245C32.9631 76.2589 33.3217 77.3361 32.5984 78.4605C31.4625 80.2277 32.5418 82.8785 32.5418 82.8785H35.7359C35.7356 81.6425 36.1956 80.454 37.0199 79.5612C37.8441 78.6683 38.969 78.1401 40.1598 78.0868C39.3811 77.9488 38.173 78.0229 36.4019 78.8126H33.5619C33.5619 78.8126 34.4712 77.575 34.1872 76.5764C34.1872 76.5764 37.4245 75.5165 40.5485 76.6352C43.6724 77.7539 50.6011 78.4612 55.145 77.9903C55.145 77.9903 44.241 77.46 40.9458 75.045C40.9495 75.0443 44.0913 72.3763 50.6029 72.6881Z" fill="#231F20"/>
</g>
<rect x="62" y="43.0001" width="23" height="23" rx="3" fill="black"/>
<path d="M63.9167 51.6251C63.9167 49.901 63.9167 49.039 64.413 48.4731C64.4705 48.4074 64.5323 48.3456 64.598 48.2881C65.1639 47.7917 66.0259 47.7917 67.75 47.7917H79.25C80.974 47.7917 81.8361 47.7917 82.402 48.2881C82.4676 48.3456 82.5294 48.4074 82.587 48.4731C83.0833 49.039 83.0833 49.901 83.0833 51.6251V51.6251C83.0833 52.0561 83.0833 52.2716 82.9592 52.4131C82.9449 52.4295 82.9294 52.4449 82.913 52.4593C82.7715 52.5834 82.556 52.5834 82.125 52.5834H64.875C64.444 52.5834 64.2285 52.5834 64.087 52.4593C64.0706 52.4449 64.0551 52.4295 64.0407 52.4131C63.9167 52.2716 63.9167 52.0561 63.9167 51.6251V51.6251Z" fill="white"/>
<path fill-rule="evenodd" clip-rule="evenodd" d="M63.9167 60.0835C63.9167 61.9691 63.9167 62.9119 64.5024 63.4977C65.0882 64.0835 66.031 64.0835 67.9167 64.0835H79.0833C80.9689 64.0835 81.9118 64.0835 82.4975 63.4977C83.0833 62.9119 83.0833 61.9691 83.0833 60.0835V55.5001C83.0833 55.0287 83.0833 54.793 82.9369 54.6466C82.7904 54.5001 82.5547 54.5001 82.0833 54.5001H64.9167C64.4453 54.5001 64.2095 54.5001 64.0631 54.6466C63.9167 54.793 63.9167 55.0287 63.9167 55.5001V60.0835ZM68.7083 57.3751C68.7083 56.9441 68.7083 56.7286 68.8324 56.5871C68.8468 56.5707 68.8622 56.5553 68.8787 56.5409C69.0201 56.4168 69.2356 56.4168 69.6667 56.4168H71.5833C72.0143 56.4168 72.2298 56.4168 72.3713 56.5409C72.3877 56.5553 72.4032 56.5707 72.4176 56.5871C72.5417 56.7286 72.5417 56.9441 72.5417 57.3751C72.5417 57.8061 72.5417 58.0216 72.4176 58.1631C72.4032 58.1795 72.3877 58.195 72.3713 58.2094C72.2298 58.3335 72.0143 58.3335 71.5833 58.3335H69.6667C69.2356 58.3335 69.0201 58.3335 68.8787 58.2094C68.8622 58.195 68.8468 58.1795 68.8324 58.1631C68.7083 58.0216 68.7083 57.8061 68.7083 57.3751ZM68.8324 60.4204C68.7083 60.5619 68.7083 60.7774 68.7083 61.2085C68.7083 61.6395 68.7083 61.855 68.8324 61.9965C68.8468 62.0129 68.8622 62.0283 68.8787 62.0427C69.0201 62.1668 69.2356 62.1668 69.6667 62.1668H71.5833C72.0143 62.1668 72.2298 62.1668 72.3713 62.0427C72.3877 62.0283 72.4032 62.0129 72.4176 61.9965C72.5417 61.855 72.5417 61.6395 72.5417 61.2085C72.5417 60.7774 72.5417 60.5619 72.4176 60.4204C72.4032 60.404 72.3877 60.3886 72.3713 60.3742C72.2298 60.2501 72.0143 60.2501 71.5833 60.2501H69.6667C69.2356 60.2501 69.0201 60.2501 68.8787 60.3742C68.8622 60.3886 68.8468 60.404 68.8324 60.4204ZM74.4583 57.3751C74.4583 56.9441 74.4583 56.7286 74.5824 56.5871C74.5968 56.5707 74.6122 56.5553 74.6286 56.5409C74.7701 56.4168 74.9856 56.4168 75.4167 56.4168H77.3333C77.7643 56.4168 77.9798 56.4168 78.1213 56.5409C78.1377 56.5553 78.1532 56.5707 78.1676 56.5871C78.2917 56.7286 78.2917 56.9441 78.2917 57.3751C78.2917 57.8061 78.2917 58.0216 78.1676 58.1631C78.1532 58.1795 78.1377 58.195 78.1213 58.2094C77.9798 58.3335 77.7643 58.3335 77.3333 58.3335H75.4167C74.9856 58.3335 74.7701 58.3335 74.6286 58.2094C74.6122 58.195 74.5968 58.1795 74.5824 58.1631C74.4583 58.0216 74.4583 57.8061 74.4583 57.3751ZM74.5824 60.4204C74.4583 60.5619 74.4583 60.7774 74.4583 61.2085C74.4583 61.6395 74.4583 61.855 74.5824 61.9965C74.5968 62.0129 74.6122 62.0283 74.6286 62.0427C74.7701 62.1668 74.9856 62.1668 75.4167 62.1668H77.3333C77.7643 62.1668 77.9798 62.1668 78.1213 62.0427C78.1377 62.0283 78.1532 62.0129 78.1676 61.9965C78.2917 61.855 78.2917 61.6395 78.2917 61.2085C78.2917 60.7774 78.2917 60.5619 78.1676 60.4204C78.1532 60.404 78.1377 60.3886 78.1213 60.3742C77.9798 60.2501 77.7643 60.2501 77.3333 60.2501H75.4167C74.9856 60.2501 74.7701 60.2501 74.6286 60.3742C74.6122 60.3886 74.5968 60.404 74.5824 60.4204Z" fill="white"/>
<path d="M68.7083 45.8751L68.7083 48.7501" stroke="white" stroke-width="2" stroke-linecap="round"/>
<path d="M78.2917 45.8751L78.2917 48.7501" stroke="white" stroke-width="2" stroke-linecap="round"/>
<defs>
<filter id="filter0_d_1_367" x="67.5577" y="97.3477" width="68.3969" height="60.0327" filterUnits="userSpaceOnUse" color-interpolation-filters="sRGB">
<feFlood flood-opacity="0" result="BackgroundImageFix"/>
<feColorMatrix in="SourceAlpha" type="matrix" values="0 0 0 0 0 0 0 0 0 0 0 0 0 0 0 0 0 0 127 0" result="hardAlpha"/>
<feOffset dy="4"/>
<feGaussianBlur stdDeviation="2"/>
<feComposite in2="hardAlpha" operator="out"/>
<feColorMatrix type="matrix" values="0 0 0 0 0 0 0 0 0 0 0 0 0 0 0 0 0 0 0.25 0"/>
<feBlend mode="normal" in2="BackgroundImageFix" result="effect1_dropShadow_1_367"/>
<feBlend mode="normal" in="SourceGraphic" in2="effect1_dropShadow_1_367" result="shape"/>
</filter>
<filter id="filter1_d_1_367" x="85.7539" y="8.00018" width="34.8681" height="34.8681" filterUnits="userSpaceOnUse" color-interpolation-filters="sRGB">
<feFlood flood-opacity="0" result="BackgroundImageFix"/>
<feColorMatrix in="SourceAlpha" type="matrix" values="0 0 0 0 0 0 0 0 0 0 0 0 0 0 0 0 0 0 127 0" result="hardAlpha"/>
<feOffset dy="4"/>
<feGaussianBlur stdDeviation="2"/>
<feComposite in2="hardAlpha" operator="out"/>
<feColorMatrix type="matrix" values="0 0 0 0 0 0 0 0 0 0 0 0 0 0 0 0 0 0 0.25 0"/>
<feBlend mode="normal" in2="BackgroundImageFix" result="effect1_dropShadow_1_367"/>
<feBlend mode="normal" in="SourceGraphic" in2="effect1_dropShadow_1_367" result="shape"/>
</filter>
<clipPath id="clip0_1_367">
<rect width="43.123" height="15.2199" fill="white" transform="translate(32.0785 71.2828)"/>
</clipPath>
</defs>
</svg>
