<svg width="1519" height="110" viewBox="0 0 1519 110" fill="none" xmlns="http://www.w3.org/2000/svg">
<path d="M0 55.6642L50.6333 53.3593C101.267 50.8805 202.533 46.5318 303.8 51.011C405.067 55.6642 506.333 69.5802 607.6 67.2754C708.867 64.7966 810.133 46.5318 911.4 53.3593C1012.67 60.4478 1113.93 92.6286 1215.2 104.37C1316.47 116.112 1417.73 106.545 1468.37 102.065L1519 97.4123V0H1468.37C1417.73 0 1316.47 0 1215.2 0C1113.93 0 1012.67 0 911.4 0C810.133 0 708.867 0 607.6 0C506.333 0 405.067 0 303.8 0C202.533 0 101.267 0 50.6333 0H0V55.6642Z" fill="#484F5D" fill-opacity="0.9"/>
</svg>
