<svg width="435" height="250" viewBox="0 0 435 250" fill="none" xmlns="http://www.w3.org/2000/svg">
<path d="M435 0H0V250H435V0Z" fill="url(#paint0_linear_1_478)"/>
<path d="M354.39 141.532C354.39 147.24 350.191 152.378 343.775 154.52L332.165 158.397C329.348 159.237 326.42 159.662 323.477 159.66H83.0755C81.3156 159.66 79.8813 158.483 79.8813 157.03V137.376C79.8813 127.88 89.2143 120.182 100.728 120.182H354.39V141.532Z" fill="black"/>
<path d="M140.075 166.607C147.977 158.788 147.977 146.111 140.075 138.292C132.173 130.474 119.361 130.474 111.459 138.292C103.557 146.111 103.557 158.788 111.459 166.607C119.361 174.425 132.173 174.425 140.075 166.607Z" fill="#414042"/>
<path d="M136.408 162.979C142.285 157.164 142.285 147.735 136.408 141.92C130.531 136.105 121.003 136.105 115.126 141.92C109.249 147.735 109.249 157.164 115.126 162.979C121.003 168.794 130.531 168.794 136.408 162.979Z" fill="black"/>
<path d="M125.767 138.251C122.927 138.249 120.15 139.081 117.787 140.641C115.424 142.201 113.582 144.42 112.494 147.016C111.406 149.612 111.12 152.47 111.673 155.227C112.226 157.983 113.594 160.516 115.602 162.504C117.61 164.492 120.169 165.846 122.954 166.395C125.74 166.944 128.628 166.663 131.253 165.587C133.877 164.512 136.12 162.69 137.698 160.353C139.276 158.016 140.119 155.269 140.118 152.458C140.119 148.691 138.608 145.078 135.916 142.414C133.225 139.749 129.574 138.252 125.767 138.251ZM127.973 153.882L138.38 156.651C137.78 158.414 136.809 160.031 135.532 161.396L127.973 153.882ZM135.71 143.72C136.964 145.108 137.905 146.743 138.473 148.518L128.11 151.275L135.71 143.72ZM128.668 139.607L125.904 149.853L123.121 139.544C124.952 139.175 126.842 139.196 128.665 139.604L128.668 139.607ZM115.82 161.201C114.566 159.814 113.624 158.179 113.058 156.404L123.425 153.653L115.82 161.201ZM113.149 148.267C113.749 146.504 114.72 144.887 115.998 143.523L123.556 151.037L113.149 148.267ZM122.861 165.315L125.624 155.069L128.405 165.376C126.573 165.744 124.684 165.723 122.861 165.315Z" fill="#E6E7E8"/>
<g style="mix-blend-mode:multiply">
<path d="M125.767 151.936C130.804 151.936 135.478 152.801 139.347 154.279C139.636 152.348 139.5 150.379 138.95 148.505C138.4 146.631 137.448 144.896 136.16 143.418C134.871 141.941 133.276 140.756 131.482 139.943C129.689 139.131 127.74 138.71 125.767 138.71C123.795 138.71 121.846 139.131 120.053 139.943C118.259 140.756 116.664 141.941 115.375 143.418C114.087 144.896 113.135 146.631 112.585 148.505C112.035 150.379 111.899 152.348 112.188 154.279C116.059 152.801 120.731 151.936 125.767 151.936Z" fill="#D1D3D4"/>
</g>
<path d="M125.767 138.251C122.929 138.251 120.154 139.084 117.794 140.644C115.433 142.205 113.594 144.422 112.508 147.017C111.421 149.612 111.137 152.468 111.691 155.223C112.245 157.977 113.612 160.508 115.619 162.494C117.626 164.48 120.183 165.832 122.967 166.38C125.752 166.928 128.637 166.647 131.26 165.572C133.882 164.497 136.124 162.677 137.701 160.342C139.278 158.006 140.12 155.261 140.12 152.452C140.12 148.686 138.608 145.073 135.916 142.41C133.225 139.747 129.574 138.251 125.767 138.251ZM125.767 165.642C123.133 165.642 120.558 164.869 118.368 163.421C116.178 161.973 114.471 159.915 113.463 157.507C112.455 155.099 112.191 152.449 112.705 149.893C113.219 147.337 114.488 144.989 116.35 143.146C118.213 141.303 120.586 140.048 123.169 139.539C125.753 139.031 128.43 139.292 130.864 140.289C133.298 141.287 135.378 142.976 136.841 145.143C138.304 147.31 139.086 149.858 139.086 152.464C139.084 155.958 137.681 159.309 135.183 161.779C132.686 164.25 129.299 165.637 125.767 165.637V165.642Z" fill="white"/>
<g style="mix-blend-mode:multiply">
<path d="M125.767 148.105C126.932 148.105 128.048 148.563 128.871 149.378C129.695 150.192 130.157 151.297 130.157 152.449C130.157 154.857 128.192 160.641 125.767 160.641C123.343 160.641 121.378 154.849 121.378 152.449C121.378 151.297 121.84 150.192 122.663 149.378C123.487 148.563 124.603 148.105 125.767 148.105Z" fill="#939598"/>
</g>
<path d="M127.443 156.474C129.676 155.539 130.721 152.991 129.776 150.782C128.832 148.572 126.257 147.538 124.024 148.473C121.791 149.407 120.746 151.955 121.69 154.165C122.634 156.374 125.21 157.408 127.443 156.474Z" fill="white"/>
<path d="M318.73 166.606C326.632 158.787 326.632 146.11 318.73 138.291C310.828 130.473 298.017 130.473 290.115 138.291C282.213 146.11 282.213 158.787 290.115 166.606C298.017 174.424 310.828 174.424 318.73 166.606Z" fill="#414042"/>
<path d="M315.064 162.978C320.941 157.163 320.941 147.734 315.064 141.919C309.187 136.104 299.658 136.104 293.781 141.919C287.904 147.734 287.904 157.163 293.781 162.978C299.658 168.793 309.187 168.793 315.064 162.978Z" fill="black"/>
<path d="M304.427 138.251C301.586 138.249 298.809 139.081 296.446 140.642C294.084 142.202 292.242 144.421 291.154 147.017C290.066 149.613 289.781 152.471 290.334 155.227C290.887 157.984 292.255 160.517 294.263 162.505C296.271 164.492 298.83 165.846 301.616 166.395C304.401 166.944 307.289 166.662 309.914 165.587C312.538 164.512 314.781 162.69 316.359 160.353C317.937 158.016 318.779 155.269 318.779 152.458C318.779 150.593 318.408 148.746 317.687 147.022C316.966 145.299 315.909 143.732 314.576 142.413C313.244 141.094 311.661 140.047 309.92 139.333C308.178 138.619 306.312 138.251 304.427 138.251ZM306.632 153.882L317.04 156.651C316.44 158.414 315.469 160.032 314.191 161.396L306.632 153.882ZM314.369 143.717C315.623 145.105 316.565 146.74 317.132 148.515L306.769 151.272L314.369 143.717ZM307.316 139.604L304.553 149.85L301.772 139.544C303.604 139.175 305.494 139.196 307.316 139.604ZM294.473 161.201C293.22 159.813 292.279 158.178 291.712 156.404L302.073 153.647L294.473 161.201ZM291.804 148.267C292.403 146.504 293.374 144.887 294.651 143.523L302.21 151.037L291.804 148.267ZM301.514 165.315L304.279 155.069L307.059 165.376C305.227 165.744 303.337 165.723 301.514 165.315Z" fill="#E6E7E8"/>
<g style="mix-blend-mode:multiply">
<path d="M304.427 151.936C309.463 151.936 314.135 152.801 318.005 154.279C318.264 152.436 318.137 150.56 317.632 148.767C317.128 146.975 316.256 145.304 315.072 143.859C313.887 142.414 312.415 141.225 310.746 140.366C309.078 139.508 307.249 138.998 305.373 138.868C303.496 138.739 301.614 138.992 299.841 139.613C298.068 140.234 296.443 141.209 295.067 142.477C293.691 143.746 292.593 145.28 291.842 146.986C291.09 148.692 290.701 150.532 290.699 152.393C290.706 153.025 290.757 153.655 290.851 154.279C294.712 152.801 299.386 151.936 304.427 151.936Z" fill="#D1D3D4"/>
</g>
<path d="M304.427 138.251C301.588 138.25 298.813 139.083 296.452 140.643C294.092 142.204 292.252 144.421 291.166 147.016C290.079 149.611 289.795 152.467 290.348 155.222C290.902 157.977 292.269 160.507 294.276 162.493C296.283 164.48 298.84 165.832 301.624 166.38C304.409 166.928 307.294 166.647 309.917 165.572C312.54 164.498 314.781 162.677 316.358 160.342C317.936 158.007 318.777 155.261 318.777 152.452C318.777 148.686 317.265 145.074 314.574 142.411C311.883 139.748 308.233 138.251 304.427 138.251ZM304.427 165.642C301.792 165.642 299.218 164.869 297.027 163.421C294.837 161.973 293.13 159.915 292.122 157.507C291.114 155.099 290.85 152.449 291.364 149.893C291.878 147.337 293.147 144.989 295.009 143.146C296.872 141.303 299.245 140.048 301.828 139.539C304.412 139.031 307.09 139.292 309.523 140.289C311.957 141.287 314.037 142.976 315.5 145.143C316.963 147.31 317.745 149.858 317.745 152.464C317.743 155.958 316.339 159.309 313.842 161.779C311.344 164.249 307.958 165.637 304.427 165.637V165.642Z" fill="white"/>
<g style="mix-blend-mode:multiply">
<path d="M304.427 148.105C305.59 148.105 306.707 148.563 307.53 149.377C308.353 150.191 308.816 151.296 308.816 152.447C308.816 154.855 306.851 160.639 304.427 160.639C302.002 160.639 300.037 154.848 300.037 152.447C300.037 151.877 300.15 151.312 300.371 150.785C300.592 150.259 300.915 149.78 301.323 149.377C301.73 148.973 302.214 148.654 302.747 148.436C303.279 148.217 303.85 148.105 304.427 148.105Z" fill="#939598"/>
</g>
<path d="M306.102 156.461C308.342 155.543 309.406 153.002 308.478 150.786C307.55 148.57 304.982 147.518 302.742 148.435C300.503 149.353 299.439 151.894 300.367 154.111C301.295 156.327 303.862 157.379 306.102 156.461Z" fill="white"/>
<path d="M354.391 100.726H341.293C335.817 100.726 330.472 99.4184 325.855 96.9517C311.114 89.0775 290.327 75.2254 281.38 71.633C281.38 71.633 274.557 70 254.998 70C226.356 70 216.516 71.8211 214.449 72.2575C189.016 77.6018 160.664 100.728 160.664 100.728C160.664 100.728 124.768 103.661 91.8518 118.418C84.4748 121.729 75.0125 128.187 75.0125 135.22C74.7874 143.861 77.688 157.402 79.3657 157.402L100.909 157.387C100.804 156.151 100.747 154.904 100.747 153.647C100.747 135.436 111.949 126.208 125.767 126.208C139.586 126.208 150.79 135.442 150.79 153.653C150.79 154.899 150.732 156.136 150.63 157.361L279.552 157.28C279.454 156.076 279.4 154.872 279.4 153.653C279.4 135.442 290.603 126.214 304.422 126.214C318.24 126.214 329.443 135.444 329.443 153.653C329.443 154.857 329.391 156.049 329.291 157.232L350.859 151.286C359.942 143.487 359.887 117.731 359.887 117.731C359.892 108.846 357.614 100.726 354.391 100.726Z" fill="#E6E7E6"/>
<path d="M325.798 106.966H358.652C357.673 103.229 356.179 100.726 354.394 100.726H341.296C335.82 100.726 330.475 99.4184 325.858 96.9517C311.117 89.0775 290.33 75.2254 281.383 71.633C281.383 71.633 274.56 70 255.001 70C226.359 70 216.519 71.8211 214.452 72.2575C189.019 77.6018 160.667 100.728 160.667 100.728C160.667 100.728 124.771 103.661 91.8548 118.418C85.7996 121.127 78.3496 125.973 75.8704 131.511C104.323 116.166 170.77 106.966 325.798 106.966Z" fill="#DADAD9"/>
<path d="M309.499 98.3424C310.146 98.3391 310.774 98.1264 311.287 97.7369C311.8 97.3473 312.171 96.8023 312.341 96.185C312.512 95.5677 312.474 94.9121 312.233 94.3182C311.992 93.7243 311.561 93.2248 311.006 92.8958C308.918 91.6497 306.821 90.3855 304.746 89.1333C295.237 83.4143 286.255 77.9962 281.17 75.963C281.143 75.963 274.173 74.3691 254.995 74.3691C227.372 74.3691 217.062 76.0864 214.56 76.6131C194.524 80.8272 172.857 95.957 164.103 102.57C205.274 99.998 252.84 98.6133 309.499 98.3424Z" fill="#859490"/>
<path d="M348.635 113.751L349.592 116.248C350.416 118.397 351.755 120.316 353.493 121.841C355.232 123.366 357.319 124.451 359.574 125.002C360.005 119.408 360 115.22 360 115.22C359.999 113.614 359.819 112.014 359.463 110.447H350.945C350.546 110.447 350.152 110.542 349.798 110.725C349.444 110.908 349.141 111.174 348.913 111.499C348.686 111.824 348.542 112.198 348.493 112.591C348.445 112.983 348.493 113.381 348.635 113.751Z" fill="#BE1E2D"/>
<path d="M352.176 114.115L352.775 115.68C353.401 117.311 354.497 118.724 355.928 119.744C357.265 120.696 359.144 119.744 359.217 118.115C359.3 116.243 359.299 115.033 359.299 115.033C359.299 114.867 359.299 114.705 359.29 114.544C359.27 113.875 358.987 113.24 358.503 112.773C358.018 112.307 357.37 112.045 356.693 112.042H353.622C353.372 112.042 353.125 112.102 352.903 112.217C352.681 112.332 352.491 112.499 352.349 112.703C352.206 112.907 352.116 113.142 352.086 113.388C352.056 113.634 352.087 113.883 352.176 114.115Z" fill="#DADAD9"/>
<path opacity="0.5" d="M349.773 112.074L350.305 112.909C350.874 113.802 351.864 114.547 353.108 115.079C354.296 115.588 355.966 115.079 356.032 114.211C356.106 113.21 356.105 112.566 356.105 112.566C356.105 112.477 356.105 112.39 356.097 112.304C356.051 111.561 355.04 110.969 353.788 110.969H351.05C350.095 110.969 349.432 111.541 349.773 112.074Z" fill="white"/>
<path d="M359.574 125.138H359.541C357.264 124.58 355.157 123.485 353.402 121.946C351.647 120.406 350.295 118.468 349.462 116.299L348.506 113.802C348.357 113.412 348.305 112.992 348.356 112.578C348.407 112.164 348.559 111.769 348.798 111.426C349.037 111.083 349.357 110.802 349.73 110.608C350.103 110.414 350.518 110.312 350.939 110.312H359.457C359.476 110.31 359.496 110.312 359.514 110.318C359.533 110.324 359.55 110.333 359.564 110.346C359.579 110.359 359.59 110.375 359.598 110.392C359.606 110.41 359.61 110.429 359.61 110.448C359.61 110.467 359.606 110.486 359.598 110.504C359.59 110.521 359.579 110.537 359.564 110.55C359.55 110.563 359.533 110.572 359.514 110.578C359.496 110.584 359.476 110.586 359.457 110.584H350.939C350.562 110.584 350.191 110.675 349.857 110.848C349.523 111.021 349.237 111.272 349.022 111.579C348.808 111.886 348.672 112.24 348.627 112.611C348.581 112.981 348.627 113.357 348.761 113.706L349.718 116.202C350.535 118.331 351.861 120.232 353.583 121.742C355.304 123.253 357.371 124.327 359.605 124.874C359.637 124.883 359.664 124.902 359.683 124.929C359.701 124.956 359.709 124.989 359.706 125.021C359.702 125.054 359.686 125.084 359.662 125.105C359.637 125.127 359.606 125.14 359.573 125.141L359.574 125.138Z" fill="black"/>
<path d="M152.545 125.824C152.545 125.824 223.202 120.305 253.031 118.958C282.86 117.611 345.123 114.02 345.123 114.02C345.123 114.02 258.654 126.227 152.545 125.824Z" fill="#E6E7E6"/>
<path d="M356.423 136.472H338.475C333.277 136.472 328.539 134.166 325.698 130.504C321.46 125.038 315.306 121.765 307.504 121.765C299.594 121.765 293.413 123.852 288.611 127.467C279.883 134.038 268.71 137.852 257.092 139.1L169.161 147.258C160.894 148.143 153.038 144.001 150.359 137.364C146.534 127.901 138.981 121.765 128.358 121.765C112.486 121.765 103.591 130.154 98.7846 142.441C97.224 146.43 92.9895 149.26 88.0157 149.629L78.3892 150.342C77.4066 150.416 77.4614 151.861 78.447 151.861H91.4015C94.2915 151.861 96.4042 154.481 94.7234 156.914L94.9927 157.399H100.914C100.811 156.157 100.751 154.907 100.751 153.636C100.751 135.426 111.954 126.197 125.772 126.197C139.591 126.197 150.79 135.442 150.79 153.653C150.79 154.916 150.729 156.166 150.626 157.416H153.085C153.286 154.046 156.513 151.377 160.515 151.377H267.899C271.702 151.377 274.631 154.183 274.149 157.354L274.14 157.416L279.561 157.391C279.457 156.159 279.4 154.914 279.4 153.661C279.4 135.45 290.604 126.221 304.422 126.221C318.24 126.221 329.443 135.451 329.443 153.661C329.443 154.865 329.391 156.057 329.291 157.239L332.314 156.406C332.588 151.632 332.243 147.126 331.327 143.037L356.423 136.472Z" fill="#DADAD9"/>
<path d="M95.1189 126.754C95.9844 124.322 94.1865 121.765 91.6099 121.765H85.611C80.0334 125.283 75.0125 130.095 75.0125 135.218C74.9852 136.253 75.0034 137.36 75.0597 138.505H78.4805C85.9471 138.505 92.6077 133.8 95.1189 126.754Z" fill="black"/>
<path d="M94.509 126.6C94.7077 126.054 94.7705 125.469 94.692 124.893C94.6135 124.318 94.396 123.77 94.058 123.296C93.7199 122.821 93.2713 122.434 92.7501 122.168C92.2289 121.901 91.6505 121.763 91.0639 121.765H85.611C80.0334 125.283 75.0125 130.095 75.0125 135.218C74.9897 136.097 75.0004 137.024 75.0369 137.989H78.1778C81.7546 137.989 85.244 136.895 88.1677 134.856C91.0914 132.817 93.3063 129.933 94.509 126.6Z" fill="#E6E7E8"/>
<path d="M90.0782 130.411C90.1847 130.116 90.218 129.8 90.1752 129.489C90.1324 129.179 90.0148 128.883 89.8323 128.626C89.6498 128.37 89.4078 128.161 89.1266 128.017C88.8454 127.872 88.5333 127.797 88.2165 127.797H85.2672C82.2511 129.699 79.536 132.301 79.536 135.071C79.5239 135.546 79.536 136.05 79.5497 136.576H81.2472C83.1821 136.575 85.0696 135.983 86.6507 134.879C88.2318 133.775 89.4291 132.215 90.0782 130.411Z" fill="#D1D3D4"/>
<path d="M88.6652 126.472C88.7726 126.177 88.8066 125.86 88.7642 125.549C88.7219 125.238 88.6044 124.941 88.4218 124.685C88.2393 124.428 87.9969 124.218 87.7152 124.074C87.4335 123.929 87.1208 123.854 86.8035 123.854H83.8542C80.838 125.756 78.123 128.36 78.123 131.129C78.1108 131.605 78.123 132.107 78.1367 132.634H79.8342C81.7687 132.634 83.656 132.042 85.237 130.939C86.8181 129.836 88.0155 128.276 88.6652 126.472Z" fill="white"/>
<path d="M281.173 75.9674C281.146 75.9674 274.176 74.3735 254.998 74.3735C227.375 74.3735 217.065 76.0907 214.563 76.6175C197.967 80.1046 180.26 91.0822 169.693 98.5094C169.661 99.4892 169.673 100.917 169.723 102.236C176.56 101.834 183.577 101.462 190.774 101.119C190.255 100.493 189.882 99.7614 189.682 98.9759L188.888 95.85C188.385 93.8724 189.176 91.7744 190.809 90.7661C198.667 85.9169 207.609 81.435 216.21 79.4454C218.188 78.9849 225.641 77.6063 244.422 77.2827V99.2408C245.679 99.2107 246.926 99.1791 248.191 99.1505V77.2331C249.634 77.221 251.137 77.2145 252.7 77.2135C269.063 77.2135 275.564 78.6327 276.275 78.8013C277.825 79.4951 279.784 80.5772 282.019 81.9167V98.5696L283.496 98.553V82.8106C285.887 84.2825 288.543 85.9982 291.341 87.8404C293.927 89.5425 295.693 92.4186 296.152 95.6815L296.535 98.4236C299.101 98.404 301.693 98.386 304.293 98.3709C305.148 95.7687 305.429 91.9159 304.948 89.2551L304.746 89.1347C295.237 83.4141 286.255 78.0066 281.173 75.9674Z" fill="#231F20"/>
<path d="M246.235 82.2524H243.008C241.674 82.2524 240.382 82.7115 239.354 83.551C238.325 84.3904 237.623 85.5579 237.369 86.8532L234.893 99.4863C238.619 99.386 242.391 99.2901 246.209 99.1988L248.903 85.4536C248.98 85.0643 248.968 84.663 248.87 84.2787C248.771 83.8943 248.587 83.5362 248.332 83.2303C248.077 82.9243 247.757 82.6779 247.395 82.5089C247.032 82.3398 246.636 82.2523 246.235 82.2524ZM304.746 89.1379C302.617 87.8601 300.53 86.6004 298.498 85.3889C298.255 85.8507 298.077 86.3434 297.97 86.8532L295.7 98.4343C299.419 98.4042 303.177 98.3786 306.974 98.3576L308.357 91.3051C307.152 90.5812 305.948 89.8573 304.746 89.1379Z" fill="#58595B"/>
<path opacity="0.5" d="M214.563 87.5576C217.065 87.0308 227.375 85.3136 254.998 85.3136C274.176 85.3136 281.146 86.9059 281.173 86.9059C285.751 88.7435 293.493 93.3157 301.938 98.3876C304.448 98.371 306.958 98.3545 309.499 98.3424C310.146 98.3391 310.774 98.1264 311.287 97.7369C311.8 97.3473 312.171 96.8023 312.341 96.185C312.512 95.5677 312.474 94.9121 312.233 94.3182C311.992 93.7243 311.561 93.2248 311.006 92.8958C308.918 91.6497 306.821 90.3855 304.746 89.1333C295.237 83.4143 286.255 77.9962 281.17 75.963C281.143 75.963 274.173 74.3691 254.995 74.3691C227.372 74.3691 217.062 76.0864 214.56 76.6131C194.524 80.8272 172.857 95.957 164.103 102.57C169.868 102.209 175.766 101.872 181.797 101.56C191.514 95.7463 203.295 89.9249 214.563 87.5576Z" fill="white"/>
<g style="mix-blend-mode:multiply">
<path d="M239.92 114.517C242.58 114.517 244.736 113.247 244.736 111.681C244.736 110.115 242.58 108.846 239.92 108.846C237.261 108.846 235.105 110.115 235.105 111.681C235.105 113.247 237.261 114.517 239.92 114.517Z" fill="#939598"/>
</g>
<path d="M244.462 110.083H235.38C234.541 110.083 233.862 110.755 233.862 111.585V111.779C233.862 112.608 234.541 113.281 235.38 113.281H244.462C245.3 113.281 245.98 112.608 245.98 111.779V111.585C245.98 110.755 245.3 110.083 244.462 110.083Z" fill="white"/>
<g style="mix-blend-mode:multiply">
<path d="M300.378 114.517C303.037 114.517 305.193 113.247 305.193 111.681C305.193 110.115 303.037 108.846 300.378 108.846C297.718 108.846 295.562 110.115 295.562 111.681C295.562 113.247 297.718 114.517 300.378 114.517Z" fill="#939598"/>
</g>
<path d="M304.918 110.083H295.836C294.997 110.083 294.318 110.755 294.318 111.585V111.779C294.318 112.608 294.997 113.281 295.836 113.281H304.918C305.756 113.281 306.436 112.608 306.436 111.779V111.585C306.436 110.755 305.756 110.083 304.918 110.083Z" fill="white"/>
<path d="M311.289 92.4307C299.606 85.4565 287.618 77.9676 281.38 75.4647C281.38 75.4647 274.557 73.8318 254.998 73.8318C226.356 73.8318 216.516 75.6528 214.449 76.0893C193.742 80.4403 171.118 96.568 163.419 102.415C163.348 102.468 163.296 102.542 163.271 102.626C163.246 102.711 163.249 102.801 163.28 102.883C163.311 102.965 163.368 103.036 163.443 103.083C163.517 103.131 163.605 103.154 163.694 103.148C210.424 100.209 260.938 99.1205 309.501 98.8887C313.054 98.8707 314.331 94.2458 311.289 92.4307ZM303.704 97.8337C298.752 97.8653 293.843 97.9014 289.029 97.9496V80.5171C291.671 81.989 294.605 83.7047 297.699 85.5468C299.112 86.3879 300.321 87.5264 301.24 88.8815C302.158 90.2366 302.765 91.7751 303.015 93.3879L303.704 97.8337ZM281.05 76.5047C282.763 77.1985 284.927 78.2806 287.397 79.6201V97.9676C274.456 98.1031 261.996 98.3038 250.017 98.5696V74.941C251.612 74.928 253.272 74.9214 254.998 74.9214C273.081 74.9169 280.264 76.3361 281.05 76.5047ZM214.677 77.1488C216.867 76.6883 225.095 75.3082 245.858 74.9862V98.663C226.336 99.1235 208.039 99.7586 190.814 100.573C189.595 100.631 188.392 100.278 187.402 99.5703C186.413 98.8628 185.696 97.8433 185.37 96.6793L184.493 93.5519C184.222 92.5912 184.285 91.5685 184.671 90.6472C185.057 89.7259 185.744 88.9592 186.622 88.4695C195.293 83.6204 205.174 79.146 214.677 77.1488Z" fill="black"/>
<path d="M308.273 97.6787C308.237 97.6785 308.201 97.6854 308.168 97.6989C308.135 97.7124 308.104 97.7324 308.079 97.7575C308.053 97.7827 308.033 97.8126 308.019 97.8456C308.005 97.8786 307.998 97.9139 307.998 97.9496V113.727C308 116.009 307.274 118.234 305.923 120.085C304.572 121.935 302.665 123.316 300.473 124.03L295.973 125.5C289.931 127.476 285.056 131.438 282.245 136.657C282.048 137.027 281.856 137.409 281.677 137.784L277.059 147.522C276.177 149.371 274.783 150.934 273.039 152.031C271.295 153.128 269.272 153.713 267.206 153.718H248.135V98.7849C248.13 98.7163 248.099 98.6522 248.048 98.6055C247.997 98.5587 247.93 98.5327 247.861 98.5327C247.791 98.5327 247.724 98.5587 247.673 98.6055C247.622 98.6522 247.591 98.7163 247.586 98.7849V153.718H176.947C176.203 153.717 175.49 153.424 174.964 152.904C174.439 152.384 174.143 151.678 174.142 150.943V100.579C174.142 100.507 174.113 100.438 174.062 100.387C174.01 100.336 173.941 100.308 173.868 100.308C173.796 100.308 173.726 100.336 173.675 100.387C173.623 100.438 173.594 100.507 173.594 100.579V150.944C173.597 151.821 173.95 152.662 174.577 153.283C175.204 153.903 176.054 154.253 176.941 154.255H267.2C269.369 154.248 271.491 153.633 273.322 152.482C275.152 151.33 276.616 149.689 277.542 147.749L282.16 138.01C282.335 137.638 282.522 137.271 282.717 136.908C285.455 131.812 290.225 127.943 296.131 126.012L300.632 124.54C302.934 123.792 304.938 122.343 306.359 120.4C307.779 118.457 308.543 116.12 308.541 113.722V97.9496C308.541 97.8788 308.513 97.8108 308.463 97.7601C308.413 97.7095 308.345 97.6803 308.273 97.6787Z" fill="black"/>
<g style="mix-blend-mode:multiply">
<path d="M192.3 107.157L192.286 107.111C192.184 106.727 192.075 106.358 191.955 106.012C191.918 105.905 191.876 105.813 191.838 105.711C191.742 105.46 191.649 105.204 191.544 104.978C191.406 104.673 191.247 104.378 191.068 104.095C191.067 104.09 191.067 104.084 191.068 104.079L186.331 96.7636C185.939 96.1616 185.522 95.9133 185.13 95.9916C184.474 96.124 183.884 97.1564 183.581 98.9173L183.478 99.5193L182.718 103.952L177.776 98.2777L177.406 101.498L191.238 117.924C192.017 118.866 192.84 117.74 193.009 115.499C193.225 112.607 192.936 109.556 192.3 107.157Z" fill="#939598"/>
</g>
<path d="M193.362 100.946H179.466L180.091 94.6023C180.308 92.3884 181.805 90.8081 183.467 91.0369L190.98 92.0724C193.307 92.3944 195.144 94.8596 195.375 97.9735C195.494 99.5658 194.559 100.946 193.362 100.946Z" fill="#DADAD9"/>
<path d="M177.403 98.5591H189.702C190.216 98.5591 190.708 98.761 191.071 99.1203C191.434 99.4796 191.638 99.9669 191.638 100.475V100.945H177.402V98.5576L177.403 98.5591Z" fill="black"/>
<path d="M190.98 92.0726L183.467 91.0371C181.805 90.8083 180.308 92.3916 180.091 94.6025L179.955 95.9811H189.866C191.45 95.9811 192.849 95.078 193.722 93.7025C192.974 92.819 192.032 92.2186 190.98 92.0726Z" fill="#E6E7E6"/>
<g style="mix-blend-mode:multiply" opacity="0.15">
<path d="M215.209 170.649C289.605 170.649 349.92 172.883 349.92 175.637C349.92 178.39 289.618 180.624 215.209 180.624C140.8 180.624 80.4984 178.39 80.4984 175.637C80.4984 172.883 140.821 170.649 215.209 170.649Z" fill="#414141"/>
</g>
<defs>
<linearGradient id="paint0_linear_1_478" x1="217.5" y1="-23.85" x2="217.5" y2="245.072" gradientUnits="userSpaceOnUse">
<stop stop-color="white"/>
<stop offset="0.37" stop-color="#FDFDFD"/>
<stop offset="0.56" stop-color="#F5F5F5"/>
<stop offset="0.71" stop-color="#E7E7E7"/>
<stop offset="0.85" stop-color="#D4D4D4"/>
<stop offset="0.96" stop-color="#BCBCBC"/>
<stop offset="1" stop-color="#B3B3B3"/>
</linearGradient>
</defs>
</svg>
