<svg width="179" height="150" viewBox="0 0 179 150" fill="none" xmlns="http://www.w3.org/2000/svg">
<circle cx="104" cy="75" r="75" fill="#D9D9D9" fill-opacity="0.6"/>
<path fill-rule="evenodd" clip-rule="evenodd" d="M139.477 106.838C140.19 104.037 140.548 100.735 140.692 98.5638C140.803 96.8934 140.868 95.2191 140.871 93.5433C140.871 92.7896 140.862 92.0364 140.824 91.2857C141.084 91.0601 141.338 90.8152 141.583 90.5718C141.946 90.2126 142.302 89.8419 142.654 89.4673C143.096 88.997 143.532 88.5177 143.962 88.0295C144.237 87.7155 144.536 87.3836 144.788 87.0423C145.019 86.7323 145.237 86.3522 145.433 86.0084C145.717 85.5185 145.992 85.0187 146.266 84.5179C146.751 83.6236 147.229 82.7237 147.699 81.8181C147.932 81.5588 148.148 81.2763 148.344 80.9735C148.779 80.3102 149.144 79.5402 149.323 78.7105C149.437 78.1868 149.555 77.6572 149.624 77.1206C149.77 75.963 149.644 74.7487 149.515 73.5971C149.435 72.8911 149.321 72.1841 149.201 71.4885C149.054 70.6409 148.889 69.7993 148.713 68.9547C148.479 67.8368 148.223 66.7145 147.927 65.616C147.811 65.1818 147.685 64.747 147.544 64.3242C147.445 64.0301 147.328 63.6977 147.182 63.4344C146.798 62.7483 145.883 62.2952 145.266 62.0259C144.323 61.6145 143.322 61.3164 142.349 61.0417C141.743 60.8713 141.135 60.7108 140.526 60.5449C139.789 60.3491 139.038 60.2055 138.29 60.0828C137.311 59.9238 136.328 59.8011 135.344 59.6968C134.992 59.6605 134.639 59.6252 134.287 59.59C134.131 59.5746 133.965 59.5631 133.807 59.5403C133.742 59.4906 133.662 59.4146 133.609 59.3639C133.445 59.2119 133.286 59.0514 133.129 58.8909C132.631 58.3836 132.143 57.8615 131.655 57.3388C130.271 55.8518 128.897 54.3474 127.515 52.8549C126.588 51.8508 125.656 50.8492 124.715 49.8635C123.946 49.0552 123.169 48.2478 122.371 47.4847C121.248 46.4086 120.091 45.398 118.852 44.5345C116.269 42.7335 113.556 41.7781 110.653 41.094C109.807 40.8952 108.946 40.7462 108.091 40.6195C107.028 40.4585 105.964 40.3303 104.899 40.2151C102.422 39.9473 99.9386 39.756 97.4561 39.5955C93.4348 39.3349 89.409 39.1484 85.3786 39.0361C83.6824 38.9864 81.9813 38.9954 80.2846 39.0192C78.2547 39.0474 76.2252 39.1005 74.1959 39.1787C71.6916 39.2714 69.1874 39.3943 66.6833 39.5473C65.6371 39.6136 64.5914 39.6888 63.5463 39.7729C62.7467 39.839 61.9459 39.911 61.1496 40.0079C56.5286 40.5658 52.9987 41.9122 49.3579 45.557C48.4438 46.4712 47.5608 47.4708 46.698 48.458C45.5921 49.7244 44.5036 51.0112 43.4215 52.3084C41.1448 55.038 38.8931 57.8025 36.6666 60.602C36.4438 60.7655 36.1717 60.988 35.9972 61.2037C35.8227 61.4193 35.5414 61.5316 35.3004 61.543C35.1162 61.5514 34.92 61.5808 34.7362 61.6021C34.3488 61.6475 33.9615 61.6935 33.5743 61.7402C32.4572 61.8754 31.3403 62.0105 30.2237 62.1456C29.1625 62.2723 28.1014 62.399 27.0399 62.5163C26.6538 62.5583 26.2677 62.5983 25.8816 62.636C25.6801 62.6539 25.4657 62.6792 25.2658 62.6792C24.3063 62.6792 23.341 62.7091 22.3815 62.7374C20.5639 62.788 18.7459 62.8679 16.9275 62.9768C15.3272 63.0762 13.7163 63.1989 12.124 63.4091C11.4897 63.4935 10.8525 63.5904 10.225 63.7285C9.80026 63.8229 9.31906 63.9427 8.91605 64.1414C7.86822 64.5359 6.79782 65.1326 5.82455 65.7442C5.08298 66.2034 4.36361 66.7152 3.67005 67.2769C3.16628 67.6893 2.56297 68.2259 2.1789 68.8047C1.15404 70.3448 0.0344781 74.0507 0.00264015 76.041C-0.0137819 76.8044 0.0464554 77.5673 0.18198 78.3125C0.204952 78.4322 0.232357 78.5634 0.262583 78.6926C0.0252087 79.0493 0.0582554 79.6703 0.0961385 80.0926C0.259358 81.9051 0.368977 83.7766 0.940045 85.4807C1.42809 86.937 2.93818 88.6525 3.91024 89.6497C4.57122 90.3309 5.26558 90.9614 5.98938 91.5376C6.85424 92.5487 7.73724 93.5458 8.6283 94.523L8.62145 94.6721C8.37964 99.9618 9.54475 106.88 12.6383 110.769C12.9507 111.162 13.2749 111.536 13.6107 111.893C-2.2111 115.815 0.587813 118.083 37.5355 119.236C68.1616 120.193 77.1919 120.383 89.0331 119.038C89.9945 119.078 90.9569 119.043 91.9147 118.935C92.8855 118.825 93.8468 118.614 94.7882 118.301C96.0314 118.13 97.332 117.944 98.7099 117.742C101.472 117.338 120.838 115.678 134.994 113.077C142.908 111.623 149.359 109.466 149.967 108.059C150.414 107.033 146.306 106.796 139.477 106.838ZM34.7918 109.802C35.4173 108.784 35.9433 107.679 36.3587 106.51C37.4966 106.491 38.634 106.493 39.771 106.514C40.573 106.529 41.3758 106.552 42.1758 106.617C42.3833 106.634 42.5893 106.652 42.796 106.678C42.9169 106.694 43.1777 106.722 43.2974 106.773C43.4723 106.914 43.6037 107.186 43.735 107.379C44.1784 108.032 44.7184 108.264 45.3938 108.307C46.0439 108.346 46.696 108.369 47.3472 108.394C48.4144 108.438 49.4817 108.479 50.5492 108.517C51.6494 108.558 52.7492 108.595 53.8486 108.631C54.4894 108.65 55.1302 108.68 55.7714 108.68C56.4126 108.68 56.9804 108.352 57.4528 107.836C57.5588 107.719 57.6592 107.595 57.7534 107.463L63.0732 107.141C63.1086 107.203 63.1441 107.264 63.1804 107.323C63.4058 107.691 63.6574 108.034 63.9324 108.346C53.467 108.762 43.2768 109.271 34.7918 109.802ZM102.486 107.333C102.818 106.085 103.095 104.816 103.326 103.553C106.848 103.106 110.369 102.648 113.889 102.179C115.616 101.947 117.343 101.712 119.07 101.472C120.314 101.297 121.559 101.121 122.802 100.929C122.926 102.568 123.175 105.015 123.671 107.124C118.673 107.224 113.249 107.309 107.659 107.309C106.006 107.309 104.277 107.317 102.486 107.333ZM103.079 82.1932C103.191 82.6135 103.241 82.8888 103.241 82.8888C103.543 81.3983 105.606 80.8384 108.966 80.4494C109.05 79.558 109.119 78.6667 109.16 77.7695C109.178 77.378 109.191 76.981 109.198 76.582C104.15 76.7385 100.445 76.8513 100.445 76.8513L81.8857 78.5286L81.8559 81.1002C81.8559 81.1002 82.0977 81.2115 82.5507 81.2493C83.0037 81.287 82.8534 83.3727 82.8534 83.3727C82.8534 83.3727 85.3013 83.1124 87.3873 83.0011C89.4732 82.8898 90.2285 83.8208 90.5307 84.3053C90.833 84.7897 90.3502 86.6528 90.3502 86.6528C90.3502 86.6528 92.2544 81.287 93.9463 79.7225C95.6381 78.158 97.3017 77.524 99.8411 77.8594C101.481 78.0755 102.42 80.1105 102.88 81.525C101.52 77.7988 96.7142 78.3885 94.3187 80.1662C92.3036 81.6616 90.087 87.5938 89.1142 90.2766C88.641 91.5764 88.5028 92.2058 87.8507 93.3326C86.2536 96.0901 83.9572 99.7631 81.4473 101.25C80.0137 102.098 79.2118 102.08 77.7621 101.374C76.7739 100.894 75.8244 100.988 74.7871 100.995C65.4594 101.061 56.0873 101.39 46.7528 101.56C44.375 101.604 41.7264 101.735 39.3809 101.573C35.298 101.294 31.0998 100.767 27.0157 100.33C25.3295 100.151 23.2536 99.8406 21.6153 99.8491C19.0288 99.8615 15.2989 99.1535 12.9591 97.8295C10.9279 96.6803 8.0399 93.0311 6.23844 91.1471C7.42652 92.6873 11.0617 96.797 12.4714 97.7321C14.8339 99.2986 18.9196 100.102 21.6153 100.108C23.2463 100.111 25.3154 100.435 26.9935 100.627C31.0777 101.09 35.2795 101.641 39.3636 101.942C41.8103 102.122 44.5967 101.995 47.0817 101.962C56.3062 101.833 65.569 101.548 74.7879 101.514C75.7475 101.511 76.6925 101.42 77.6005 101.865C79.1658 102.634 80.0919 102.648 81.6379 101.74C83.3845 100.713 85.0147 98.7014 86.3987 96.6296L86.3467 96.7076C86.3112 97.2457 86.2931 97.7952 86.2931 98.3516C86.2931 105.452 89.2564 111.208 92.9121 111.208C96.5679 111.208 99.5324 105.452 99.5324 98.3516C99.5324 91.2509 96.5679 85.4962 92.9121 85.4962C92.3961 85.4971 91.8843 85.6115 91.4008 85.834C91.2336 86.2136 91.0728 86.5927 90.9172 86.9668C91.9784 84.4026 93.3474 81.5632 94.5568 80.66C96.7331 79.0319 101.357 78.3532 102.525 81.8867C103.299 84.2312 102.863 88.9143 102.467 91.3617C102.441 91.5217 102.417 91.6598 102.396 91.7791C101.997 88.7156 100.763 83.7384 96.9624 80.6148C99.6706 83.243 101.967 87.8685 102.516 93.6208C102.536 93.8747 102.555 94.1296 102.578 94.3889L102.584 94.4768V94.459V94.4684C102.584 94.4545 102.584 94.4406 102.584 94.4262C102.584 94.371 102.584 94.2722 102.582 94.1345C102.578 93.2119 102.624 92.576 102.624 92.5546C102.717 92.4771 102.85 91.6226 102.876 91.4616C103.272 89.0554 103.686 84.7569 103.078 82.1917L103.079 82.1932ZM92.9133 86.3522C96.3256 86.3522 99.0915 91.7239 99.0915 98.3501C99.0915 104.976 96.3256 110.349 92.9133 110.349C89.501 110.349 86.7352 104.977 86.7352 98.3501C86.7346 97.5383 86.777 96.7272 86.8621 95.9221C86.7553 96.0886 86.6457 96.256 86.5353 96.4239C87.1559 95.4799 87.7254 94.536 88.2308 93.6655C88.909 92.5009 89.0589 91.8506 89.5478 90.5151C89.6635 90.1991 89.8001 89.828 89.954 89.4176L89.8984 89.5667C90.4493 89.4673 91.0123 89.5667 91.6511 89.9641C94.5617 91.7686 95.1855 97.6441 94.6407 101.2C94.2465 103.769 93.0492 106.939 90.7717 107.518L90.2998 107.603C89.8053 107.409 89.3975 107.257 88.9243 107.101C89.0134 107.259 89.1049 107.411 89.1996 107.559C89.2157 107.584 89.2318 107.609 89.2488 107.633C89.2717 107.669 89.2947 107.704 89.3173 107.738C89.331 107.757 89.3439 107.777 89.3576 107.797C89.3814 107.832 89.4055 107.866 89.4293 107.9C89.4454 107.924 89.4624 107.946 89.4785 107.968C89.5027 108.001 89.5252 108.033 89.5494 108.064C89.5643 108.086 89.58 108.106 89.5962 108.128C89.6211 108.16 89.6465 108.194 89.6727 108.227C89.6852 108.244 89.6989 108.259 89.713 108.277C89.7396 108.31 89.767 108.343 89.7936 108.376C89.8085 108.395 89.8231 108.413 89.838 108.43C89.8654 108.462 89.8928 108.496 89.9214 108.529C89.9351 108.545 89.9488 108.562 89.9617 108.579L90.0487 108.673L90.0842 108.711C90.1136 108.742 90.1447 108.773 90.1745 108.804L90.2075 108.838L90.3091 108.937C90.3204 108.947 90.3321 108.958 90.3433 108.968C90.3752 108.999 90.4074 109.028 90.4405 109.058C90.451 109.066 90.461 109.076 90.4715 109.085C90.5045 109.114 90.5376 109.142 90.5706 109.171C90.5811 109.179 90.59 109.186 90.5993 109.194C90.6371 109.226 90.6758 109.257 90.7133 109.286C90.7226 109.293 90.7306 109.3 90.7387 109.306C90.7754 109.334 90.8104 109.361 90.8471 109.386C90.8564 109.393 90.8652 109.4 90.8745 109.406C90.9112 109.432 90.9479 109.458 90.9841 109.482C90.9922 109.488 90.999 109.493 91.0071 109.498C91.0474 109.525 91.0905 109.552 91.1316 109.577C91.1385 109.58 91.1441 109.585 91.1498 109.587C91.1901 109.611 91.2304 109.637 91.2707 109.658L91.2924 109.67L91.4133 109.734L91.4315 109.742C91.4762 109.765 91.5205 109.786 91.5653 109.807L91.5754 109.812C91.6189 109.831 91.6624 109.849 91.7043 109.868L91.7241 109.875C91.7644 109.891 91.8083 109.907 91.8506 109.924L91.8667 109.93C91.9123 109.945 91.9594 109.961 92.005 109.975H92.013C92.0586 109.989 92.1045 110.002 92.15 110.013L92.165 110.017C92.2093 110.028 92.2552 110.038 92.2996 110.047L92.3121 110.049C92.3604 110.059 92.4092 110.068 92.4571 110.075H92.4596C92.5075 110.083 92.5567 110.089 92.6046 110.093H92.6171C92.6631 110.097 92.7098 110.102 92.7554 110.104H92.7691C92.8182 110.107 92.8686 110.109 92.9178 110.109C92.967 110.109 93.0193 110.109 93.0685 110.104L93.1201 110.1C93.1531 110.1 93.1862 110.096 93.2192 110.093C93.2386 110.093 93.2595 110.089 93.2789 110.086C93.3083 110.083 93.3381 110.079 93.3692 110.075L93.4316 110.065L93.5163 110.049L93.5815 110.035C93.6089 110.03 93.6364 110.024 93.6621 110.017C93.6879 110.01 93.7065 110.006 93.7294 109.999C93.7524 109.992 93.7818 109.986 93.81 109.977L93.8773 109.957L93.9551 109.931C93.9777 109.924 94.0007 109.915 94.0224 109.907C94.0442 109.898 94.0728 109.889 94.0978 109.879C94.1228 109.869 94.1433 109.859 94.1663 109.851C94.1893 109.842 94.2155 109.83 94.2405 109.818C94.2654 109.807 94.2864 109.797 94.309 109.788L94.3823 109.752C94.4053 109.741 94.4267 109.73 94.4496 109.717C94.4726 109.705 94.4976 109.693 94.5218 109.68C94.5459 109.667 94.5673 109.655 94.5903 109.641L94.66 109.6C94.6826 109.587 94.7055 109.574 94.7285 109.559C94.7515 109.545 94.7741 109.53 94.797 109.515L94.8643 109.471C94.8873 109.455 94.9099 109.439 94.9316 109.421C94.9534 109.403 94.9776 109.39 95.0001 109.371C95.0227 109.352 95.0437 109.339 95.0654 109.322C95.0872 109.304 95.111 109.288 95.1339 109.272L95.1968 109.222C95.2198 109.204 95.2436 109.184 95.2653 109.166C95.2871 109.147 95.3056 109.131 95.327 109.112C95.3483 109.094 95.3737 109.073 95.3967 109.052C95.4197 109.031 95.437 109.017 95.4551 108.998C95.4733 108.98 95.5019 108.954 95.5257 108.934L95.5805 108.878C95.6047 108.856 95.6284 108.832 95.6526 108.808C95.6695 108.791 95.6869 108.773 95.703 108.755C95.728 108.729 95.753 108.705 95.7784 108.677C95.7933 108.662 95.807 108.645 95.8215 108.628C95.8493 108.599 95.8755 108.569 95.9021 108.54C95.9122 108.529 95.9214 108.518 95.9319 108.505C96.0802 108.334 96.2253 108.151 96.3647 107.958L96.3692 107.953C96.4002 107.909 96.4308 107.865 96.4619 107.821C96.4687 107.811 96.4756 107.801 96.4824 107.792C96.511 107.75 96.5396 107.706 96.5683 107.664C96.5759 107.65 96.5852 107.637 96.5932 107.625C96.6207 107.582 96.6481 107.54 96.6739 107.498C96.6831 107.482 96.692 107.468 96.7025 107.453C96.7287 107.411 96.754 107.369 96.7802 107.325C96.7891 107.309 96.7996 107.294 96.8089 107.275C96.8338 107.233 96.8588 107.189 96.8842 107.146L96.9136 107.096C96.939 107.051 96.9628 107.006 96.9882 106.961C96.9971 106.944 97.0063 106.927 97.0156 106.911C97.0406 106.865 97.0648 106.818 97.0886 106.772L97.116 106.722C97.1401 106.676 97.1639 106.628 97.1869 106.58C97.1962 106.563 97.205 106.545 97.2131 106.528C97.2373 106.478 97.261 106.431 97.284 106.382L97.3078 106.332C97.332 106.283 97.3557 106.233 97.3787 106.179L97.4005 106.129C97.4243 106.079 97.4472 106.024 97.4702 105.972L97.4908 105.922C97.5145 105.869 97.5375 105.814 97.5605 105.759C97.5661 105.744 97.5718 105.729 97.5774 105.715C97.6016 105.658 97.6246 105.601 97.6471 105.542L97.662 105.504C97.6862 105.443 97.7088 105.383 97.7318 105.322C97.736 105.312 97.7398 105.302 97.743 105.291C97.7672 105.226 97.791 105.163 97.814 105.098L97.822 105.076C97.8458 105.008 97.87 104.939 97.893 104.87L97.8962 104.862C98.324 103.575 98.6143 102.225 98.7598 100.846V100.842C98.7703 100.752 98.7792 100.663 98.7885 100.573V100.565C98.7977 100.475 98.8058 100.386 98.8134 100.296V100.287C98.8215 100.197 98.8283 100.105 98.8352 100.016V100.007C98.842 99.9156 98.8477 99.8252 98.8537 99.7338V99.7254C98.8594 99.6325 98.8638 99.541 98.8682 99.4491V99.4407C98.8719 99.3478 98.8763 99.2549 98.8799 99.1605C98.7038 95.2554 97.5536 95.7159 97.0575 98.8425C96.5586 101.991 94.8095 104.636 94.5274 102.824C94.9375 101.29 95.1334 99.6811 95.1065 98.0664C95.1065 98.0168 95.1041 97.9671 95.1021 97.9174C96.2487 99.6762 96.5932 94.5062 96.4534 91.9843C96.3244 89.6293 97.2312 90.9434 97.8756 91.7955C97.871 91.783 97.8668 91.7702 97.8631 91.7572C97.8426 91.7011 97.8228 91.6444 97.8027 91.5883C97.7966 91.5714 97.7898 91.553 97.7841 91.5361C97.7616 91.474 97.7386 91.4124 97.7156 91.3518L97.6951 91.2966C97.6713 91.235 97.6471 91.1744 97.6233 91.1138L97.606 91.0716C97.5855 91.0194 97.5637 90.9658 97.5419 90.9136C97.5351 90.8982 97.5282 90.8828 97.5226 90.8674C97.4976 90.8093 97.4722 90.7516 97.4472 90.694L97.423 90.6388L97.3477 90.4699C97.34 90.4545 97.3332 90.4391 97.3263 90.4237C97.3034 90.374 97.2804 90.3243 97.2578 90.2786C97.2506 90.2657 97.2437 90.2518 97.2369 90.2379C97.2107 90.1827 97.1845 90.1291 97.1563 90.0759C97.147 90.059 97.1381 90.0407 97.1301 90.0238C97.1032 89.9701 97.0763 89.9179 97.0495 89.8673C97.0414 89.8519 97.0333 89.8365 97.0241 89.8176C97.0003 89.7724 96.9761 89.7286 96.9511 89.6834C96.9431 89.6695 96.9362 89.6556 96.9282 89.6427C96.9007 89.593 96.8733 89.5433 96.8476 89.4991C96.8375 89.4822 96.827 89.4653 96.8177 89.4494C96.7895 89.3997 96.7609 89.3535 96.7323 89.3073C96.7218 89.2904 96.7117 89.275 96.7025 89.2576C96.6763 89.2164 96.6501 89.1757 96.6247 89.1349C96.6146 89.1195 96.6041 89.1041 96.5941 89.0882C96.5679 89.0475 96.5413 89.0068 96.5135 88.9675C96.5034 88.9516 96.4929 88.9362 96.4816 88.9208C96.453 88.8771 96.4236 88.8349 96.3925 88.7926L96.3583 88.7429C96.3309 88.7047 96.3035 88.6684 96.2777 88.6302C96.2652 88.6148 96.2523 88.5979 96.2398 88.5805C96.2148 88.5482 96.1898 88.5144 96.1644 88.4811C96.1519 88.4672 96.1407 88.4518 96.129 88.4374C96.0983 88.3981 96.0673 88.3614 96.0367 88.3236C96.0242 88.3082 96.0113 88.2923 95.9964 88.2784C95.967 88.2416 95.9359 88.2069 95.9061 88.1716C95.8936 88.1572 95.8811 88.1448 95.8686 88.1308C95.8436 88.1025 95.8183 88.0757 95.7933 88.0474C95.7808 88.035 95.7679 88.0205 95.7554 88.0066C95.7248 87.9743 95.6925 87.9406 95.6607 87.9073C95.647 87.8919 95.6321 87.878 95.6204 87.8641C95.5885 87.8328 95.5563 87.8005 95.5245 87.7711C95.5108 87.7567 95.4971 87.7443 95.4842 87.7314L95.4112 87.6638C95.3951 87.6499 95.3802 87.6355 95.3641 87.6231C95.3334 87.5963 95.3036 87.5694 95.273 87.5441C95.2581 87.5317 95.242 87.5173 95.2258 87.5048C95.194 87.478 95.1622 87.4527 95.1287 87.4273C95.114 87.4146 95.0988 87.4028 95.0832 87.3921L95.009 87.3369C94.9897 87.3215 94.9687 87.3076 94.9482 87.2937L94.8675 87.2356C94.8506 87.2256 94.8345 87.2147 94.8184 87.2033L94.7192 87.1402C94.7019 87.1302 94.685 87.1203 94.6689 87.1089L94.5923 87.0651L94.525 87.0274C94.4988 87.013 94.4734 86.9991 94.4472 86.9866C94.4303 86.9767 94.413 86.9683 94.396 86.9598L94.2941 86.9101C94.2771 86.9027 94.2586 86.8942 94.2417 86.8858C94.2143 86.8749 94.1881 86.8634 94.1611 86.852C94.1341 86.8406 94.1139 86.8326 94.0913 86.8242C94.0688 86.8157 94.0398 86.8043 94.0148 86.7959C93.9975 86.7889 93.9793 86.7819 93.9612 86.776L93.858 86.7422C93.8399 86.7367 93.8217 86.7313 93.8032 86.7268C93.7738 86.7169 93.7427 86.7099 93.7129 86.7015L93.6468 86.6846L93.569 86.6677C93.5521 86.6632 93.5348 86.6607 93.5167 86.6563C93.4812 86.6493 93.4457 86.6438 93.4091 86.6379L93.3542 86.6294C93.3188 86.6254 93.2837 86.62 93.247 86.617C93.4687 87.1138 93.7826 87.7622 94.1026 88.5129C95.3649 91.4785 95.252 92.7111 93.0496 90.9633C92.4451 90.1549 91.6979 89.5816 90.7979 89.4196C90.5245 89.3673 90.2467 89.3603 89.9718 89.3988C90.2394 88.6873 90.5594 87.8586 90.9144 87.0015C91.5256 86.5821 92.2123 86.3583 92.9117 86.3507L92.9133 86.3522ZM142.323 83.8934C142.323 83.8934 142.368 83.3772 142.418 82.6707C142.4 83.085 142.37 83.4964 142.323 83.8919V83.8934ZM149.426 76.4782C149.426 76.4782 149.229 75.9744 147.687 75.9938C146.145 76.0132 143.048 76.4782 142.624 76.9432C142.2 77.4083 142.534 78.1545 142.549 79.646C142.558 80.4906 142.484 81.7446 142.418 82.6707C142.47 81.4783 142.418 80.2531 142.337 79.2724C142.231 77.9503 141.566 76.4221 140.464 75.956C139.362 75.49 137.274 75.6952 135.824 77.7078C134.606 79.3996 133.512 83.9346 133.195 85.3362C133.418 84.6287 133.638 83.9451 133.858 83.3146C134.909 80.3093 136.196 77.1499 139.321 77.4361C140.172 77.5136 141.439 77.8445 141.913 78.8078C142.869 80.7455 142.096 84.9044 141.489 86.9479C141.105 88.2396 140.579 89.7674 140.017 90.9548C140.532 89.5871 140.992 88.3395 141.4 86.9086C141.968 84.9183 142.713 80.7793 141.776 78.9097C141.373 78.1053 140.351 77.8196 139.64 77.6999C136.582 77.1887 135.266 80.035 134.217 82.9981C133.365 85.4032 132.568 88.5526 131.589 90.765C130.788 92.5745 126.901 98.9627 125.576 99.9837C125.114 100.341 123.72 100.477 123.115 100.572C116.373 101.65 109.505 102.496 102.735 103.368C102.745 103.208 102.756 103.047 102.765 102.885C109.514 102.047 116.357 101.229 123.077 100.189C123.603 100.108 125.035 99.9614 125.414 99.6697C126.7 98.6761 130.576 92.3663 131.361 90.6115C132.003 89.1762 132.581 87.2977 133.135 85.5309C133.292 84.3574 133.973 78.9474 133.165 78.7492C132.959 78.6995 132.146 78.708 130.942 78.7616C131.022 77.8981 131.07 77.0307 131.083 76.1662C131.083 76.0718 131.086 75.9789 131.087 75.8845C134.27 75.7787 136.509 75.7012 136.928 75.6748C138.711 75.562 149.396 75.6182 149.396 75.6182L149.426 76.4782ZM110.003 76.5557C116.375 76.357 124.595 76.1011 130.281 75.9138C130.281 75.9928 130.281 76.0728 130.278 76.1518C130.264 77.0346 130.212 77.922 130.127 78.8034C125.797 79.0274 117.956 79.64 113.578 80.0176C112.194 80.1373 110.925 80.2427 109.785 80.3599C109.861 79.5153 109.925 78.6707 109.963 77.8261C109.982 77.4038 109.996 76.9795 110.003 76.5542V76.5557ZM119.803 46.2585C121.013 46.9287 129.234 56.0957 130.564 57.6603C131.894 59.2248 131.894 59.3743 130.503 60.4177C129.909 60.8648 128.714 62.1794 127.624 63.4682C127.612 63.4559 127.6 63.4428 127.588 63.429C127.512 63.329 127.442 63.2211 127.381 63.1065C127.293 62.953 127.21 62.7895 127.127 62.6301C127.065 62.5103 127.002 62.3896 126.938 62.2713C126.881 62.164 126.807 62.0229 126.724 61.8798C128.223 60.2348 129.644 58.2858 129.354 57.8843C128.872 57.2121 118.595 45.5863 119.803 46.257V46.2585ZM128.569 63.4737C129.529 62.5684 132.136 60.0828 133.701 60.0292C134.153 60.1037 137.933 60.364 140.441 61.0347C142.949 61.7055 146.184 62.5252 146.849 63.7176C147.117 64.1985 147.489 65.4744 147.856 67.0017C145.262 66.479 141.533 65.7626 139.134 65.4486C135.403 64.9612 134.843 66.3637 129.839 68.6198C129.59 67.8183 129.33 67.0217 129.058 66.2301C128.941 65.8932 128.822 65.5584 128.698 65.226C128.627 65.0235 128.546 64.8264 128.456 64.6358L128.391 64.5021C128.307 64.3332 128.223 64.1598 128.132 63.9963C128.119 63.974 128.107 63.9511 128.091 63.9288C128.252 63.7728 128.411 63.6206 128.569 63.4722V63.4737ZM147.874 67.0762C147.868 67.0513 147.862 67.0265 147.856 67.0017L147.874 67.0762ZM124.096 64.2189C124.561 64.0048 125.316 63.347 126.111 62.5297C126.175 62.644 126.237 62.7607 126.298 62.8775C126.349 62.9768 126.4 63.0722 126.45 63.1676C126.541 63.341 126.63 63.5154 126.727 63.6833C126.816 63.8468 126.916 64.0004 127.026 64.1424C127.033 64.1494 127.04 64.1563 127.046 64.1633C125.854 65.6125 124.977 66.8054 125.514 66.3439C126.191 65.7646 126.835 65.1465 127.456 64.5453C127.464 64.5578 127.471 64.5707 127.478 64.5816C127.559 64.7227 127.629 64.8747 127.701 65.0198L127.767 65.1535C127.845 65.3228 127.916 65.4973 127.979 65.6761C128.099 65.9956 128.212 66.322 128.324 66.6434C128.586 67.4086 128.838 68.179 129.078 68.9547C128.964 69.0044 128.85 69.0541 128.733 69.1038C128.638 69.143 128.543 69.1827 128.451 69.2205C128.428 69.139 128.403 69.057 128.378 68.9756C128.338 68.8419 128.294 68.7053 128.243 68.5781C128.203 68.4693 128.147 68.3456 128.056 68.2934C127.903 68.2075 127.617 68.2159 127.451 68.2214C127.171 68.2298 126.889 68.2596 126.609 68.2904H126.601H126.593C126.492 68.3102 126.399 68.3742 126.332 68.4708C126.189 68.679 126.204 68.986 126.255 69.2339C126.277 69.3441 126.308 69.4513 126.348 69.5539C126.368 69.6113 126.387 69.67 126.402 69.7298C126.424 69.8028 126.443 69.8788 126.465 69.9494C122.113 71.344 119.791 70.5456 111.084 71.1914L109.52 71.3067C109.412 70.7517 109.292 70.2012 109.167 69.6532C109.116 69.4297 109.063 69.2058 109.011 68.9815C108.782 68.0241 108.535 67.0662 108.26 66.1257C108.228 66.013 108.194 65.9002 108.16 65.7874C113.306 65.7114 122.757 64.837 124.096 64.2174L124.096 64.2189ZM81.8112 78.1162C81.8418 74.5008 79.6655 73.2349 80.5123 72.2661C81.359 71.2973 85.8917 68.0187 90.1846 66.6762C94.4774 65.3338 102.275 65.7074 106.99 65.7819C107.093 65.7819 107.199 65.7849 107.307 65.7849C107.383 66.0244 107.455 66.2664 107.524 66.5088C107.784 67.4145 108.019 68.3352 108.24 69.2563C108.288 69.458 108.335 69.6604 108.382 69.8634C108.496 70.3602 108.604 70.8597 108.706 71.3618C100.212 71.9958 95.8904 72.3888 92.2855 73.3462C88.3557 74.3895 82.5523 76.6993 82.5523 76.6993C82.5523 76.6993 86.5421 75.3578 94.4617 73.8674C96.9604 73.3969 102.391 73.0898 108.986 72.901C109.029 73.1827 109.068 73.4659 109.097 73.7456C109.175 74.5508 109.211 75.3613 109.204 76.1721L109.137 76.1751C95.7151 76.7743 82.959 77.8177 81.8112 78.1162ZM109.8 72.8802C116.08 72.7122 123.323 72.6476 130.068 72.6491C130.071 72.666 130.074 72.6844 130.076 72.6988C130.225 73.6324 130.278 74.621 130.283 75.5844C123.181 75.7225 115.561 75.9068 110.007 76.1394C110.014 75.2977 109.976 74.4564 109.893 73.6209C109.867 73.376 109.835 73.1281 109.799 72.8802H109.8ZM130.888 72.6491C138.25 72.6576 144.938 72.7435 149.011 72.8588C149.052 73.1504 149.089 73.4222 149.117 73.6661C149.191 74.318 149.237 74.8446 149.265 75.2928C146.949 75.3191 139.453 75.412 131.087 75.5715C131.083 74.5967 131.029 73.6011 130.887 72.6491H130.888ZM105.642 63.3023C105.593 63.4483 105.574 63.6069 105.585 63.7643C105.613 63.9968 105.742 64.1658 105.883 64.3079C106.061 64.4867 106.257 64.5796 106.469 64.6755C106.61 64.7304 106.744 64.8062 106.87 64.9011C105.142 64.9418 103.59 64.9627 102.333 64.9627C99.4917 64.9627 91.8143 65.2235 88.2175 66.1923C84.6206 67.1611 81.9619 69.1733 79.2408 72.0052C77.881 71.1477 70.4749 71.4463 70.6566 71.1109C70.8384 70.7756 71.4425 69.8818 72.8639 68.913C74.2853 67.9442 77.3373 66.9371 80.0573 66.2301C82.7772 65.5231 91.5121 64.1807 94.7462 63.6963C97.9804 63.2118 98.0106 62.2058 98.0106 62.2058C98.0106 62.2058 102.605 62.802 105.325 63.2491L105.642 63.3023ZM128.601 58.256C128.449 57.9579 119.261 46.6302 119.261 46.6302C119.261 46.6302 129.356 58.1814 129.054 58.5163C128.896 58.6912 127.721 60.0992 126.454 61.457C126.41 61.3994 126.362 61.3467 126.311 61.2995C126.28 61.2743 126.249 61.2515 126.216 61.2315C127.499 59.8642 128.681 58.4179 128.601 58.256ZM106.422 63.5651C106.432 63.5343 106.443 63.5005 106.45 63.4806L106.458 63.4553C108.489 63.8637 109.722 64.3242 110.495 64.516C111.402 64.7386 122.313 64.2542 123.492 63.6963C123.902 63.502 124.661 62.8218 125.473 62.0036C125.625 62.0289 125.776 62.0627 125.839 62.1029C124.864 63.103 123.924 63.9491 123.431 64.0674C122.193 64.3655 118.474 64.4773 114.001 64.6636C111.879 64.751 109.782 64.8231 107.862 64.8737C107.818 64.749 107.764 64.63 107.701 64.5185C107.439 64.0892 107.141 63.9188 106.748 63.7415C106.634 63.6982 106.525 63.639 106.421 63.5651H106.422ZM40.5783 67.2863C40.6646 67.2952 40.7505 67.3107 40.8354 67.3326C40.945 67.3564 41.0546 67.3822 41.1642 67.3976C41.2122 67.4046 41.2626 67.4071 41.3105 67.4101C41.4028 67.417 41.4955 67.423 41.587 67.4269C41.8989 67.4455 42.2111 67.4621 42.5236 67.4766C43.5652 67.5286 44.6072 67.5783 45.6493 67.6257C48.1612 67.7423 50.6733 67.862 53.1857 67.9849C55.2043 68.0843 57.223 68.1906 59.2413 68.3118C60.0882 68.3625 60.9345 68.4173 61.7803 68.4763C62.4303 68.523 63.0816 68.5721 63.7313 68.6342C66.0593 68.8555 68.3895 69.0542 70.7219 69.2304C69.9356 70.087 69.8409 71.1184 69.8409 71.1184C69.8409 71.1184 40.5525 69.777 39.0408 69.777C37.7886 69.769 38.7131 68.6452 40.5774 67.2863H40.5783ZM32.6329 63.1373C36.7436 62.5779 39.0714 62.3543 40.3707 61.9077C41.67 61.461 41.851 60.6035 41.851 60.6035L44.9945 60.4907C44.9945 60.4907 44.1792 61.7204 43.8467 61.9444C43.5142 62.1685 42.5466 62.8765 43.6049 62.8765C44.6632 62.8765 55.0907 63.0991 55.0907 63.0991C55.0907 63.0991 61.4377 63.2864 63.7055 63.2118C65.9732 63.1373 66.9396 62.6892 67.9061 62.4288C68.8725 62.1685 65.7608 60.3422 65.7608 60.3422C65.7608 60.3422 79.8763 60.9011 84.0781 61.0874C88.2799 61.2737 96.773 62.0552 96.773 62.0552C96.2592 62.3916 95.9871 62.6142 92.632 62.9873C89.277 63.3604 86.0424 63.7325 80.5417 64.9249C76.0775 65.8922 73.3254 67.3261 71.8653 68.3103C69.1739 68.126 66.4802 67.8935 63.7933 67.6371C63.1421 67.5755 62.4888 67.5258 61.8351 67.4796C60.9864 67.4207 60.1372 67.3662 59.2877 67.3162C57.2632 67.1949 55.2377 67.0855 53.2111 66.9878C50.7003 66.8626 48.1898 66.7433 45.6796 66.63C44.6454 66.5823 43.611 66.5337 42.5764 66.484L41.805 66.4457C41.8211 66.4343 41.8373 66.4248 41.8518 66.4149C44.5116 64.7008 48.2597 63.1358 48.2597 63.1358C48.2597 63.1358 46.5074 63.583 44.0889 64.5891C43.1007 65.0004 42.0154 65.6667 41.0353 66.3677C41.0159 66.3637 40.995 66.3593 40.9768 66.3538C40.5702 66.2649 40.3268 66.2425 39.929 66.4353C39.8904 66.4423 39.8515 66.4466 39.8125 66.4482C39.7174 66.4566 39.6227 66.4621 39.528 66.4666C39.2056 66.482 38.886 66.4919 38.5648 66.5019C37.4956 66.5327 36.4264 66.5515 35.3572 66.5679C32.2137 66.6186 29.0713 66.6552 25.93 66.6777C21.9442 66.7145 17.958 66.7445 13.9714 66.7677C14.2672 66.6271 14.5836 66.4835 14.9209 66.3399C18.7588 64.7018 28.5218 63.6963 32.6321 63.1373H32.6329ZM39.6493 67.4324C38.8783 68.0693 38.2875 68.6352 38.0445 68.9492C37.4094 69.769 37.0773 69.7322 33.8129 69.769C30.5485 69.8058 11.3853 69.4709 10.6599 69.4709C10.1573 69.4709 10.5551 68.7555 12.1224 67.7712C16.7527 67.7444 21.3824 67.7091 26.0114 67.6654C29.2045 67.6346 32.3987 67.6008 35.5918 67.5427C36.6654 67.5233 37.7406 67.5035 38.8131 67.4667C39.0919 67.4577 39.37 67.4483 39.6485 67.4324H39.6493ZM2.49849 69.6577C4.88714 66.6767 8.45379 65.223 11.5663 64.4032C14.6787 63.5835 23.2633 63.3977 23.2633 63.3977C23.2633 63.3977 17.8528 64.1807 13.8328 65.9315C9.81275 67.6823 9.57175 69.3596 9.57175 69.3596C9.57175 69.3596 3.01072 69.2478 2.49849 69.6577ZM2.40016 81.5091C2.73264 82.2921 3.35288 82.8312 4.22902 82.9439C5.10517 83.0567 17.9665 83.4651 26.098 83.875C34.2296 84.2849 43.7802 84.4712 50.4903 84.7325C57.2005 84.9939 76.1819 85.6636 77.7537 85.2537C79.3254 84.8438 79.9001 83.9878 80.1411 82.8312C80.3821 81.6745 80.6553 78.8068 80.5651 77.9503C80.4748 77.0938 79.5072 73.5911 78.6903 73.1067C77.8734 72.6223 67.6276 71.9506 55.2052 71.6535C42.7827 71.3564 28.3952 70.8705 23.3471 70.7959C18.299 70.7214 4.39587 70.4979 3.20215 70.8889C2.28006 71.1124 2.0987 72.0251 1.93186 72.752C1.76501 73.4788 1.43373 75.4165 1.49419 76.4782C1.55464 77.5399 2.06606 80.7261 2.39854 81.5091H2.40016ZM2.81244 73.5742C3.32668 72.2154 4.02147 71.8607 3.59871 71.8423C3.17595 71.8239 2.74876 71.7071 3.10059 71.4364C3.15908 71.4111 3.21903 71.3914 3.27993 71.3772L3.29242 71.3733L3.30492 71.3688C3.4345 71.3364 3.56583 71.3156 3.69785 71.3067C3.96505 71.2804 4.23587 71.2635 4.50388 71.2506C5.34133 71.2083 6.18242 71.1929 7.02068 71.18C9.39241 71.1477 11.7674 71.1606 14.1403 71.18C17.2076 71.2039 20.2749 71.2486 23.3423 71.2938C24.7484 71.3151 26.1549 71.3504 27.561 71.3867C29.5661 71.439 31.5709 71.495 33.5755 71.5546C38.5817 71.6984 43.5882 71.8405 48.595 71.9809C50.7962 72.0405 52.9968 72.0973 55.1967 72.1513C60.5362 72.2785 65.8874 72.4683 71.22 72.8036C72.9244 72.9105 74.6356 73.0277 76.3355 73.2076C76.8453 73.2612 77.3579 73.3189 77.8641 73.4033C78.0148 73.4287 78.3816 73.4838 78.5174 73.5558C78.874 73.767 79.3766 75.1373 79.5273 75.5809C79.5628 75.6853 79.5982 75.7906 79.6313 75.8964C78.8853 74.3428 77.5671 73.3129 76.0646 73.3129C73.7364 73.3129 71.8483 75.7931 71.8483 78.852C71.8483 81.911 73.7364 84.3922 76.0646 84.3922C77.8846 84.3922 79.4338 82.8784 80.0254 80.7574C79.9912 81.0868 79.9525 81.4167 79.909 81.7431C79.8654 82.0695 79.8163 82.394 79.7514 82.7094C79.704 82.9456 79.6329 83.1736 79.5398 83.3881C79.163 84.2387 78.3989 84.5805 77.6698 84.7698C77.5042 84.8135 77.2862 84.8195 77.1169 84.8334C76.7542 84.8572 76.3915 84.8672 76.0247 84.8741C74.8939 84.898 73.7594 84.8895 72.6286 84.8781C69.423 84.8443 66.2162 84.7599 63.0131 84.6655C58.8419 84.5432 54.6717 84.4006 50.5024 84.2377C45.1827 84.0305 39.8589 83.9078 34.5375 83.7265C31.7297 83.6306 28.9203 83.5223 26.1146 83.3787C23.5623 83.249 21.008 83.1407 18.4545 83.0363C15.3156 82.9095 12.1767 82.7866 9.03776 82.6677C7.97918 82.6266 6.9206 82.5834 5.86203 82.538L5.35262 82.4421C4.0525 82.1997 3.55317 81.3804 3.25172 80.821C2.95027 80.2616 2.58675 79.4622 2.37557 77.7481C2.16439 76.034 2.29699 74.935 2.81082 73.5742H2.81244ZM80.0669 78.8501C80.0669 81.7724 78.276 84.1413 76.065 84.1413C73.8541 84.1413 72.0635 81.7724 72.0635 78.8501C72.0635 75.9277 73.8545 73.5588 76.065 73.5588C78.2756 73.5588 80.0653 75.9277 80.0653 78.8501H80.0669ZM79.803 78.7825C79.803 80.5751 79.0981 82.147 78.0394 83.0299C78.0564 83.0062 78.0751 82.9846 78.0954 82.9653C79.0296 82.0526 79.593 80.506 79.4971 79.1273C79.4012 77.7486 78.8196 76.6123 78.8523 77.9528C78.8849 79.2932 77.902 81.3625 76.5954 79.4065C75.3799 77.5841 73.8009 80.7892 72.34 79.2023C72.3319 79.0642 72.3271 78.9231 72.3271 78.7825C72.3271 76.0191 73.9996 73.7799 76.0638 73.7799C78.1281 73.7799 79.8014 76.0211 79.8014 78.7825H79.803ZM3.68496 77.2632C3.6769 77.1251 3.67246 76.986 3.67246 76.8434C3.67246 74.0805 5.24179 71.8413 7.17866 71.8413C9.11554 71.8413 10.6849 74.0805 10.6849 76.8434C10.6849 78.6364 10.0231 80.2079 9.03252 81.0913C9.04777 81.0674 9.06507 81.0455 9.0841 81.0262C9.96146 80.1135 10.4902 78.5674 10.3987 77.1887C10.3072 75.81 9.76479 74.6732 9.79421 76.0142C9.82363 77.3551 8.90315 79.4234 7.6784 77.4674C6.53747 75.646 5.0556 78.853 3.68496 77.2632ZM11.2382 92.4523C9.5923 92.334 7.71427 92.0901 6.23804 91.1411C7.21252 91.5972 7.91416 91.8198 8.9503 92.0041C9.56127 92.1129 14.1528 92.6003 14.3583 92.1035C14.3881 92.0314 13.9186 90.8937 13.8441 90.53C13.6385 89.5364 14.1 89.437 14.7513 89.4584C16.7905 89.5314 28.3847 90.2642 30.2857 90.0233C30.0387 89.5304 29.7522 88.8806 29.6732 88.3981C29.5337 87.5535 29.8344 87.4542 30.3917 87.4571C33.8064 87.4909 37.2518 87.5754 40.6665 87.6882C41.7276 87.7234 43.6037 87.7205 44.5951 87.8869C46.2575 88.1676 46.3349 90.3333 46.7625 90.7392C46.7838 90.7601 60.5338 91.2166 61.8613 91.2728C62.733 91.3096 64.4192 91.315 65.1458 91.4601C66.3234 91.6951 66.0824 93.3853 66.377 94.1301C66.5084 94.4624 69.6205 94.4386 70.0259 94.4446C73.2363 94.4868 77.2277 94.6711 79.7707 91.9038C81.3679 90.1673 81.922 87.238 82.2553 84.744C82.3661 83.9197 82.4141 82.8779 82.5318 82.1411C82.6382 83.5704 82.0542 87.1461 81.6524 88.5998C80.7545 91.8456 79.0372 93.5329 76.298 94.3049C74.1217 94.9175 69.5326 94.9329 67.258 94.7441C65.8813 94.6304 66.1086 94.5951 65.8519 93.1781C65.7487 93.833 64.9959 95.392 63.8228 96.1328C62.5835 96.9143 60.6938 97.4171 58.0037 97.8652C55.3136 98.3134 40.5936 98.4614 39.3551 98.4242C38.1167 98.3869 31.7684 97.6789 27.0834 97.0455C22.3984 96.412 19.4363 95.5962 17.4861 93.826C15.5359 92.0558 14.6142 90.1743 14.6142 90.1743C14.4933 89.914 14.7351 89.821 15.2187 90.5474C15.7024 91.2738 18.2566 94.7953 22.3371 95.6896C26.4176 96.5839 38.0844 97.7385 39.1725 97.8513C40.2607 97.9641 41.8324 97.9626 49.2075 97.7023C56.5827 97.4419 60.8288 96.9193 62.6121 96.1561C64.3954 95.393 65.0765 93.7336 65.4844 93.0261C65.5579 92.8911 65.6396 92.7631 65.7286 92.6431C65.4521 91.7135 65.0032 91.8809 64.0206 91.8332C58.391 91.553 52.6996 91.5287 47.0607 91.3528C46.357 91.3319 46.3389 91.1516 46.0129 90.3065C45.2246 88.2516 44.9034 88.4627 43.12 88.3629C38.9263 88.1293 34.5831 88.0181 30.3849 87.942C29.9758 87.9346 29.8948 87.8571 30.1382 88.6615C30.2535 89.0415 30.771 90.0526 30.7605 90.1922C30.7262 90.6443 29.5027 90.5107 29.2629 90.5092C25.3823 90.4967 21.2583 90.1614 17.3672 89.9179C16.9424 89.8911 14.3386 89.6387 14.1318 89.8235C13.6796 90.2304 14.7089 91.8317 14.5397 92.2262C14.3067 92.7727 11.8048 92.494 11.2382 92.4533V92.4523ZM10.1557 85.5732C10.1557 85.5732 2.91641 85.368 2.00923 84.9958C1.10206 84.6237 0.0747791 78.8655 0.766347 78.9569C0.766347 78.9569 1.05772 79.0513 1.13309 79.3131C1.20845 79.5749 1.54094 81.1017 2.05518 81.9766C2.56942 82.8515 2.7806 83.0766 4.03477 83.2624C5.28894 83.4482 41.0163 84.7902 41.0163 84.7902C41.0163 84.7902 71.484 85.7957 74.023 85.7957C76.562 85.7957 78.1639 85.9448 79.0711 85.2751C79.9783 84.6053 80.2193 83.9336 80.4305 82.8903C80.6416 81.8469 80.7037 81.6229 80.7037 81.6229C80.7037 81.6229 82.1545 81.4371 82.4262 81.5866C82.6978 81.7361 81.4896 81.8847 81.3078 81.8847C81.1261 81.8847 81.066 84.0832 80.129 85.4251C79.192 86.767 78.1639 87.7349 75.8668 87.8839C73.5696 88.033 10.1557 85.5732 10.1557 85.5732ZM10.0642 72.8479C9.89859 72.4941 11.7267 73.5931 13.0574 74.3195C14.3881 75.0458 14.6134 75.3265 13.4048 74.8784C12.1962 74.4303 12.0293 74.3195 11.908 74.3393C11.7867 74.3592 11.8177 78.4556 11.9838 79.2202C12.1498 79.9848 12.9216 79.4428 12.7092 80.1329C12.4968 80.823 14.266 80.5994 14.266 80.5994C13.9335 80.8597 11.7117 81.9582 10.6994 82.1257C9.68701 82.2931 8.55293 82.2946 8.55293 82.2946C8.55293 82.2946 10.0038 82.2002 10.8501 79.8542C11.6964 77.5081 11.4244 75.3628 11.0919 74.4501C10.7594 73.5375 10.2319 73.2026 10.065 72.8479H10.0642ZM7.17746 82.4526C9.36299 82.4526 11.1338 79.9724 11.1338 76.9134C11.1338 73.8544 9.36299 71.3733 7.17746 71.3733C4.99192 71.3733 3.22391 73.8534 3.22391 76.9154C3.22391 79.9774 4.99394 82.4526 7.17826 82.4526H7.17746ZM7.17746 71.6217C9.25095 71.6217 10.9327 73.9916 10.9327 76.9139C10.9327 79.8363 9.25095 82.2052 7.17746 82.2052C5.10396 82.2052 3.42542 79.8343 3.42542 76.9154C3.42542 73.9965 5.10477 71.6212 7.17826 71.6212L7.17746 71.6217ZM43.0858 79.9476C43.0983 80.7306 43.1301 81.4291 43.1781 81.6656C43.2821 82.1828 44.0784 82.1515 44.8304 82.1222C45.0863 82.1122 45.3354 82.1038 45.5397 82.1137C45.8343 82.1276 49.6948 82.2007 54.2871 82.2842C61.3495 82.4108 70.1081 82.5614 70.3628 82.5614C70.8678 82.5614 71.1249 82.381 71.1249 82.3795C71.1601 82.3557 71.1883 82.3189 71.2055 82.2742C71.619 83.2714 72.0486 83.5739 71.4945 83.4666C70.7086 83.3176 71.3127 83.951 72.3557 84.2297C73.3987 84.5085 74.2144 84.7141 73.7771 84.3972C73.3399 84.0802 73.3076 83.9873 72.5822 83.2808C71.8568 82.5743 71.2833 81.4723 71.056 79.6837C70.8287 77.8952 71.1165 76.3868 71.6762 75.3251C72.236 74.2633 73.3532 73.0893 74.0488 73.0699C72.8244 73.1067 71.8568 74.1699 71.3276 75.3613C71.0962 75.8924 70.9236 76.4594 70.8146 77.0471C70.6992 76.9035 70.5502 76.808 70.3886 76.7738H70.3636C70.2903 76.7738 44.7132 76.1776 44.1856 76.1776C43.8463 76.1776 43.5996 76.2273 43.4098 76.4678C43.2349 76.6903 43.1414 77.0535 43.1084 77.6761C43.0818 78.2474 43.0745 79.1442 43.0874 79.9461L43.0858 79.9476ZM43.513 77.7118C43.5404 77.215 43.5972 76.9472 43.7024 76.8145C43.7927 76.7008 43.9539 76.6764 44.1892 76.6764C44.8026 76.6764 69.6725 77.2552 70.3447 77.2726C70.4252 77.2895 70.4974 77.344 70.5462 77.4247C70.5676 77.4638 70.5975 77.4946 70.6325 77.5135C70.6676 77.5324 70.7063 77.5387 70.7441 77.5315C70.6232 78.4258 70.6127 79.4622 70.7747 80.6396C70.8348 81.0817 70.9364 81.5137 71.0774 81.9269C71.0287 81.9126 70.9774 81.9211 70.9335 81.9508C70.9335 81.9508 70.7679 82.068 70.3669 82.068C70.0723 82.068 61.3088 81.919 54.2956 81.7918C49.7125 81.7103 45.8589 81.6368 45.5587 81.6214C45.3439 81.6114 45.0867 81.6214 44.824 81.6313C44.2267 81.6537 43.596 81.6775 43.5698 81.5483C43.5295 81.3451 43.5013 80.6903 43.4892 79.9441C43.4767 79.1556 43.4848 78.2752 43.5146 77.7103L43.513 77.7118ZM39.2008 76.6148C39.1403 75.3653 39.1403 73.4277 38.6716 72.8503C38.6716 72.8503 39.7295 73.4277 40.833 74.154C41.9364 74.8804 44.0216 76.3346 43.0552 76.2596C42.0887 76.1846 41.6192 75.888 40.7121 75.7752C39.8049 75.6624 41.3472 76.8185 41.2408 77.4147C41.1344 78.0109 40.3945 81.8127 41.8304 81.6254C43.2663 81.438 43.0552 81.9235 41.6946 82.5579C40.334 83.1924 39.1709 83.8238 39.2463 83.5068C39.3217 83.1899 39.3821 82.9494 39.3515 82.0919C39.3209 81.2343 39.2636 77.8594 39.2032 76.6123L39.2008 76.6148ZM14.6299 76.4807C14.6243 75.7712 14.6211 75.2669 15.1567 75.2669C15.3268 75.2669 16.1574 75.3062 17.3559 75.3663C18.7262 75.4339 20.58 75.5243 22.477 75.6028C26.0493 75.7518 38.8215 76.1607 38.8578 76.1622C38.9112 76.1637 38.962 76.1912 38.999 76.2388C39.0359 76.2864 39.056 76.3502 39.0549 76.4161C39.0537 76.482 39.0313 76.5446 38.9927 76.5901C38.9541 76.6357 38.9024 76.6605 38.8489 76.659C38.8123 76.659 26.0255 76.2477 22.4645 76.0996C20.5454 76.0196 18.7016 75.9292 17.3398 75.8616C16.1654 75.8055 15.3509 75.7623 15.1567 75.7623C15.0265 75.7623 15.0289 76.0604 15.0322 76.4762C15.0322 76.5805 15.0322 76.6888 15.0322 76.8026C15.0289 77.1449 15.0459 77.8519 15.062 78.5251C15.0801 79.2644 15.0974 79.9659 15.0837 80.1309C15.0793 80.1592 15.0818 80.1885 15.0909 80.215C15.1 80.2416 15.1153 80.2642 15.1349 80.2799C15.232 80.3604 15.4287 80.422 15.7826 80.4563C16.5757 80.5308 39.0363 81.4122 39.1012 81.4152C39.1547 81.4172 39.2053 81.4454 39.2419 81.4934C39.2785 81.5414 39.2981 81.6054 39.2965 81.6713C39.2948 81.7372 39.272 81.7996 39.233 81.8447C39.1941 81.8898 39.1422 81.9141 39.0887 81.912C39.0234 81.912 16.5334 81.0277 15.7543 80.9526C15.3235 80.9119 15.0652 80.8205 14.9125 80.6938C14.7077 80.5249 14.6678 80.3162 14.6848 80.0852C14.6964 79.95 14.6791 79.2659 14.6622 78.542C14.6449 77.8643 14.6279 77.1544 14.6312 76.7996C14.6336 76.6854 14.6336 76.5786 14.6324 76.4782L14.6299 76.4807ZM128.109 72.3446C128.517 72.3446 128.924 72.28 128.872 71.8418C128.82 71.4036 128.139 68.6094 127.973 68.5165C127.807 68.4236 127.21 68.4703 126.627 68.5349C126.325 68.6 126.408 69.1311 126.529 69.4476C126.65 69.764 127.225 72.0658 127.323 72.27C127.421 72.4742 127.701 72.3446 128.109 72.3446ZM127.216 70.5063C127.216 70.5063 128.192 70.395 128.274 70.4233C128.357 70.4516 128.682 71.6992 128.525 71.7275C128.367 71.7558 127.587 71.8671 127.52 71.8671C127.452 71.8671 127.035 70.5252 127.216 70.5063ZM38.6055 61.7894C33.6247 62.3712 28.548 62.6415 23.5945 63.5229C20.0359 64.1583 13.4902 65.2936 10.7598 68.1831C10.144 68.8355 9.65034 69.5126 9.50646 70.5182C9.9937 69.0019 11.1947 67.8796 12.6963 67.0345C12.4231 67.1895 12.1595 67.3519 11.9088 67.5243C13.0832 67.5169 39.661 67.3708 40.1398 67.1338C40.4312 66.9902 40.6129 67.0315 40.87 67.0876C40.9704 67.11 41.08 67.1338 41.1884 67.1507C41.3428 67.1751 43.1229 67.2565 45.6566 67.3733C51.1698 67.6282 60.2541 68.048 63.7474 68.3819C67.4478 68.7341 70.3334 68.9492 71.6255 69.0397C71.6488 69.0178 71.6726 68.9969 71.696 68.9756C70.8867 69.7084 70.2774 70.6703 69.928 72.0842C70.2907 71.2506 70.5325 70.635 71.0838 69.9479C72.529 68.1409 75.9574 67.1075 77.9314 66.5197C83.4756 64.8663 89.5462 64.2269 95.2145 63.3127C96.4985 63.1055 97.2413 62.9401 97.6508 61.8346C100.018 62.0676 102.421 62.329 104.697 62.6917C105.135 62.7617 105.558 62.8407 105.973 62.9237C105.942 63.0389 105.912 63.1343 105.886 63.2143C105.753 63.6351 105.701 63.8046 106.012 64.1186C106.169 64.2761 106.349 64.358 106.539 64.444C106.777 64.5523 107.034 64.6676 107.218 64.9691C107.408 65.2801 107.943 67.1408 108.431 69.1887C108.821 70.8238 109.176 72.5642 109.295 73.7193C109.428 75.023 109.42 76.4707 109.361 77.7834C109.302 79.096 109.187 80.2735 109.112 81.0366C109.022 81.9538 108.507 85.7972 108.019 89.0068C107.694 91.1332 107.385 92.9779 107.221 93.4976C106.804 94.8162 104.825 98.8112 104.819 98.8226C104.791 98.8787 104.782 98.9461 104.795 99.01C104.807 99.0738 104.84 99.129 104.885 99.1634C104.923 99.1921 104.968 99.2045 105.012 99.1987C105.068 99.1918 124.276 96.5849 124.679 96.2977C124.892 96.1442 125.57 95.2936 126.238 94.3601C126.802 93.5731 127.366 92.7151 127.649 92.1547C127.969 91.5237 128.616 89.2651 129.227 86.7949C129.8 84.4767 130.341 81.9642 130.548 80.4389C130.742 79.0265 130.854 77.5985 130.881 76.1662C130.903 74.78 130.827 73.5563 130.668 72.5622C130.54 71.7608 130.166 70.399 129.749 69.0347C129.162 67.1139 128.484 65.1718 128.285 64.7689L128.218 64.6363C127.921 64.0351 127.865 63.9208 127.634 63.7673C127.566 63.7273 127.504 63.6752 127.449 63.6128C127.364 63.5016 127.287 63.382 127.219 63.2551C127.156 63.1463 127.063 62.9689 126.96 62.7707C126.704 62.2818 126.387 61.6776 126.194 61.5102C126.049 61.3845 125.758 61.3115 125.516 61.2707C126.371 60.3844 127.135 59.4464 127.507 58.8243C126.776 59.4747 125.919 60.5031 125.15 61.2379C124.227 62.1198 123.228 63.0717 122.04 63.2645C119.981 63.6014 117.164 63.6391 115.062 63.662C113.5 63.6789 112.092 63.7449 110.565 63.2928C109.701 63.038 108.905 62.8114 108.134 62.6072C108.138 62.6 108.141 62.5923 108.143 62.5844C108.233 62.324 108.233 55.5045 108.143 52.9344C108.053 50.3643 107.857 47.2884 107.796 46.4125C107.735 45.5366 107.961 45.3508 108.748 45.09C109.534 44.8291 112.375 44.9042 114.582 45.239C116.789 45.5739 118.843 46.6361 118.858 46.4314C118.873 46.2267 119.085 46.189 116.909 45.2947C114.732 44.4004 110.138 44.064 108.385 44.2513C106.633 44.4386 107.025 46.4115 107.236 49.5788C107.426 52.4197 107.324 60.7078 107.301 62.3936C107.073 62.3369 106.845 62.2833 106.618 62.2301C106.624 60.1047 106.624 50.9719 106.224 48.4426C105.77 45.5734 105.136 44.7904 102.597 44.1202C100.058 43.4499 86.3958 42.4429 81.1668 42.2203C75.9377 41.9977 63.5451 42.3316 58.9814 42.8528C54.4177 43.3739 52.2708 43.8216 50.7285 45.2375C49.1862 46.6535 43.6871 52.9131 42.5683 54.2918C41.5334 55.5676 37.783 60.2219 37.2268 60.912C37.0714 60.9618 36.9184 61.0225 36.7686 61.0939C37.0346 61.0909 36.8895 61.0993 37.3042 61.0318C38.6744 60.8097 39.9681 60.5846 41.3053 60.4485C40.5279 61.5201 39.985 61.6289 38.6055 61.7894ZM106.176 62.9629H106.18H106.176ZM125.47 61.3149C125.463 61.3224 125.457 61.3294 125.449 61.3363L125.442 61.3438L125.436 61.3507L125.429 61.3577L125.422 61.3646L125.415 61.3716L125.408 61.3785C125.397 61.3905 125.386 61.4019 125.374 61.4128C125.406 61.3785 125.438 61.3458 125.47 61.3149ZM125.329 61.4585L125.326 61.462L125.318 61.47L125.329 61.4585ZM125.262 61.5261L125.257 61.5311L125.251 61.538L125.262 61.5261ZM125.178 61.6096L125.167 61.621L125.16 61.628L125.153 61.6349L125.147 61.6419L125.141 61.6473L125.178 61.6096ZM110.757 64.1111C112.172 64.4758 114.044 64.3516 115.501 64.2925C117.096 64.2279 121.059 64.0574 122.497 63.6192C123.149 63.4205 124.136 62.6311 125.076 61.7084L125.103 61.7124C125.103 61.7124 125.786 61.7546 125.965 61.9111C126.091 62.0195 126.383 62.5814 126.62 63.0335C126.725 63.2322 126.819 63.4136 126.891 63.5378C126.973 63.6891 127.065 63.8314 127.167 63.9631C127.249 64.0585 127.342 64.1382 127.443 64.1995C127.577 64.2885 127.625 64.3854 127.875 64.8896L127.941 65.0233C128.13 65.4063 128.793 67.3087 129.372 69.2051C129.783 70.5465 130.149 71.8795 130.272 72.6551C130.426 73.6184 130.501 74.8088 130.479 76.1562C130.452 77.5636 130.342 78.9666 130.151 80.3545C129.946 81.8643 129.41 84.3515 128.843 86.6483C128.242 89.0828 127.61 91.2917 127.306 91.8903C127.036 92.4239 126.486 93.2576 125.936 94.0297C125.291 94.9324 124.655 95.7393 124.477 95.868C124.179 96.0836 108.135 98.2746 105.374 98.6502C105.901 97.5731 107.253 94.7675 107.597 93.675C107.771 93.124 108.088 91.248 108.414 89.0977C108.906 85.8713 109.422 82.0139 109.513 81.0952C109.59 80.3306 109.703 79.1462 109.764 77.8097C109.824 76.4732 109.832 74.9986 109.694 73.6567C109.573 72.4708 109.213 70.7021 108.819 69.0486C108.318 66.9545 107.754 65.0243 107.541 64.6715C107.285 64.2517 106.97 64.1096 106.679 63.976C106.523 63.9059 106.373 63.8383 106.268 63.7325C106.182 63.6466 106.205 63.5735 106.262 63.3917C106.295 63.2874 106.335 63.1622 106.374 63.0057C107.841 63.3207 109.216 63.7107 110.757 64.1091V64.1111ZM106.243 62.9793L106.274 62.9858V62.9858H106.268L106.256 62.9828H106.249L106.243 62.9793ZM41.4459 60.4331C41.9449 60.3834 42.4498 60.3461 42.9685 60.3253C43.7084 60.2961 44.4505 60.2698 45.1948 60.2463C45.3471 60.04 45.5177 59.8553 45.7034 59.6958C44.6753 59.7534 43.6548 59.8225 42.6542 59.9114C42.4059 59.9328 42.0496 59.974 41.6325 60.0306C41.6539 59.9765 41.6752 59.9208 41.6958 59.8632C41.6579 59.9238 41.6212 59.981 41.585 60.0371C40.6431 60.1663 39.4039 60.371 38.3814 60.603C39.1069 59.6635 44.9058 52.1966 47.7365 49.3349C50.7591 46.2799 50.9707 45.2728 54.0542 44.4163C57.1376 43.5597 64.9653 43.1489 72.5524 43.0748C80.1395 43.0008 88.9046 43.2239 94.8893 43.9691C100.874 44.7144 103.745 44.7884 104.592 46.0926C105.438 47.3968 105.529 54.4021 105.559 56.0426C105.589 57.6831 105.77 60.4758 105.559 61.2593C105.481 61.5455 105.202 61.7368 104.877 61.8649C104.203 61.7397 103.503 61.6255 102.748 61.5216C101.146 61.3 99.5235 61.0839 97.8865 60.8792C97.897 60.8161 97.9071 60.7506 97.9163 60.6835C97.895 60.7496 97.876 60.8132 97.8547 60.8753C92.9101 60.2577 87.8568 59.7445 82.9968 59.4951C77.8629 59.2327 72.5645 59.2089 67.4168 59.1428C64.9834 59.1105 62.4255 59.0275 60.0038 59.0683C59.4541 59.0782 58.8997 59.0928 58.3406 59.112C59.685 59.1895 61.0295 59.344 62.3626 59.5641C63.166 59.6966 63.9653 59.8548 64.7606 60.0386C74.7017 60.295 84.6431 60.5851 94.5576 61.537C95.5309 61.6309 96.5239 61.7238 97.523 61.8222C97.2562 62.4338 96.9108 62.724 95.9513 62.9128C94.7938 63.1413 93.2015 63.2526 91.9917 63.3972C85.9928 64.1186 79.383 64.9339 73.7304 67.6699C73.1581 67.9466 72.6318 68.2442 72.1586 68.5955C72.1643 68.591 72.1699 68.5866 72.176 68.5826C71.3498 68.5274 68.1434 68.3048 63.7748 67.887C60.2972 67.5561 51.1924 67.1348 45.6679 66.8799C43.1543 66.7632 41.3851 66.6812 41.2348 66.6589C41.1114 66.6395 41.0212 66.6196 40.9377 66.6012C40.6153 66.5297 40.3848 66.4785 39.9874 66.6757C39.6126 66.8606 17.3684 66.9982 12.7124 67.0235C15.5609 65.4282 19.483 64.8255 21.677 64.4281C27.0842 63.4478 32.46 62.9296 37.8781 62.1735C39.2689 61.9792 40.6512 61.9191 41.4471 60.4311L41.4459 60.4331ZM71.75 68.9289C71.777 68.905 71.804 68.8822 71.8306 68.8593C71.8052 68.8787 71.7782 68.9015 71.7512 68.9254L71.75 68.9289ZM71.8838 68.8146C71.9164 68.7873 71.9495 68.7604 71.9825 68.7341C71.9507 68.757 71.9176 68.7838 71.885 68.8111L71.8838 68.8146ZM72.0196 68.7043C72.0567 68.6755 72.0938 68.6467 72.1312 68.6188C72.095 68.6432 72.0583 68.672 72.0208 68.7008L72.0196 68.7043ZM43.7919 62.4442C43.7919 62.4442 43.3695 62.643 43.9531 62.643C44.5366 62.643 56.6479 62.8914 56.6479 62.8914C56.6479 62.8914 62.814 62.9411 64.6276 62.7677C66.4411 62.5943 67.9121 62.2957 67.4486 61.9727C66.9852 61.6498 66.1397 60.6313 65.2321 60.4067C62.5757 59.7585 59.879 59.3928 57.1719 59.3137C53.2429 59.2143 48.225 59.115 47.4798 59.19C46.7347 59.265 45.8678 59.6372 45.2633 60.5314C44.6587 61.4257 44.1566 62.3881 43.7931 62.4388L43.7919 62.4442ZM60.6378 62.643C60.3153 62.6673 51.389 62.5933 51.0461 62.5193C50.7031 62.4452 51.0666 61.6747 51.4088 61.1281C51.7509 60.5816 52.0133 60.1101 52.3148 60.1101C52.8995 60.0356 57.433 60.0605 58.2793 60.1101C59.1257 60.1598 60.1735 60.4818 60.5152 61.1038C60.857 61.7258 60.9622 62.6117 60.639 62.637L60.6378 62.643ZM46.2869 59.656C46.7278 59.4802 49.5211 59.4419 50.0982 59.4335C52.6343 59.3957 55.7859 59.3559 58.2959 59.6883C59.9696 59.9094 61.4853 60.1042 61.8875 62.4572C61.2354 60.4897 60.7994 60.2577 59.0189 59.9561C56.9147 59.6014 54.0977 59.666 51.9476 59.6376C51.1855 59.6277 46.8523 59.5676 46.3143 59.7673C45.6792 60.0023 45.1387 60.9955 44.7289 61.5743C44.9779 60.9756 45.7376 59.8712 46.2881 59.6501L46.2869 59.656ZM44.8808 61.6742C45.2435 61.1276 45.9286 60.3327 46.5122 60.059C50.2808 59.9348 50.9663 59.9844 50.9663 60.283C50.9663 60.5816 50.3412 62.4939 49.9781 62.4691C49.615 62.4442 45.9282 62.4452 45.3032 62.4452C44.6781 62.4452 44.5185 62.2147 44.882 61.6682L44.8808 61.6742ZM106.926 55.8016C106.926 55.8016 106.909 55.2795 106.883 54.4602C106.914 55.2646 106.928 55.7957 106.928 55.7957L106.926 55.8016ZM53.3989 43.4629C53.3989 43.4629 55.5751 42.1214 57.9033 41.5993C60.2315 41.0771 67.3338 40.3318 74.3768 40.146C81.4199 39.9602 98.406 39.997 107.564 41.6365C116.723 43.2761 118.354 45.4378 118.354 45.4378C118.354 45.4378 114.879 44.0963 111.675 43.7605C108.47 43.4246 106.899 43.6114 106.748 44.8038C106.632 45.7214 106.802 51.7316 106.886 54.4567C106.826 52.8221 106.698 50.0523 106.476 48.2319C106.143 45.5123 105.63 44.0586 102.97 43.4251C100.31 42.7916 84.6528 41.562 84.6528 41.562C61.2262 40.5177 53.3989 43.4629 53.3989 43.4629ZM116.974 47.2611C116.926 47.1995 116.877 47.1379 116.828 47.0763C116.871 47.1285 116.92 47.1911 116.973 47.2611H116.974ZM116.974 47.2611C122.359 54.1104 123.961 61.8679 123.961 61.8679C122.707 57.4511 118.391 49.1526 116.973 47.2611H116.974ZM125.09 55.2179C123.957 53.6141 120.614 49.2559 119.316 48.1455C118.019 47.0351 114.485 46.3355 112.833 46.0866C111.182 45.8377 109.927 45.8486 108.305 45.8089C110.21 45.4825 113.463 45.9694 115.425 46.4245C116.867 46.7598 118.606 47.0907 119.765 48.2707C121.046 49.5763 122.765 51.8523 123.911 53.3831C124.798 54.5705 126.641 57.1783 127.256 58.5531L127.201 58.4716C126.474 57.3448 125.865 56.3193 125.088 55.2179H125.09ZM45.1931 59.112C49.6666 58.2177 54.14 53.9703 56.2562 51.7341C58.3724 49.4979 64.4164 44.8778 55.7113 44.6543C77.0512 42.6416 95.4289 44.8783 95.4289 44.8783C95.4289 44.8783 78.1397 44.7293 75.1172 45.9217C72.0946 47.1141 64.7795 54.3419 64.7795 54.3419C64.7795 54.3419 74.5727 43.6854 71.5501 45.6971C68.5275 47.7088 60.246 55.4598 64.175 56.3541C68.1039 57.2484 70.8843 58.5898 70.8843 58.5898C63.8103 58.2927 45.1915 59.112 45.1915 59.112H45.1931ZM88.2259 98.2373C88.2259 98.1738 88.2259 98.1102 88.2283 98.0486C88.2775 100.865 89.4543 103.116 90.8983 103.116C92.3741 103.116 93.5715 100.765 93.5715 97.8618C93.5715 95.0229 92.4245 92.7086 90.9922 92.6117C91.024 92.6117 91.0563 92.6088 91.0881 92.6088C92.6691 92.6088 93.9495 95.1282 93.9495 98.2354C93.9495 101.343 92.6675 103.861 91.0881 103.861C89.5087 103.861 88.2243 101.346 88.2243 98.2373H88.2259ZM136.466 84.0032C134.939 84.0032 133.587 88.9491 133.449 95.0517C133.311 101.154 134.435 106.1 135.962 106.1C137.489 106.1 138.841 101.152 138.98 95.0517C139.118 88.9511 137.994 84.0032 136.467 84.0032H136.466ZM133.634 95.0497C133.701 92.1239 134.065 89.4852 134.598 87.6067C134.701 87.6713 134.799 87.7491 134.889 87.8387C136.47 89.3908 136.665 94.4411 136.267 97.4971C136.009 99.4799 135.373 101.881 134.312 102.708C134.424 103.161 134.567 103.602 134.739 104.025C134.314 103.009 133.984 101.473 133.796 99.6215C133.917 99.7277 134.061 99.7859 134.209 99.7884C135.093 99.7884 135.877 97.6238 135.958 94.9538C136.039 92.2838 135.389 90.1177 134.505 90.1177C134.487 90.1177 134.47 90.1177 134.451 90.1201C135.25 90.2036 135.83 92.1919 135.756 94.6329C135.679 97.1269 134.95 99.1475 134.124 99.1475C133.986 99.1453 133.852 99.092 133.739 98.9945C133.636 97.6837 133.601 96.3661 133.634 95.0497V95.0497ZM133.789 99.5495C133.774 99.4018 133.761 99.2527 133.748 99.1023C133.761 99.254 133.775 99.4037 133.789 99.5515V99.5495ZM134.744 104.038C134.763 104.083 134.782 104.126 134.801 104.169C134.782 104.128 134.763 104.085 134.744 104.042V104.038ZM134.814 104.198C134.833 104.238 134.851 104.277 134.87 104.315C134.851 104.279 134.833 104.241 134.814 104.2V104.198ZM134.88 104.336C134.901 104.379 134.92 104.419 134.943 104.459C134.922 104.421 134.901 104.381 134.88 104.34V104.336ZM134.966 104.5C134.979 104.525 134.993 104.55 135.006 104.574C134.993 104.552 134.979 104.527 134.966 104.502V104.5ZM135.036 104.624L135.072 104.682L135.036 104.624ZM135.104 104.731C135.118 104.752 135.132 104.773 135.144 104.793C135.132 104.775 135.118 104.754 135.104 104.733V104.731ZM135.2 104.867L135.23 104.907L135.2 104.867ZM135.269 104.954L135.298 104.988L135.269 104.954ZM135.338 105.032L135.367 105.061L135.338 105.032ZM138.797 95.0497C138.667 100.745 137.406 105.361 135.981 105.361C135.78 105.361 135.588 105.27 135.404 105.098C135.416 105.095 135.429 105.091 135.441 105.086C135.454 105.082 135.472 105.076 135.487 105.071C135.501 105.065 135.513 105.061 135.527 105.055C135.541 105.05 135.556 105.042 135.571 105.037C135.586 105.032 135.597 105.025 135.609 105.019C135.622 105.013 135.639 105.005 135.654 104.996C135.668 104.988 135.679 104.982 135.694 104.975C135.709 104.967 135.722 104.959 135.736 104.951C135.75 104.943 135.762 104.936 135.776 104.927C135.791 104.919 135.804 104.909 135.817 104.9L135.857 104.872L135.897 104.843L135.938 104.813C135.951 104.802 135.965 104.792 135.978 104.781C135.991 104.769 136.004 104.758 136.018 104.747C136.032 104.735 136.046 104.724 136.059 104.713C136.071 104.702 136.086 104.689 136.099 104.676L136.139 104.639C136.152 104.626 136.164 104.613 136.179 104.6C136.195 104.587 136.206 104.574 136.22 104.56C136.234 104.545 136.246 104.533 136.26 104.519L136.3 104.477C136.313 104.461 136.327 104.447 136.341 104.431C136.355 104.416 136.366 104.402 136.378 104.388C136.391 104.373 136.404 104.355 136.418 104.338C136.433 104.321 136.443 104.309 136.455 104.293C136.468 104.277 136.481 104.259 136.495 104.243C136.51 104.227 136.518 104.212 136.53 104.198C136.541 104.184 136.557 104.16 136.57 104.14C136.583 104.121 136.592 104.109 136.602 104.093C136.613 104.078 136.631 104.054 136.645 104.033C136.658 104.012 136.664 104.004 136.674 103.988C136.684 103.972 136.704 103.944 136.717 103.92C136.727 103.908 136.735 103.894 136.744 103.879C136.76 103.854 136.775 103.83 136.791 103.803L136.808 103.774C136.896 103.625 136.981 103.469 137.065 103.302L137.067 103.298C137.087 103.26 137.105 103.222 137.123 103.184C137.127 103.175 137.131 103.167 137.135 103.158C137.152 103.123 137.169 103.086 137.186 103.049C137.192 103.037 137.196 103.027 137.202 103.016L137.25 102.906C137.256 102.894 137.261 102.881 137.267 102.868C137.283 102.832 137.298 102.795 137.314 102.758L137.331 102.716C137.347 102.68 137.362 102.643 137.377 102.605C137.384 102.591 137.389 102.575 137.395 102.561C137.41 102.523 137.425 102.484 137.44 102.446C137.445 102.432 137.451 102.416 137.457 102.402L137.501 102.284C137.507 102.268 137.513 102.254 137.517 102.239C137.532 102.199 137.547 102.158 137.562 102.118C137.566 102.102 137.572 102.087 137.578 102.072L137.621 101.946C137.626 101.932 137.63 101.918 137.636 101.903C137.65 101.86 137.665 101.816 137.679 101.771C137.684 101.757 137.689 101.743 137.693 101.729C137.707 101.685 137.722 101.64 137.733 101.594C137.738 101.58 137.742 101.567 137.747 101.553C137.761 101.506 137.776 101.458 137.787 101.411C137.791 101.399 137.796 101.387 137.799 101.374C137.814 101.324 137.827 101.274 137.842 101.225L137.851 101.191C137.866 101.141 137.881 101.088 137.895 101.035C137.897 101.026 137.9 101.018 137.903 101.008L137.947 100.843L137.952 100.823C137.967 100.766 137.983 100.707 137.997 100.646V100.639C138.275 99.5117 138.472 98.3574 138.587 97.1885V97.1861C138.595 97.11 138.602 97.0325 138.61 96.955V96.9481C138.618 96.8706 138.625 96.7946 138.631 96.7171V96.7101C138.637 96.6326 138.643 96.5536 138.65 96.4761V96.4691C138.656 96.3906 138.662 96.3131 138.667 96.2341V96.2272C138.672 96.1482 138.677 96.0677 138.682 95.9892V95.9832C138.688 95.9032 138.692 95.8228 138.696 95.7413C138.7 92.3867 138.046 92.7807 137.686 95.468C137.323 98.1747 136.275 100.448 136.165 98.8902C136.437 97.5515 136.588 96.1798 136.614 94.8003C136.614 94.7595 136.614 94.7173 136.614 94.6751C137.21 96.1874 137.537 91.7438 137.526 89.5771C137.515 87.5515 137.989 88.6828 138.327 89.4137C138.324 89.4031 138.322 89.3923 138.321 89.3814C138.311 89.3317 138.302 89.282 138.291 89.2363C138.289 89.221 138.286 89.206 138.282 89.1911C138.272 89.1374 138.261 89.0852 138.249 89.0321L138.239 88.9854C138.227 88.9317 138.216 88.8796 138.203 88.8274C138.201 88.8165 138.198 88.8036 138.195 88.7926C138.185 88.7459 138.174 88.7007 138.163 88.656C138.16 88.6431 138.157 88.6292 138.153 88.6162C138.142 88.5666 138.129 88.5169 138.116 88.4672C138.112 88.4518 138.109 88.4359 138.104 88.4205C138.091 88.3708 138.079 88.3211 138.066 88.2754C138.063 88.2615 138.06 88.2486 138.055 88.2347C138.043 88.1939 138.032 88.1517 138.02 88.111L138.01 88.0757C137.998 88.029 137.984 87.9828 137.97 87.9361C137.965 87.9207 137.961 87.9068 137.956 87.8909C137.943 87.8462 137.929 87.8009 137.916 87.7572C137.911 87.7433 137.907 87.7289 137.902 87.7165C137.889 87.6772 137.878 87.639 137.866 87.6012C137.861 87.5898 137.858 87.5769 137.853 87.566C137.839 87.5237 137.826 87.4825 137.813 87.4417C137.808 87.4278 137.802 87.4124 137.798 87.398C137.783 87.3573 137.768 87.3165 137.753 87.2773C137.749 87.2629 137.743 87.249 137.738 87.2351C137.725 87.1983 137.711 87.163 137.698 87.1292C137.694 87.1152 137.688 87.1016 137.682 87.0885C137.67 87.0532 137.655 87.0194 137.642 86.9856L137.626 86.9449C137.61 86.9081 137.595 86.8714 137.579 86.8346C137.574 86.8206 137.567 86.807 137.561 86.7939C137.547 86.7616 137.532 86.7293 137.517 86.697C137.512 86.6826 137.505 86.6687 137.498 86.6548C137.485 86.6264 137.472 86.5981 137.458 86.5703C137.452 86.5574 137.447 86.545 137.44 86.532C137.424 86.4983 137.408 86.466 137.392 86.4327C137.385 86.4188 137.378 86.4063 137.371 86.3934C137.355 86.3626 137.339 86.3313 137.322 86.302C137.316 86.2897 137.31 86.2779 137.303 86.2667C137.29 86.2429 137.276 86.2171 137.262 86.1947C137.256 86.1838 137.249 86.1709 137.243 86.1594C137.226 86.1316 137.208 86.1033 137.193 86.075C137.184 86.0635 137.177 86.0514 137.17 86.0387L137.118 85.9582C137.111 85.9468 137.104 85.9359 137.097 85.9259L137.056 85.8668C137.049 85.8554 137.041 85.8429 137.031 85.8315L136.983 85.7639C136.974 85.7525 136.966 85.7416 136.958 85.7302C136.94 85.7078 136.923 85.685 136.906 85.6626L136.881 85.6328C136.868 85.6174 136.855 85.6005 136.84 85.5831C136.826 85.5657 136.819 85.5578 136.808 85.5463C136.798 85.5349 136.779 85.5125 136.764 85.4966C136.749 85.4808 136.745 85.4783 136.736 85.4683L136.682 85.4137C136.674 85.4052 136.664 85.3968 136.656 85.3883C136.641 85.3754 136.628 85.3615 136.616 85.3501C136.604 85.3387 136.592 85.3277 136.58 85.3178C136.567 85.3079 136.551 85.2939 136.537 85.281C136.524 85.2681 136.518 85.2671 136.509 85.2587C136.491 85.2448 136.472 85.2304 136.454 85.2179C136.443 85.211 136.435 85.2035 136.424 85.1966L136.381 85.1673C136.367 85.1588 136.354 85.1504 136.34 85.1434L136.3 85.1181C136.291 85.1122 136.281 85.1068 136.271 85.1022C136.252 85.0912 136.231 85.0828 136.215 85.0729L136.183 85.0584L136.134 85.0376L136.098 85.0237C136.083 85.0177 136.069 85.0137 136.055 85.0078L136.026 84.9993L135.966 84.9824C135.956 84.9811 135.946 84.9788 135.936 84.9755C135.925 84.9755 135.916 84.9715 135.907 84.97C135.898 84.977 135.89 84.9839 135.882 84.9909C135.993 85.4137 136.148 85.9617 136.304 86.5937C136.933 89.1414 136.837 90.2006 135.65 88.6992C135.38 88.109 135.05 87.6643 134.65 87.4601C135.149 85.7709 135.786 84.736 136.46 84.736C137.875 84.7395 138.926 89.356 138.797 95.0497ZM91.8538 117.613C86.2012 115.713 83.3906 108.783 82.7861 102.149C84.8418 114.52 91.8538 117.613 91.8538 117.613ZM135.016 111.502C134.2 111.131 133.082 109.565 132.477 106.361C131.873 103.156 131.389 94.9205 131.752 91.3816C131.752 91.3816 131.662 99.0566 132.568 104.683C133.474 110.31 135.017 111.502 135.017 111.502H135.016ZM140.003 90.3373C139.852 83.9282 138.341 79.7548 136.8 79.0468C139.974 79.6062 140.004 90.3378 140.004 90.3378L140.003 90.3373ZM22.8143 111.633C17.9181 109.806 16.4362 103.51 16.1038 99.9683C17.1617 108.428 22.8143 111.633 22.8143 111.633Z" fill="#282723"/>
</svg>
