<svg width="205" height="150" viewBox="0 0 205 150" fill="none" xmlns="http://www.w3.org/2000/svg">
<circle cx="75" cy="75" r="75" fill="#D9D9D9" fill-opacity="0.6"/>
<path d="M155.374 41.2112C154.058 41.5545 153.071 42.141 152.084 43.1279C151.011 44.215 150.439 45.2592 150.138 46.7325C149.266 50.9377 152.642 55 157.033 55C160.881 55 164.014 51.8389 164 47.9912C163.986 46.0745 163.285 44.4296 161.897 43.0564C160.138 41.3114 157.634 40.6105 155.374 41.2112Z" fill="#71716D"/>
<path d="M152.901 56.2182C151.149 56.6656 150.391 57.1995 147.939 59.6528C144.436 63.1884 141.999 66.0169 139.693 69.1917C138.278 71.1543 137.986 71.7748 138.001 72.886C138.001 73.9684 138.365 74.8054 139.153 75.498C139.956 76.2196 140.642 76.4794 141.678 76.4794C143.254 76.4794 144.086 75.9021 145.691 73.6653C146.144 73.0303 147.049 71.847 147.705 71.0389C148.771 69.6968 148.887 69.5958 148.917 69.9565C148.946 70.173 149.019 73.42 149.106 77.172C149.208 82.1074 149.194 84.2144 149.077 84.7483C148.99 85.1668 148.537 86.2636 148.07 87.1872C145.239 92.772 142.904 98.6887 140.569 106.135C139.431 109.757 139.329 110.537 139.912 111.734C140.525 113.019 142.087 114 143.502 114C144.247 114 145.414 113.567 146.027 113.033C146.786 112.398 147.034 111.85 148.143 108.3C150.172 101.835 151.879 97.3755 154.229 92.5266C155.09 90.7228 155.265 90.463 155.542 90.5063C155.819 90.5496 156.243 91.6896 159.307 100.68C163.102 111.792 162.999 111.576 164.444 112.312C165.145 112.672 165.349 112.716 166.268 112.658C168.72 112.514 170.501 110.666 170.209 108.545C170.165 108.184 168.457 102.989 166.414 96.9858C164.386 90.9825 162.605 85.6142 162.489 85.0658C162.095 83.3485 161.671 76.5804 161.657 72.0346V70.2452L162.576 71.0677C165.305 73.5066 168.603 75.9743 171.58 77.7926C174.061 79.3078 174.849 79.4954 176.075 78.9038C176.747 78.5863 177.491 77.706 177.812 76.869C178.104 76.0897 178.045 74.4013 177.71 73.6942C177.228 72.7129 176.878 72.3954 174.572 70.9234C169.639 67.7486 166.181 64.6171 162.153 59.6672C160.343 57.4593 159.57 56.8387 157.994 56.3481C157.031 56.0595 156.549 55.9873 155.265 56.0017C154.404 56.0017 153.338 56.1028 152.901 56.2182Z" fill="#71716D"/>
<path fill-rule="evenodd" clip-rule="evenodd" d="M53.224 72.1253C51.7389 72.0233 49.4624 72.6717 48.7558 73.6826C45.7912 77.9573 53.3144 77.3545 55.4285 77.451C54.0597 78.5966 48.8333 84.0079 48.5215 85.292C48.1655 86.7273 48.171 98.1709 48.1397 100.632C48.0862 104.187 47.2505 112.574 50.3959 113.715C51.298 114.041 56.3288 114.079 57.4191 113.837C60.0129 113.272 59.4484 110.933 59.572 108.159C68.6965 107.531 102.339 107.531 111.424 108.159C111.535 110.742 111.017 113.061 113.269 113.766C114.365 114.104 119.619 114.066 120.591 113.715C124.489 112.305 122.466 98.2857 122.543 93.4973C122.685 85.1427 122.419 82.784 115.559 77.4419C117.802 77.3381 124.547 78.1395 122.384 73.9376C121.737 72.6626 117.612 71.078 116.088 72.8338C112.994 76.3964 113.332 72.5661 110.511 68.5554C107.237 62.0713 106.412 62.1806 96.1216 62.2881C92.7289 62.1351 89.0651 62.0076 85.6799 62.0003C82.1655 61.9875 68.6135 62.4046 65.6876 63.0767C62.8281 63.135 59.0739 70.4387 57.7438 73.0269C55.6555 77.0758 56.0392 72.322 53.2055 72.1162L53.224 72.1253ZM57.7438 76.7589C66.3997 76.9064 76.2436 75.7134 85.298 75.7079C94.6752 75.6952 104.045 76.6878 113.253 76.7589L108.272 67.2367C107.349 65.7632 107.331 65.1932 105.368 64.8689C98.1232 63.7033 73.4875 63.8581 65.9901 64.8252C63.2487 65.1895 63.2672 66.2477 61.1217 70.0216C59.8303 72.2947 58.6754 74.4166 57.7364 76.7607L57.7438 76.7589ZM71.3475 96.1019C71.3528 97.3079 71.8404 98.463 72.7042 99.3158C73.568 100.169 74.738 100.65 75.9595 100.655H95.0479C96.2694 100.65 97.4394 100.169 98.3032 99.3158C99.167 98.463 99.6546 97.3079 99.6599 96.1019V92.9564C99.656 91.7491 99.1692 90.5921 98.3054 89.7376C97.4415 88.883 96.2707 88.4001 95.0479 88.3938H75.9688C74.7461 88.4005 73.5755 88.8837 72.7118 89.7381C71.8481 90.5926 71.3611 91.7492 71.3567 92.9564L71.3475 96.1019ZM65.4736 96.1146C66.5307 95.621 67.6062 94.4171 67.9954 93.4172C65.1489 91.7579 54.5652 91.0202 51.3164 91.6541C49.8517 100.158 62.4905 97.5171 65.4736 96.1146ZM103.014 93.4172C103.403 94.4171 104.479 95.621 105.536 96.1146C108.519 97.5171 121.158 100.158 119.693 91.6541C116.444 91.0202 105.857 91.7579 103.014 93.4172Z" fill="#71716D"/>
<ellipse cx="75" cy="70.5" rx="6" ry="5.5" fill="#71716D"/>
<line x1="24" y1="46" x2="24" y2="114" stroke="#71716D" stroke-width="4"/>
<path d="M48 42L22.5 56.7224L22.5 27.2776L48 42Z" fill="#71716D"/>
<path d="M83 72.7448L85.7295 69" stroke="#71716D" stroke-width="3" stroke-linecap="round"/>
<rect width="183" height="2" rx="1" transform="matrix(1 0 0 -1 22 117)" fill="#71716D"/>
</svg>
