<svg width="435" height="250" viewBox="0 0 435 250" fill="none" xmlns="http://www.w3.org/2000/svg">
<path d="M435 0H0V250H435V0Z" fill="url(#paint0_linear_1_662)"/>
<path d="M121.38 165.24H303.3V169.286H121.38V165.24Z" fill="url(#paint1_linear_1_662)"/>
<path d="M368.442 65.8632C371.217 86.1361 377.628 134.48 377.628 134.48V149.351C377.628 151.737 376.859 154.059 375.437 155.969C374.015 157.878 372.016 159.272 369.74 159.942L346.289 166.867H62.6603V141.607C62.6604 136.429 64.2303 131.375 67.1604 127.119L78.4051 110.775C79.2182 109.593 80.3038 108.627 81.569 107.96C82.8342 107.292 84.2413 106.943 85.6698 106.943H92.7372C110.488 88.8032 130.425 72.9709 152.084 59.8153C156.361 57.2319 161.274 55.9114 166.262 56.0046L357.538 56.1598C360.206 56.2028 362.772 57.2044 364.771 58.9837C366.771 60.763 368.073 63.2029 368.442 65.8632Z" fill="#BDBDBD"/>
<path d="M368.442 66.6804C371.217 86.6452 377.628 134.251 377.628 134.251V148.878C377.617 151.243 376.841 153.539 375.417 155.421C373.994 157.303 372.001 158.667 369.74 159.308L346.289 166.125H62.6603V141.476C62.6617 136.235 64.2694 131.122 67.2644 126.835L78.4051 110.89C79.2285 109.724 80.318 108.773 81.5822 108.119C82.8464 107.465 84.2482 107.125 85.6698 107.13H92.7372C110.527 89.2374 130.463 73.6469 152.084 60.7185C156.374 58.17 161.282 56.8706 166.262 56.9651L357.538 57.1167C360.19 57.1393 362.747 58.1156 364.747 59.8695C366.746 61.6234 368.057 64.0391 368.442 66.6804Z" fill="url(#paint2_linear_1_662)"/>
<path d="M368.987 66.4978C371.762 86.4625 378.173 134.068 378.173 134.068V148.699C378.161 151.063 377.385 153.359 375.961 155.24C374.538 157.121 372.546 158.484 370.285 159.125L346.842 165.957H63.2126V141.308C63.2139 136.067 64.8217 130.954 67.8166 126.666L78.961 110.711C79.7831 109.543 80.8722 108.59 82.1364 107.934C83.4007 107.278 84.8031 106.937 86.2256 106.94H93.293C111.083 89.0483 131.019 73.4578 152.64 60.5286C156.928 57.9845 161.834 56.6865 166.811 56.7789L358.086 56.9341C360.738 56.9575 363.294 57.9342 365.293 59.688C367.292 61.4418 368.602 63.8571 368.987 66.4978Z" fill="url(#paint3_linear_1_662)"/>
<path d="M368.987 66.4978C371.762 86.4625 378.173 134.068 378.173 134.068V148.699C378.161 151.063 377.385 153.359 375.961 155.24C374.538 157.121 372.546 158.484 370.285 159.125L346.842 165.957H63.2126V141.308C63.2139 136.067 64.8217 130.954 67.8166 126.666L78.961 110.711C79.7831 109.543 80.8722 108.59 82.1364 107.934C83.4007 107.278 84.8031 106.937 86.2256 106.94H93.293C111.083 89.0483 131.019 73.4578 152.64 60.5286C156.928 57.9845 161.834 56.6865 166.811 56.7789L358.086 56.9341C360.738 56.9575 363.294 57.9342 365.293 59.688C367.292 61.4418 368.602 63.8571 368.987 66.4978Z" fill="url(#paint4_linear_1_662)"/>
<path d="M103.978 167.706V144.712C103.978 143.951 103.843 143.197 103.58 142.485L98.1014 127.656C97.8358 126.939 97.3621 126.322 96.7434 125.885C96.1247 125.449 95.3902 125.215 94.6376 125.214H85.1283C80.9653 125.214 76.9279 129.66 74.7083 132.605C74.1755 133.305 73.4922 133.87 72.7107 134.259C71.9293 134.648 71.0707 134.848 70.2011 134.846H65.5396C65.0002 134.848 64.467 134.964 63.9734 135.186C63.4799 135.407 63.0365 135.73 62.6711 136.134L61.7101 137.2V164.611C61.7096 165.051 61.8182 165.484 62.0257 165.87L62.2803 166.344C62.5025 166.756 62.8294 167.1 63.2268 167.34C63.6241 167.579 64.0774 167.706 64.5393 167.706H103.978Z" fill="url(#paint5_linear_1_662)"/>
<path d="M65.1022 135.481H70.0433C70.921 135.48 71.7866 135.273 72.5736 134.878C73.3606 134.482 74.048 133.908 74.5828 133.199C76.7342 130.35 80.8076 125.848 84.8702 125.848H94.2145C94.9627 125.847 95.6933 126.078 96.3098 126.51C96.9264 126.942 97.3998 127.554 97.6676 128.265L103.068 142.595C103.34 143.318 103.48 144.085 103.48 144.86V167.089H64.1735C63.7153 167.089 63.2653 166.964 62.87 166.728C62.4748 166.492 62.1487 166.152 61.9253 165.745V165.723C61.7098 165.333 61.5962 164.893 61.5954 164.445V137.45L62.2552 136.738C62.6204 136.341 63.0614 136.026 63.5511 135.809C64.0407 135.593 64.5686 135.482 65.1022 135.481Z" fill="url(#paint6_linear_1_662)"/>
<path d="M71.1047 137.848C71.1047 137.848 70.2585 139.149 68.0748 139.368H68.0102C65.5755 139.601 63.7074 141.403 63.7074 143.596V164.573H70.4987L71.1047 137.848Z" fill="url(#paint7_linear_1_662)"/>
<path d="M83.0307 111.719H78.5164L78.9502 110.993C79.7723 109.627 80.8614 108.513 82.1256 107.746C83.3899 106.979 84.7923 106.58 86.2148 106.584H87.7137C86.1431 108.277 84.5822 109.989 83.0307 111.719Z" fill="#F4F4F4"/>
<path d="M360.08 61.7152L159.966 61.5507C155.578 61.4671 151.23 62.4591 147.24 64.4535C149.033 63.2365 150.834 62.0352 152.644 60.8495C156.931 58.0885 161.835 56.6797 166.811 56.7792L358.086 56.9477C360.497 56.9797 362.833 57.8649 364.744 59.4703C366.655 61.0758 368.038 63.3151 368.686 65.8521C367.58 64.5647 366.248 63.5346 364.769 62.8237C363.291 62.1128 361.696 61.7358 360.08 61.7152Z" fill="#F4F4F4"/>
<path d="M102.659 125.536C102.659 126.058 103.017 126.482 103.43 126.482H373.505C373.935 126.482 374.279 126.058 374.279 125.536C374.279 125.015 373.921 124.59 373.505 124.59H103.43C103.003 124.59 102.659 125.015 102.659 125.536Z" fill="white"/>
<path d="M103.476 125.174C103.476 125.504 103.598 125.758 103.749 125.758H373.551C373.702 125.758 373.824 125.504 373.824 125.174C373.824 124.856 373.702 124.59 373.551 124.59H103.749C103.598 124.59 103.476 124.856 103.476 125.174Z" fill="#9A9A9B"/>
<path d="M244.473 67.5499C244.165 67.5499 243.914 67.6727 243.914 67.8245V164.567C243.914 164.723 244.165 164.846 244.473 164.846C244.782 164.846 245.033 164.723 245.033 164.567V67.8245C245.033 67.6727 244.782 67.5499 244.473 67.5499Z" fill="white"/>
<path d="M244.685 67.8407C244.545 67.8407 244.427 67.884 244.427 67.9382V164.587C244.427 164.641 244.545 164.685 244.685 164.685C244.828 164.685 244.947 164.641 244.947 164.587V67.9382C244.947 67.884 244.828 67.8407 244.685 67.8407Z" fill="#9A9A9B"/>
<path d="M166.811 67.5499C166.502 67.5499 166.251 67.6727 166.251 67.8245V164.567C166.251 164.723 166.502 164.846 166.811 164.846C167.119 164.846 167.37 164.723 167.37 164.567V67.8245C167.37 67.6727 167.119 67.5499 166.811 67.5499Z" fill="white"/>
<path d="M167.04 67.8407C166.897 67.8407 166.782 67.884 166.782 67.9382V164.587C166.782 164.641 166.897 164.685 167.04 164.685C167.184 164.685 167.298 164.641 167.298 164.587V67.9382C167.298 67.884 167.184 67.8407 167.04 67.8407Z" fill="#9A9A9B"/>
<path d="M96.0612 108.819C95.7493 108.819 95.5019 108.947 95.5019 109.104V125.828C95.5019 125.989 95.7493 126.116 96.0612 126.116C96.3696 126.116 96.6206 125.989 96.6206 125.828V109.104C96.6206 108.947 96.3696 108.819 96.0612 108.819Z" fill="white"/>
<path d="M96.2728 109.11C96.1294 109.11 96.0146 109.155 96.0146 109.212V125.855C96.0146 125.911 96.1294 125.956 96.2728 125.956C96.4162 125.956 96.5309 125.911 96.5309 125.855V109.212C96.5309 109.155 96.4162 109.11 96.2728 109.11Z" fill="#9A9A9B"/>
<path d="M131.768 134.47C131.755 134.785 131.829 135.095 131.974 135.331C132.119 135.567 132.324 135.711 132.542 135.731H373.501C373.72 135.711 373.924 135.567 374.069 135.331C374.214 135.095 374.289 134.785 374.276 134.47C374.289 134.155 374.214 133.845 374.069 133.609C373.924 133.372 373.72 133.228 373.501 133.208H132.542C132.324 133.228 132.119 133.372 131.974 133.609C131.829 133.845 131.755 134.155 131.768 134.47Z" fill="white"/>
<path d="M132.585 133.904C132.581 134.077 132.608 134.247 132.659 134.377C132.71 134.507 132.781 134.586 132.858 134.599H373.552C373.628 134.586 373.7 134.507 373.751 134.377C373.802 134.247 373.828 134.077 373.824 133.904C373.826 133.818 373.821 133.731 373.809 133.65C373.797 133.568 373.777 133.493 373.752 133.428C373.727 133.364 373.696 133.311 373.661 133.273C373.627 133.236 373.59 133.214 373.552 133.208H132.858C132.82 133.214 132.782 133.236 132.748 133.273C132.714 133.311 132.683 133.364 132.657 133.428C132.632 133.493 132.613 133.568 132.6 133.65C132.588 133.731 132.583 133.818 132.585 133.904Z" fill="#9A9A9B"/>
<path d="M314.918 70.7213H252.064C250.489 70.7213 248.979 71.3578 247.866 72.4907C246.752 73.6236 246.126 75.1602 246.126 76.7624V108.39C246.126 109.183 246.28 109.968 246.578 110.701C246.876 111.433 247.313 112.099 247.865 112.659C248.416 113.22 249.07 113.665 249.79 113.968C250.51 114.272 251.281 114.428 252.061 114.428H314.918C315.697 114.428 316.469 114.272 317.189 113.968C317.909 113.665 318.563 113.22 319.114 112.659C319.665 112.099 320.102 111.433 320.401 110.701C320.699 109.968 320.852 109.183 320.852 108.39V76.7587C320.852 75.9659 320.699 75.1808 320.401 74.4483C320.102 73.7158 319.665 73.0503 319.114 72.4896C318.563 71.929 317.909 71.4843 317.189 71.1809C316.469 70.8775 315.697 70.7213 314.918 70.7213Z" fill="url(#paint8_linear_1_662)"/>
<path d="M252.064 71.3416H314.918C317.855 71.3416 320.236 73.7649 320.236 76.7544V108.395C320.236 111.385 317.855 113.808 314.918 113.808H252.064C249.127 113.808 246.747 111.385 246.747 108.395V76.7544C246.747 73.7649 249.127 71.3416 252.064 71.3416Z" fill="url(#paint9_linear_1_662)"/>
<path d="M252.068 72.5775H314.918C317.172 72.5775 318.999 74.4393 318.999 76.7359V108.413C318.999 110.71 317.172 112.572 314.918 112.572H252.068C249.814 112.572 247.987 110.71 247.987 108.413V76.7359C247.987 74.4393 249.814 72.5775 252.068 72.5775Z" fill="#1A1A1A"/>
<path d="M252.068 73.4019H314.918C316.716 73.4019 318.174 74.8886 318.174 76.7226V108.427C318.174 110.261 316.716 111.748 314.918 111.748H252.068C250.27 111.748 248.812 110.261 248.812 108.427V76.7226C248.812 74.8886 250.27 73.4019 252.068 73.4019Z" fill="url(#paint10_linear_1_662)"/>
<path d="M356.921 70.7213H327.056C325.481 70.7213 323.97 71.3578 322.857 72.4907C321.743 73.6236 321.118 75.1602 321.118 76.7624V108.39C321.118 109.183 321.271 109.968 321.569 110.701C321.868 111.433 322.305 112.099 322.856 112.659C323.407 113.22 324.061 113.665 324.781 113.968C325.501 114.272 326.273 114.428 327.052 114.428H356.925C357.704 114.428 358.476 114.272 359.196 113.968C359.916 113.665 360.57 113.22 361.121 112.659C361.672 112.099 362.109 111.433 362.407 110.701C362.705 109.968 362.859 109.183 362.859 108.39V76.7624C362.859 75.1602 362.233 73.6236 361.12 72.4907C360.006 71.3578 358.496 70.7213 356.921 70.7213Z" fill="url(#paint11_linear_1_662)"/>
<path d="M327.056 71.3416H356.921C359.858 71.3416 362.239 73.7649 362.239 76.7544V108.395C362.239 111.385 359.858 113.808 356.921 113.808H327.056C324.119 113.808 321.738 111.385 321.738 108.395V76.7544C321.738 73.7649 324.119 71.3416 327.056 71.3416Z" fill="url(#paint12_linear_1_662)"/>
<path d="M327.059 72.5775H356.921C359.175 72.5775 361.002 74.4393 361.002 76.7359V108.413C361.002 110.71 359.175 112.572 356.921 112.572H327.059C324.806 112.572 322.979 110.71 322.979 108.413V76.7359C322.979 74.4393 324.806 72.5775 327.059 72.5775Z" fill="#1A1A1A"/>
<path d="M327.059 73.4019H356.921C358.719 73.4019 360.177 74.8886 360.177 76.7226V108.427C360.177 110.261 358.719 111.748 356.921 111.748H327.059C325.261 111.748 323.803 110.261 323.803 108.427V76.7226C323.803 74.8886 325.261 73.4019 327.059 73.4019Z" fill="url(#paint13_linear_1_662)"/>
<path d="M237.786 70.7213H174.929C173.354 70.7213 171.844 71.3578 170.73 72.4907C169.616 73.6236 168.991 75.1602 168.991 76.7624V108.387C168.991 109.989 169.616 111.525 170.73 112.658C171.844 113.791 173.354 114.428 174.929 114.428H237.786C239.359 114.425 240.866 113.787 241.977 112.654C243.087 111.522 243.711 109.987 243.71 108.387V76.7587C243.71 75.1594 243.086 73.6254 241.975 72.4935C240.865 71.3616 239.358 70.7242 237.786 70.7213Z" fill="url(#paint14_linear_1_662)"/>
<path d="M174.929 71.3416H237.782C240.719 71.3416 243.1 73.7649 243.1 76.7544V108.395C243.1 111.385 240.719 113.808 237.782 113.808H174.929C171.992 113.808 169.611 111.385 169.611 108.395V76.7544C169.611 73.7649 171.992 71.3416 174.929 71.3416Z" fill="url(#paint15_linear_1_662)"/>
<path d="M174.932 72.5775H237.782C240.036 72.5775 241.863 74.4393 241.863 76.7359V108.413C241.863 110.71 240.036 112.572 237.782 112.572H174.932C172.679 112.572 170.852 110.71 170.852 108.413V76.7359C170.852 74.4393 172.679 72.5775 174.932 72.5775Z" fill="#1A1A1A"/>
<path d="M174.932 73.4019H237.782C239.581 73.4019 241.038 74.8886 241.038 76.7226V108.427C241.038 110.261 239.581 111.748 237.782 111.748H174.932C173.134 111.748 171.676 110.261 171.676 108.427V76.7226C171.676 74.8886 173.134 73.4019 174.932 73.4019Z" fill="url(#paint16_linear_1_662)"/>
<path d="M158.85 115.607C160.179 115.607 161.453 115.069 162.394 114.113C163.335 113.156 163.866 111.858 163.87 110.502V83.2754C163.866 81.9199 163.335 80.6217 162.394 79.6649C161.453 78.7082 160.179 78.171 158.85 78.171H141.047C139.99 78.1731 138.96 78.5121 138.1 79.1407C130.832 84.55 124.144 90.7265 118.146 97.5676C117.317 98.506 116.859 99.7254 116.862 100.989V110.502C116.867 111.855 117.395 113.15 118.332 114.106C119.269 115.062 120.539 115.602 121.864 115.607H158.85Z" fill="url(#paint17_linear_1_662)"/>
<path d="M158.85 114.991C160.011 114.986 161.123 114.512 161.942 113.673C162.762 112.834 163.223 111.698 163.225 110.512V83.2659C163.223 82.0807 162.762 80.9445 161.942 80.1054C161.123 79.2663 160.011 78.7926 158.85 78.7877H141.047C140.121 78.7897 139.218 79.0881 138.466 79.6409C131.232 85.0273 124.575 91.1775 118.604 97.9895C117.88 98.8144 117.48 99.884 117.482 100.992V110.512C117.483 111.699 117.945 112.837 118.766 113.677C119.588 114.516 120.702 114.989 121.864 114.991H158.85Z" fill="url(#paint18_linear_1_662)"/>
<path d="M158.85 113.339C159.575 113.339 160.271 113.044 160.784 112.52C161.297 111.995 161.585 111.284 161.586 110.542V83.2359C161.585 82.4936 161.297 81.782 160.784 81.2571C160.271 80.7322 159.576 80.4369 158.85 80.4359H141.047C140.468 80.4368 139.903 80.6242 139.434 80.9717C132.296 86.2996 125.728 92.3834 119.838 99.1221C119.378 99.6349 119.122 100.305 119.121 101.001V110.542C119.122 111.284 119.41 111.994 119.922 112.518C120.434 113.043 121.129 113.338 121.853 113.339H158.85Z" fill="#1A1A1A"/>
<path d="M160.966 83.223V110.555C160.966 111.13 160.743 111.681 160.346 112.087C159.95 112.494 159.412 112.722 158.85 112.722H121.864C121.303 112.721 120.766 112.492 120.37 112.086C119.974 111.68 119.752 111.129 119.752 110.555V101.005C119.747 100.463 119.941 99.9389 120.293 99.5354C126.152 92.8211 132.69 86.7621 139.796 81.4599C140.16 81.1895 140.598 81.0442 141.047 81.0448H158.85C159.129 81.0448 159.405 81.1012 159.663 81.2108C159.92 81.3204 160.154 81.481 160.35 81.6834C160.547 81.8858 160.702 82.1261 160.808 82.3903C160.914 82.6545 160.967 82.9375 160.966 83.223Z" fill="url(#paint19_linear_1_662)"/>
<path d="M291.987 135.693H348.154V167.709H291.987V135.693Z" fill="#BDBDBD"/>
<path d="M300.744 143.609C300.744 152.969 313.294 160.559 328.788 160.559C336.533 160.559 343.543 158.661 348.62 155.593H348.512V135.327H305.531V134.132C304.564 134.987 303.697 135.952 302.945 137.009C301.547 138.916 300.776 141.227 300.744 143.609Z" fill="#BDBDBD"/>
<path d="M301.16 143.609C301.16 152.83 313.53 160.306 328.788 160.306C336.418 160.306 343.324 158.437 348.322 155.414C348.946 155.037 349.544 154.643 350.115 154.23H348.523V135.327H305.889V134.271C304.938 135.115 304.083 136.066 303.343 137.108C301.961 138.984 301.196 141.261 301.16 143.609Z" fill="#BEBDBD"/>
<path d="M301.579 143.61C301.579 152.691 313.771 160.054 328.788 160.054C336.3 160.054 343.102 158.221 348.028 155.238C348.642 154.872 349.23 154.476 349.782 154.069H348.512V135.327H306.226V134.4C305.288 135.229 304.445 136.166 303.716 137.192C302.357 139.046 301.608 141.293 301.579 143.61Z" fill="#BFBEBE"/>
<path d="M301.992 143.609C301.992 152.551 313.986 159.8 328.78 159.8C336.178 159.8 342.876 157.986 347.724 155.058C348.884 154.364 349.978 153.562 350.994 152.661H348.505V135.327H306.553V134.557C305.628 135.373 304.799 136.295 304.082 137.306C302.752 139.129 302.02 141.335 301.992 143.609Z" fill="#C0BFBF"/>
<path d="M302.415 143.609C302.415 152.405 314.222 159.547 328.788 159.547C336.07 159.547 342.664 157.763 347.433 154.878C348.577 154.194 349.658 153.404 350.66 152.518H348.509V135.327H306.915V134.696C306.012 135.502 305.202 136.41 304.502 137.404C303.181 139.195 302.45 141.367 302.415 143.609Z" fill="#C1C0C0"/>
<path d="M302.834 143.609C302.834 152.269 314.455 159.295 328.788 159.295C335.959 159.295 342.442 157.539 347.139 154.699C348.262 154.026 349.323 153.249 350.309 152.379H348.516V135.327H307.28V134.839C306.385 135.63 305.582 136.524 304.889 137.504C303.59 139.266 302.87 141.403 302.834 143.609Z" fill="#C1C1C1"/>
<path d="M303.254 143.609C303.254 152.13 314.685 159.042 328.788 159.042C335.837 159.042 342.223 157.312 346.842 154.519C347.949 153.859 348.993 153.095 349.961 152.236H348.527V135.327H307.614V134.979C306.733 135.758 305.944 136.638 305.262 137.603C303.986 139.337 303.283 141.44 303.254 143.609Z" fill="#C2C2C2"/>
<path d="M303.673 143.609C303.673 151.991 314.918 158.789 328.773 158.789C335.708 158.789 341.987 157.088 346.533 154.34C347.621 153.69 348.648 152.938 349.599 152.093H348.498V135.327H311.028V132.875C306.484 135.62 303.673 139.417 303.673 143.609Z" fill="#C3C2C2"/>
<path d="M304.089 143.609C304.089 151.852 315.148 158.536 328.788 158.536C335.6 158.536 341.782 156.865 346.25 154.164C347.319 153.528 348.329 152.791 349.265 151.965H348.512V135.327H311.314V133.055C306.854 135.756 304.089 139.486 304.089 143.609Z" fill="#C4C3C3"/>
<path d="M304.502 143.609C304.502 151.712 315.373 158.269 328.78 158.269C335.486 158.269 341.553 156.623 345.949 153.97C347 153.34 347.993 152.612 348.914 151.797H348.505V135.404H348.914C347.993 134.59 347 133.863 345.949 133.234V135.327H311.612V133.234C307.227 135.888 304.502 139.556 304.502 143.609Z" fill="#C5C4C4"/>
<path d="M304.928 143.609C304.928 151.573 315.61 158.026 328.788 158.026C335.378 158.026 341.338 156.414 345.64 153.805C347.638 152.655 349.38 151.094 350.757 149.22H348.498V137.995H350.757C349.381 136.121 347.64 134.56 345.644 133.41V135.327H311.903V133.41C307.6 136.019 304.928 139.625 304.928 143.609Z" fill="#C6C5C5"/>
<path d="M305.348 143.609C305.348 151.433 315.843 157.774 328.788 157.774C335.242 157.774 341.122 156.19 345.364 153.625C347.323 152.493 349.033 150.96 350.384 149.121H348.509V138.094H350.399C349.047 136.255 347.338 134.721 345.379 133.589V135.327H312.211V133.589C307.969 136.155 305.348 139.695 305.348 143.609Z" fill="#C7C6C6"/>
<path d="M305.764 143.609C305.764 151.305 316.073 157.535 328.788 157.535C335.145 157.535 340.9 155.978 345.067 153.46C346.992 152.351 348.672 150.846 350.001 149.04H348.512V138.193H350.001C348.672 136.387 346.992 134.881 345.067 133.769V135.327H312.508V133.769C308.342 136.287 305.764 139.765 305.764 143.609Z" fill="#C8C7C7"/>
<path d="M306.183 143.609C306.183 151.151 316.302 157.268 328.773 157.268C335.016 157.268 340.667 155.74 344.758 153.27C346.648 152.178 348.297 150.7 349.603 148.927H348.498V138.299H349.603C348.298 136.525 346.649 135.047 344.758 133.956V135.334H312.788V133.956C308.715 136.419 306.183 139.835 306.183 143.609Z" fill="#C9C8C7"/>
<path d="M306.603 143.609C306.603 151.012 316.535 157.015 328.788 157.015C341.04 157.015 350.972 151.012 350.972 143.609C350.972 139.904 348.491 136.555 344.475 134.128V135.327H313.107V134.128C309.084 136.555 306.603 139.897 306.603 143.609Z" fill="#C9C8C8"/>
<path d="M307.012 143.61C307.012 150.892 316.765 156.755 328.788 156.755C340.81 156.755 350.553 150.866 350.553 143.602C350.553 139.967 348.118 136.679 344.177 134.297V135.32H313.398V134.297C309.457 136.687 307.012 139.974 307.012 143.61Z" fill="#CAC9C9"/>
<path d="M307.438 143.61C307.438 150.734 316.998 156.51 328.788 156.51C340.577 156.51 350.137 150.734 350.137 143.61C350.137 140.044 347.745 136.819 343.883 134.484V135.327H313.692V134.484C309.83 136.819 307.438 140.044 307.438 143.61Z" fill="#CBCACA"/>
<path d="M307.858 143.61C307.858 150.595 317.227 156.257 328.788 156.257C340.348 156.257 349.717 150.595 349.717 143.61C349.717 140.117 347.376 136.954 343.586 134.664V135.327H313.989V134.664C310.199 136.965 307.858 140.117 307.858 143.61Z" fill="#CCCBCB"/>
<path d="M308.277 143.609C308.277 150.455 317.46 156.003 328.788 156.003C340.115 156.003 349.298 150.455 349.298 143.609C349.298 140.186 347.003 137.086 343.292 134.843V135.326H314.283V134.843C310.572 137.086 308.277 140.186 308.277 143.609Z" fill="#CDCCCC"/>
<path d="M308.697 143.609C308.697 150.316 317.69 155.751 328.777 155.751C339.864 155.751 348.857 150.316 348.857 143.609C348.857 140.256 346.605 137.218 342.969 135.022V135.327H314.556V135.022C310.956 137.218 308.697 140.263 308.697 143.609Z" fill="#CECDCD"/>
<path d="M309.113 143.61C309.113 150.177 317.923 155.498 328.788 155.498C339.652 155.498 348.462 150.177 348.462 143.61C348.462 140.311 346.261 137.354 342.7 135.199V135.327H314.875V135.199C311.314 137.354 309.113 140.326 309.113 143.61Z" fill="#CFCECE"/>
<path d="M309.522 143.61C309.522 150.034 318.127 155.245 328.777 155.245C339.426 155.245 348.032 150.034 348.032 143.61C348.032 140.396 345.881 137.486 342.392 135.378C340.479 134.252 338.418 133.412 336.271 132.886V135.327H321.283V132.886C319.136 133.412 317.075 134.252 315.162 135.378C311.673 137.486 309.522 140.396 309.522 143.61Z" fill="#D0CFCE"/>
<path d="M309.952 143.609C309.952 149.894 318.385 154.992 328.788 154.992C339.19 154.992 347.623 149.894 347.623 143.609C347.623 140.465 345.515 137.617 342.108 135.547C340.236 134.447 338.22 133.625 336.12 133.106V135.305H321.455V133.106C319.355 133.625 317.339 134.447 315.467 135.547C312.06 137.617 309.952 140.465 309.952 143.609Z" fill="#D1D0CF"/>
<path d="M310.371 143.609C310.371 149.755 318.618 154.739 328.787 154.739C338.957 154.739 347.207 149.755 347.207 143.609C347.207 140.534 345.145 137.746 341.811 135.737C339.981 134.66 338.009 133.856 335.955 133.351V135.327H321.613V133.351C319.559 133.856 317.587 134.66 315.757 135.737C312.43 137.753 310.371 140.534 310.371 143.609Z" fill="#D1D0D0"/>
<path d="M310.787 143.61C310.787 149.616 318.848 154.487 328.788 154.487C338.727 154.487 346.788 149.616 346.788 143.61C346.788 140.604 344.773 137.885 341.517 135.913C339.724 134.859 337.792 134.074 335.78 133.583V135.323H321.767V133.583C319.761 134.075 317.835 134.86 316.048 135.913C312.802 137.885 310.787 140.604 310.787 143.61Z" fill="#D2D1D1"/>
<path d="M328.788 154.233C319.078 154.233 311.207 149.477 311.207 143.609C311.207 137.741 319.078 132.985 328.788 132.985C338.497 132.985 346.368 137.741 346.368 143.609C346.368 149.477 338.497 154.233 328.788 154.233Z" fill="#D3D2D2"/>
<path d="M328.788 153.981C319.31 153.981 311.626 149.337 311.626 143.609C311.626 137.881 319.31 133.238 328.788 133.238C338.265 133.238 345.949 137.881 345.949 143.609C345.949 149.337 338.265 153.981 328.788 153.981Z" fill="#D4D3D3"/>
<path d="M328.787 153.728C319.539 153.728 312.042 149.198 312.042 143.609C312.042 138.021 319.539 133.491 328.787 133.491C338.036 133.491 345.533 138.021 345.533 143.609C345.533 149.198 338.036 153.728 328.787 153.728Z" fill="#D5D4D4"/>
<path d="M328.788 153.475C319.771 153.475 312.462 149.058 312.462 143.61C312.462 138.161 319.771 133.744 328.788 133.744C337.804 133.744 345.113 138.161 345.113 143.61C345.113 149.058 337.804 153.475 328.788 153.475Z" fill="#D6D5D5"/>
<path d="M328.788 153.222C320.003 153.222 312.881 148.919 312.881 143.61C312.881 138.301 320.003 133.997 328.788 133.997C337.572 133.997 344.694 138.301 344.694 143.61C344.694 148.919 337.572 153.222 328.788 153.222Z" fill="#D7D6D6"/>
<path d="M328.787 152.969C320.234 152.969 313.301 148.779 313.301 143.609C313.301 138.44 320.234 134.25 328.787 134.25C337.341 134.25 344.274 138.44 344.274 143.609C344.274 148.779 337.341 152.969 328.787 152.969Z" fill="#D8D7D6"/>
<path d="M328.788 152.716C320.464 152.716 313.717 148.639 313.717 143.609C313.717 138.58 320.464 134.502 328.788 134.502C337.111 134.502 343.858 138.58 343.858 143.609C343.858 148.639 337.111 152.716 328.788 152.716Z" fill="#D9D8D7"/>
<path d="M328.788 152.463C320.696 152.463 314.136 148.499 314.136 143.609C314.136 138.719 320.696 134.755 328.788 134.755C336.879 134.755 343.439 138.719 343.439 143.609C343.439 148.499 336.879 152.463 328.788 152.463Z" fill="#DAD9D8"/>
<path d="M328.788 152.211C320.928 152.211 314.556 148.36 314.556 143.609C314.556 138.859 320.928 135.008 328.788 135.008C336.647 135.008 343.019 138.859 343.019 143.609C343.019 148.36 336.647 152.211 328.788 152.211Z" fill="#DBDAD9"/>
<path d="M328.788 151.958C321.159 151.958 314.975 148.22 314.975 143.61C314.975 138.999 321.159 135.261 328.788 135.261C336.416 135.261 342.6 138.999 342.6 143.61C342.6 148.22 336.416 151.958 328.788 151.958Z" fill="#DCDBDA"/>
<path d="M328.788 151.705C321.389 151.705 315.391 148.081 315.391 143.61C315.391 139.139 321.389 135.514 328.788 135.514C336.186 135.514 342.184 139.139 342.184 143.61C342.184 148.081 336.186 151.705 328.788 151.705Z" fill="#DDDCDB"/>
<path d="M328.788 151.452C321.621 151.452 315.811 147.94 315.811 143.609C315.811 139.278 321.621 135.766 328.788 135.766C335.954 135.766 341.764 139.278 341.764 143.609C341.764 147.94 335.954 151.452 328.788 151.452Z" fill="#DEDDDC"/>
<path d="M328.788 151.199C321.852 151.199 316.23 147.801 316.23 143.609C316.23 139.417 321.852 136.019 328.788 136.019C335.723 136.019 341.345 139.417 341.345 143.609C341.345 147.801 335.723 151.199 328.788 151.199Z" fill="#DEDEDD"/>
<path d="M328.788 150.946C322.084 150.946 316.65 147.661 316.65 143.609C316.65 139.557 322.084 136.272 328.788 136.272C335.491 136.272 340.925 139.557 340.925 143.609C340.925 147.661 335.491 150.946 328.788 150.946Z" fill="#DFDEDE"/>
<path d="M328.788 150.694C322.314 150.694 317.066 147.522 317.066 143.609C317.066 139.697 322.314 136.525 328.788 136.525C335.261 136.525 340.509 139.697 340.509 143.609C340.509 147.522 335.261 150.694 328.788 150.694Z" fill="#E0DFDF"/>
<path d="M328.788 150.441C322.546 150.441 317.485 147.382 317.485 143.609C317.485 139.837 322.546 136.778 328.788 136.778C335.03 136.778 340.09 139.837 340.09 143.609C340.09 147.382 335.03 150.441 328.788 150.441Z" fill="#E1E0E0"/>
<path d="M328.788 150.188C322.777 150.188 317.905 147.243 317.905 143.61C317.905 139.976 322.777 137.031 328.788 137.031C334.798 137.031 339.67 139.976 339.67 143.61C339.67 147.243 334.798 150.188 328.788 150.188Z" fill="#E2E1E1"/>
<path d="M328.788 149.935C323.009 149.935 318.324 147.102 318.324 143.609C318.324 140.116 323.009 137.284 328.788 137.284C334.566 137.284 339.251 140.116 339.251 143.609C339.251 147.102 334.566 149.935 328.788 149.935Z" fill="#E3E2E2"/>
<path d="M328.788 149.682C323.239 149.682 318.74 146.963 318.74 143.609C318.74 140.255 323.239 137.537 328.788 137.537C334.336 137.537 338.835 140.255 338.835 143.609C338.835 146.963 334.336 149.682 328.788 149.682Z" fill="#E4E3E3"/>
<path d="M328.788 149.429C323.47 149.429 319.16 146.823 319.16 143.609C319.16 140.395 323.47 137.789 328.788 137.789C334.105 137.789 338.415 140.395 338.415 143.609C338.415 146.823 334.105 149.429 328.788 149.429Z" fill="#E6E4E4"/>
<path d="M328.788 149.176C323.702 149.176 319.579 146.684 319.579 143.609C319.579 140.535 323.702 138.042 328.788 138.042C333.873 138.042 337.996 140.535 337.996 143.609C337.996 146.684 333.873 149.176 328.788 149.176Z" fill="#E7E5E5"/>
<path d="M328.788 148.923C323.932 148.923 319.995 146.544 319.995 143.609C319.995 140.675 323.932 138.295 328.788 138.295C333.643 138.295 337.58 140.675 337.58 143.609C337.58 146.544 333.643 148.923 328.788 148.923Z" fill="#E7E6E6"/>
<path d="M328.788 148.67C324.163 148.67 320.415 146.404 320.415 143.609C320.415 140.814 324.163 138.548 328.788 138.548C333.412 138.548 337.16 140.814 337.16 143.609C337.16 146.404 333.412 148.67 328.788 148.67Z" fill="#E8E7E7"/>
<path d="M328.788 148.417C324.395 148.417 320.834 146.265 320.834 143.609C320.834 140.953 324.395 138.801 328.788 138.801C333.18 138.801 336.741 140.953 336.741 143.609C336.741 146.265 333.18 148.417 328.788 148.417Z" fill="#E9E8E8"/>
<path d="M328.787 148.165C324.627 148.165 321.254 146.125 321.254 143.609C321.254 141.093 324.627 139.054 328.787 139.054C332.948 139.054 336.321 141.093 336.321 143.609C336.321 146.125 332.948 148.165 328.787 148.165Z" fill="#EAE9E9"/>
<path d="M328.788 147.912C324.857 147.912 321.67 145.986 321.67 143.609C321.67 141.233 324.857 139.307 328.788 139.307C332.718 139.307 335.905 141.233 335.905 143.609C335.905 145.986 332.718 147.912 328.788 147.912Z" fill="#EBEAEA"/>
<path d="M328.788 147.659C325.088 147.659 322.09 145.846 322.09 143.61C322.09 141.373 325.088 139.56 328.788 139.56C332.487 139.56 335.486 141.373 335.486 143.61C335.486 145.846 332.487 147.659 328.788 147.659Z" fill="#ECEBEB"/>
<path d="M328.788 147.402C325.32 147.402 322.509 145.704 322.509 143.609C322.509 141.514 325.32 139.816 328.788 139.816C332.255 139.816 335.066 141.514 335.066 143.609C335.066 145.704 332.255 147.402 328.788 147.402Z" fill="#EDECEC"/>
<path d="M328.788 147.149C325.552 147.149 322.928 145.564 322.928 143.609C322.928 141.654 325.552 140.069 328.788 140.069C332.023 140.069 334.647 141.654 334.647 143.609C334.647 145.564 332.023 147.149 328.788 147.149Z" fill="#EEEDED"/>
<path d="M328.788 146.897C325.781 146.897 323.344 145.425 323.344 143.609C323.344 141.794 325.781 140.322 328.788 140.322C331.794 140.322 334.231 141.794 334.231 143.609C334.231 145.425 331.794 146.897 328.788 146.897Z" fill="#EFEEEE"/>
<path d="M328.787 146.644C326.013 146.644 323.764 145.285 323.764 143.609C323.764 141.933 326.013 140.575 328.787 140.575C331.562 140.575 333.811 141.933 333.811 143.609C333.811 145.285 331.562 146.644 328.787 146.644Z" fill="#F1EFEF"/>
<path d="M328.788 146.391C326.245 146.391 324.184 145.145 324.184 143.609C324.184 142.073 326.245 140.828 328.788 140.828C331.33 140.828 333.392 142.073 333.392 143.609C333.392 145.145 331.33 146.391 328.788 146.391Z" fill="#F2F1F0"/>
<path d="M328.788 146.138C326.476 146.138 324.603 145.006 324.603 143.609C324.603 142.213 326.476 141.08 328.788 141.08C331.099 141.08 332.972 142.213 332.972 143.609C332.972 145.006 331.099 146.138 328.788 146.138Z" fill="#F3F2F1"/>
<path d="M328.788 145.885C326.706 145.885 325.019 144.866 325.019 143.609C325.019 142.352 326.706 141.333 328.788 141.333C330.869 141.333 332.556 142.352 332.556 143.609C332.556 144.866 330.869 145.885 328.788 145.885Z" fill="#F4F3F2"/>
<path d="M325.438 143.609C325.438 144.727 326.937 145.632 328.787 145.632C330.638 145.632 332.137 144.727 332.137 143.609C332.137 142.491 330.638 141.582 328.787 141.582C326.937 141.582 325.438 142.491 325.438 143.609Z" fill="#F5F4F4"/>
<path d="M328.788 145.379C327.17 145.379 325.858 144.586 325.858 143.609C325.858 142.631 327.17 141.839 328.788 141.839C330.405 141.839 331.717 142.631 331.717 143.609C331.717 144.586 330.405 145.379 328.788 145.379Z" fill="#F6F5F5"/>
<path d="M328.788 145.127C327.401 145.127 326.278 144.447 326.278 143.61C326.278 142.772 327.401 142.092 328.788 142.092C330.174 142.092 331.298 142.772 331.298 143.61C331.298 144.447 330.174 145.127 328.788 145.127Z" fill="#F7F6F6"/>
<path d="M328.787 144.874C327.631 144.874 326.693 144.308 326.693 143.61C326.693 142.911 327.631 142.345 328.787 142.345C329.944 142.345 330.882 142.911 330.882 143.61C330.882 144.308 329.944 144.874 328.787 144.874Z" fill="#F8F8F8"/>
<path d="M328.788 144.621C327.863 144.621 327.113 144.168 327.113 143.609C327.113 143.051 327.863 142.598 328.788 142.598C329.712 142.598 330.462 143.051 330.462 143.609C330.462 144.168 329.712 144.621 328.788 144.621Z" fill="#FAF9F9"/>
<path d="M328.788 144.368C328.094 144.368 327.533 144.028 327.533 143.609C327.533 143.19 328.094 142.851 328.788 142.851C329.481 142.851 330.043 143.19 330.043 143.609C330.043 144.028 329.481 144.368 328.788 144.368Z" fill="#FBFBFB"/>
<path d="M328.788 144.115C328.326 144.115 327.952 143.889 327.952 143.609C327.952 143.33 328.326 143.104 328.788 143.104C329.249 143.104 329.623 143.33 329.623 143.609C329.623 143.889 329.249 144.115 328.788 144.115Z" fill="#FDFDFD"/>
<path d="M328.788 143.862C328.556 143.862 328.368 143.749 328.368 143.609C328.368 143.47 328.556 143.356 328.788 143.356C329.019 143.356 329.207 143.47 329.207 143.609C329.207 143.749 329.019 143.862 328.788 143.862Z" fill="white"/>
<path d="M319.834 142.693H320.279C326.082 142.699 331.646 145.081 335.748 149.316C339.849 153.551 342.152 159.292 342.151 165.277V167.644H297.94V165.277C297.939 162.312 298.505 159.375 299.605 156.635C300.705 153.895 302.318 151.405 304.351 149.308C306.384 147.211 308.798 145.547 311.455 144.412C314.111 143.277 316.959 142.693 319.834 142.693Z" fill="url(#paint20_linear_1_662)"/>
<path d="M319.841 143.353H320.279C325.927 143.354 331.344 145.67 335.337 149.793C339.331 153.917 341.574 159.508 341.574 165.339V167.644H298.546V165.339C298.546 159.508 300.789 153.917 304.783 149.793C308.776 145.67 314.193 143.354 319.841 143.353Z" fill="#1A1A1A"/>
<path d="M320.064 186.013C309.605 186.013 301.127 177.367 301.127 166.702C301.127 156.037 309.605 147.391 320.064 147.391C330.522 147.391 339 156.037 339 166.702C339 177.367 330.522 186.013 320.064 186.013Z" fill="#2E2E2E"/>
<path d="M310.653 175.716C305.759 170.825 305.882 162.773 310.927 157.731C315.972 152.689 324.03 152.566 328.924 157.457C333.818 162.348 333.695 170.4 328.65 175.442C323.605 180.484 315.547 180.606 310.653 175.716Z" fill="#CCC9C6"/>
<path d="M315.28 177.693C309.379 175.222 306.667 168.278 309.223 162.183C311.779 156.089 318.635 153.152 324.536 155.624C330.437 158.095 333.149 165.04 330.593 171.134C328.037 177.228 321.181 180.165 315.28 177.693Z" fill="url(#paint21_radial_1_662)"/>
<path d="M318.217 174.933C318.217 175.298 318.325 175.655 318.528 175.958C318.731 176.262 319.019 176.498 319.357 176.638C319.694 176.778 320.066 176.814 320.424 176.743C320.782 176.672 321.111 176.496 321.369 176.238C321.628 175.98 321.803 175.651 321.875 175.293C321.946 174.935 321.909 174.564 321.77 174.227C321.63 173.89 321.393 173.601 321.089 173.399C320.786 173.196 320.429 173.088 320.064 173.088C319.574 173.088 319.104 173.282 318.758 173.628C318.411 173.974 318.217 174.444 318.217 174.933Z" fill="#1A1A1A"/>
<path d="M318.217 158.081C318.214 158.523 318.32 158.957 318.521 159.326C318.722 159.695 319.01 159.984 319.347 160.156C319.684 160.327 320.056 160.374 320.415 160.29C320.774 160.206 321.105 159.995 321.364 159.683C321.624 159.372 321.801 158.974 321.874 158.54C321.946 158.107 321.91 157.657 321.771 157.248C321.632 156.839 321.395 156.489 321.091 156.243C320.787 155.997 320.429 155.866 320.064 155.866C319.576 155.866 319.109 156.099 318.763 156.513C318.417 156.928 318.221 157.492 318.217 158.081Z" fill="#1A1A1A"/>
<path d="M311.44 164.466C311.075 164.466 310.718 164.597 310.414 164.842C310.11 165.088 309.874 165.436 309.734 165.844C309.594 166.252 309.557 166.701 309.629 167.134C309.7 167.567 309.876 167.965 310.134 168.277C310.392 168.589 310.721 168.802 311.08 168.888C311.438 168.974 311.809 168.93 312.147 168.761C312.484 168.592 312.772 168.306 312.975 167.939C313.178 167.572 313.287 167.14 313.287 166.699C313.287 166.106 313.092 165.539 312.746 165.12C312.399 164.701 311.93 164.466 311.44 164.466Z" fill="#1A1A1A"/>
<path d="M328.687 164.466C328.322 164.465 327.964 164.595 327.66 164.84C327.356 165.085 327.119 165.433 326.979 165.841C326.838 166.249 326.801 166.698 326.872 167.131C326.943 167.565 327.118 167.963 327.377 168.276C327.635 168.588 327.964 168.801 328.322 168.888C328.68 168.974 329.052 168.93 329.389 168.762C329.727 168.593 330.016 168.307 330.219 167.939C330.422 167.572 330.53 167.14 330.53 166.699C330.529 166.108 330.335 165.541 329.99 165.123C329.644 164.704 329.176 164.468 328.687 164.466Z" fill="#1A1A1A"/>
<path d="M312.663 171.102C312.405 171.359 312.229 171.688 312.158 172.045C312.087 172.402 312.124 172.772 312.263 173.109C312.403 173.445 312.639 173.733 312.942 173.935C313.245 174.138 313.602 174.246 313.966 174.246C314.331 174.246 314.687 174.138 314.99 173.935C315.293 173.733 315.529 173.445 315.669 173.109C315.808 172.772 315.845 172.402 315.774 172.045C315.703 171.688 315.527 171.359 315.269 171.102C314.923 170.757 314.455 170.564 313.966 170.564C313.477 170.564 313.009 170.757 312.663 171.102Z" fill="#1A1A1A"/>
<path d="M324.858 159.028C324.6 159.34 324.424 159.737 324.353 160.169C324.282 160.602 324.319 161.05 324.458 161.457C324.598 161.864 324.834 162.213 325.137 162.458C325.44 162.702 325.797 162.833 326.161 162.833C326.526 162.833 326.882 162.702 327.185 162.458C327.488 162.213 327.724 161.864 327.864 161.457C328.003 161.05 328.04 160.602 327.969 160.169C327.898 159.737 327.722 159.34 327.464 159.028C327.118 158.611 326.65 158.377 326.161 158.377C325.672 158.377 325.204 158.611 324.858 159.028Z" fill="#1A1A1A"/>
<path d="M315.259 159.028C315.001 158.717 314.672 158.505 314.315 158.42C313.958 158.334 313.587 158.379 313.251 158.548C312.914 158.717 312.627 159.002 312.425 159.369C312.222 159.735 312.114 160.166 312.114 160.607C312.114 161.047 312.222 161.478 312.425 161.844C312.627 162.211 312.914 162.496 313.251 162.665C313.587 162.834 313.958 162.879 314.315 162.793C314.672 162.708 315.001 162.496 315.259 162.185C315.605 161.766 315.799 161.198 315.799 160.607C315.799 160.015 315.605 159.447 315.259 159.028Z" fill="#1A1A1A"/>
<path d="M327.45 171.102C327.192 170.845 326.864 170.67 326.506 170.6C326.149 170.529 325.779 170.566 325.442 170.705C325.106 170.845 324.818 171.081 324.616 171.384C324.414 171.687 324.306 172.042 324.306 172.407C324.306 172.771 324.414 173.126 324.616 173.429C324.818 173.732 325.106 173.968 325.442 174.108C325.779 174.247 326.149 174.284 326.506 174.213C326.864 174.143 327.192 173.968 327.45 173.711C327.622 173.54 327.758 173.336 327.851 173.113C327.944 172.889 327.992 172.649 327.992 172.407C327.992 172.164 327.944 171.924 327.851 171.7C327.758 171.477 327.622 171.273 327.45 171.102Z" fill="#1A1A1A"/>
<path d="M320.064 170.952C317.929 170.952 316.198 169.049 316.198 166.702C316.198 164.354 317.929 162.452 320.064 162.452C322.198 162.452 323.929 164.354 323.929 166.702C323.929 169.049 322.198 170.952 320.064 170.952Z" fill="#CCC9C6"/>
<path d="M320.064 170.346C318.263 170.346 316.804 168.715 316.804 166.702C316.804 164.689 318.263 163.057 320.064 163.057C321.864 163.057 323.323 164.689 323.323 166.702C323.323 168.715 321.864 170.346 320.064 170.346Z" fill="url(#paint22_radial_1_662)"/>
<path d="M102.985 135.631H103.545C110.915 135.631 117.983 138.629 123.194 143.967C128.406 149.304 131.334 156.543 131.334 164.091V164.403C131.334 165.13 131.067 165.831 130.585 166.364C130.103 166.898 129.442 167.226 128.734 167.282L124.894 167.587L81.8403 167.466L78.0789 167.246C77.3023 167.196 76.5734 166.845 76.0404 166.265C75.5075 165.684 75.2107 164.917 75.2104 164.121V164.08C75.2606 148.366 88.2587 135.565 102.985 135.631Z" fill="url(#paint23_radial_1_662)"/>
<path d="M103.043 142.532H103.487C109.333 142.532 114.94 144.926 119.074 149.189C123.208 153.451 125.531 159.232 125.532 165.26V167.644H81.0013V165.26C81.0013 159.232 83.3235 153.451 87.457 149.189C91.5906 144.927 97.1969 142.532 103.043 142.532Z" fill="url(#paint24_linear_1_662)"/>
<path d="M103.05 143.353H103.48C109.129 143.353 114.546 145.669 118.541 149.792C122.535 153.915 124.779 159.508 124.779 165.339V167.644H81.7507V165.339C81.7507 159.508 83.9947 153.915 87.989 149.792C91.9834 145.669 97.4009 143.353 103.05 143.353Z" fill="#1A1A1A"/>
<path d="M103.276 186.013C92.8175 186.013 84.3396 177.367 84.3396 166.702C84.3396 156.037 92.8175 147.391 103.276 147.391C113.734 147.391 122.212 156.037 122.212 166.702C122.212 177.367 113.734 186.013 103.276 186.013Z" fill="#2E2E2E"/>
<path d="M101.056 179.417C94.2317 178.265 89.6629 171.631 90.8516 164.6C92.0403 157.569 98.5363 152.804 105.361 153.956C112.185 155.108 116.754 161.742 115.565 168.773C114.377 175.804 107.881 180.569 101.056 179.417Z" fill="url(#paint25_radial_1_662)"/>
<path d="M101.21 178.467C94.9013 177.402 90.6798 171.256 91.7814 164.74C92.883 158.225 98.8905 153.806 105.2 154.871C111.509 155.937 115.73 162.082 114.628 168.598C113.527 175.114 107.519 179.532 101.21 178.467Z" fill="url(#paint26_radial_1_662)"/>
<path d="M101.429 174.933C101.429 175.298 101.537 175.655 101.74 175.958C101.943 176.262 102.232 176.498 102.569 176.638C102.906 176.778 103.278 176.814 103.636 176.743C103.994 176.672 104.323 176.496 104.581 176.238C104.84 175.98 105.016 175.651 105.087 175.293C105.158 174.935 105.121 174.564 104.982 174.227C104.842 173.89 104.605 173.601 104.302 173.399C103.998 173.196 103.641 173.088 103.276 173.088C103.033 173.087 102.793 173.134 102.568 173.227C102.344 173.32 102.14 173.456 101.969 173.627C101.797 173.798 101.661 174.002 101.569 174.226C101.476 174.45 101.429 174.69 101.429 174.933Z" fill="#1A1A1A"/>
<path d="M101.429 158.084C101.429 158.526 101.537 158.957 101.74 159.325C101.943 159.692 102.232 159.978 102.569 160.147C102.906 160.316 103.278 160.36 103.636 160.274C103.994 160.188 104.323 159.975 104.581 159.663C104.84 159.351 105.016 158.953 105.087 158.52C105.158 158.087 105.121 157.638 104.982 157.23C104.842 156.822 104.605 156.473 104.302 156.228C103.998 155.983 103.641 155.852 103.276 155.852C103.033 155.851 102.793 155.908 102.568 156.02C102.344 156.132 102.14 156.297 101.969 156.504C101.797 156.712 101.661 156.958 101.569 157.229C101.476 157.5 101.429 157.791 101.429 158.084Z" fill="#1A1A1A"/>
<path d="M94.6521 164.466C94.2867 164.465 93.9293 164.595 93.6252 164.84C93.321 165.085 93.0837 165.433 92.9434 165.841C92.8031 166.249 92.766 166.698 92.8369 167.131C92.9077 167.565 93.0833 167.963 93.3414 168.276C93.5995 168.588 93.9286 168.801 94.2869 168.888C94.6452 168.974 95.0167 168.93 95.3543 168.762C95.692 168.593 95.9806 168.307 96.1836 167.939C96.3867 167.572 96.4951 167.14 96.4951 166.699C96.4942 166.108 96.2998 165.541 95.9545 165.123C95.6091 164.704 95.1409 164.468 94.6521 164.466Z" fill="#1A1A1A"/>
<path d="M111.896 164.466C111.53 164.466 111.173 164.597 110.87 164.842C110.566 165.088 110.329 165.436 110.19 165.844C110.05 166.252 110.013 166.701 110.084 167.134C110.156 167.567 110.332 167.965 110.59 168.277C110.848 168.589 111.177 168.802 111.535 168.888C111.894 168.974 112.265 168.93 112.602 168.761C112.94 168.592 113.228 168.306 113.431 167.939C113.634 167.572 113.742 167.14 113.742 166.699C113.742 166.106 113.548 165.539 113.201 165.12C112.855 164.701 112.385 164.466 111.896 164.466Z" fill="#1A1A1A"/>
<path d="M95.8712 171.102C95.6128 171.36 95.4367 171.689 95.3654 172.047C95.294 172.405 95.3305 172.776 95.4702 173.114C95.6099 173.451 95.8466 173.739 96.1503 173.942C96.454 174.145 96.8111 174.253 97.1764 174.253C97.5417 174.253 97.8988 174.145 98.2025 173.942C98.5062 173.739 98.7429 173.451 98.8826 173.114C99.0224 172.776 99.0588 172.405 98.9874 172.047C98.916 171.689 98.74 171.36 98.4816 171.102C98.1353 170.757 97.6659 170.562 97.1764 170.562C96.6869 170.562 96.2175 170.757 95.8712 171.102Z" fill="#1A1A1A"/>
<path d="M108.066 159.028C107.808 159.34 107.632 159.738 107.56 160.171C107.489 160.605 107.525 161.054 107.665 161.462C107.805 161.87 108.042 162.218 108.345 162.464C108.649 162.709 109.006 162.84 109.371 162.84C109.737 162.84 110.094 162.709 110.397 162.464C110.701 162.218 110.938 161.87 111.078 161.462C111.217 161.054 111.254 160.605 111.182 160.171C111.111 159.738 110.935 159.34 110.677 159.028C110.33 158.61 109.861 158.375 109.371 158.375C108.882 158.375 108.412 158.61 108.066 159.028Z" fill="#1A1A1A"/>
<path d="M98.4815 159.028C98.2234 158.716 97.8944 158.503 97.5361 158.417C97.1778 158.331 96.8064 158.375 96.4689 158.544C96.1314 158.713 95.8429 158.999 95.6399 159.366C95.4369 159.733 95.3286 160.165 95.3286 160.606C95.3286 161.048 95.4369 161.48 95.6399 161.847C95.8429 162.214 96.1314 162.5 96.4689 162.669C96.8064 162.838 97.1778 162.882 97.5361 162.796C97.8944 162.71 98.2234 162.497 98.4815 162.184C98.8258 161.765 99.0189 161.198 99.0189 160.606C99.0189 160.015 98.8258 159.448 98.4815 159.028Z" fill="#1A1A1A"/>
<path d="M110.677 171.102C110.418 170.844 110.089 170.668 109.731 170.597C109.373 170.525 109.001 170.562 108.664 170.701C108.326 170.841 108.038 171.078 107.835 171.381C107.632 171.685 107.524 172.041 107.524 172.406C107.524 172.772 107.632 173.128 107.835 173.432C108.038 173.735 108.326 173.972 108.664 174.112C109.001 174.251 109.373 174.288 109.731 174.216C110.089 174.145 110.418 173.969 110.677 173.711C111.023 173.365 111.217 172.896 111.217 172.406C111.217 171.917 111.023 171.448 110.677 171.102Z" fill="#1A1A1A"/>
<path d="M103.276 170.952C101.141 170.952 99.4103 169.049 99.4103 166.702C99.4103 164.354 101.141 162.452 103.276 162.452C105.41 162.452 107.141 164.354 107.141 166.702C107.141 169.049 105.41 170.952 103.276 170.952Z" fill="#CCC9C6"/>
<path d="M103.276 170.146C101.586 170.146 100.217 168.604 100.217 166.702C100.217 164.8 101.586 163.258 103.276 163.258C104.965 163.258 106.334 164.8 106.334 166.702C106.334 168.604 104.965 170.146 103.276 170.146Z" fill="url(#paint27_radial_1_662)"/>
<path d="M135.902 163.885H162.866C163.734 163.885 164.565 163.538 165.179 162.92C165.792 162.301 166.137 161.463 166.137 160.588V79.3362C166.136 78.2311 165.7 77.1715 164.925 76.39C164.149 75.6086 163.098 75.1692 162.002 75.1682H140.054C139.307 75.1672 138.578 75.3995 137.967 75.8334C129.393 82.0335 121.491 89.1292 114.395 97.0023C114.306 97.1008 114.258 97.2304 114.262 97.3637L114.194 131.81L114.37 131.868C118.84 133.378 122.905 135.906 126.249 139.257C135.257 148.305 133.822 160.863 133.722 161.583C133.72 161.604 133.72 161.626 133.722 161.648V161.669C133.72 161.959 133.776 162.247 133.885 162.515C133.993 162.783 134.154 163.027 134.356 163.233C134.559 163.439 134.799 163.602 135.065 163.714C135.33 163.826 135.614 163.884 135.902 163.885ZM162.508 75.6888C163.332 75.6888 164.123 76.019 164.706 76.6067C165.289 77.1945 165.617 77.9917 165.617 78.8229V161.102C165.617 161.702 165.38 162.278 164.959 162.702C164.538 163.126 163.967 163.365 163.372 163.365H135.4C135.09 163.365 134.793 163.241 134.573 163.02C134.354 162.799 134.231 162.499 134.231 162.186V161.637C134.231 161.543 136.024 148.33 126.626 138.863C123.271 135.499 119.2 132.951 114.721 131.413V99.023C114.721 97.9931 115.105 97.0008 115.797 96.2431C122.609 88.8386 130.143 82.1427 138.283 76.2563C138.807 75.8839 139.434 75.6855 140.076 75.6888H162.508Z" fill="#9A9A9B"/>
<path d="M82.8695 108.114C82.8577 108.408 82.9248 108.697 83.0559 108.917C83.187 109.138 83.3714 109.272 83.5687 109.289H97.3952C97.5918 109.27 97.7754 109.136 97.9057 108.916C98.036 108.695 98.1026 108.407 98.0908 108.114C98.1016 107.821 98.0348 107.534 97.9046 107.314C97.7745 107.094 97.5915 106.959 97.3952 106.939H83.5687C83.3717 106.958 83.1879 107.092 83.057 107.312C82.926 107.532 82.8587 107.82 82.8695 108.114Z" fill="url(#paint28_linear_1_662)"/>
<path d="M83.981 108.032C83.9731 108.271 84.0218 108.505 84.1165 108.685C84.2112 108.864 84.3442 108.973 84.4866 108.989H96.6314C96.7731 108.972 96.9052 108.862 96.9991 108.683C97.0931 108.504 97.1413 108.27 97.1334 108.032C97.1413 107.794 97.0931 107.56 96.9991 107.381C96.9052 107.202 96.7731 107.092 96.6314 107.075H84.4866C84.3442 107.09 84.2112 107.2 84.1165 107.379C84.0218 107.558 83.9731 107.793 83.981 108.032Z" fill="url(#paint29_linear_1_662)"/>
<path d="M351.083 152.88H364.749C365.295 152.88 365.738 153.495 365.738 154.252V154.282C365.738 155.04 365.295 155.654 364.749 155.654H351.083C350.537 155.654 350.094 155.04 350.094 154.282V154.252C350.094 153.495 350.537 152.88 351.083 152.88Z" fill="#DBDAD9"/>
<path d="M350.757 153.771C350.758 154.006 350.811 154.23 350.905 154.396C350.999 154.561 351.127 154.654 351.259 154.654H364.247C364.379 154.654 364.506 154.561 364.6 154.396C364.694 154.23 364.748 154.006 364.749 153.771C364.749 153.534 364.696 153.308 364.602 153.141C364.507 152.974 364.38 152.88 364.247 152.88H351.263C351.13 152.88 351.002 152.974 350.908 153.141C350.814 153.308 350.761 153.534 350.761 153.771H350.757Z" fill="#8B8B8B"/>
<path d="M174.011 152.88H289.556C290.103 152.88 290.546 153.495 290.546 154.252V154.282C290.546 155.04 290.103 155.654 289.556 155.654H174.011C173.464 155.654 173.021 155.04 173.021 154.282V154.252C173.021 153.495 173.464 152.88 174.011 152.88Z" fill="#DBDAD9"/>
<path d="M173.684 153.771C173.685 154.006 173.739 154.23 173.833 154.396C173.927 154.561 174.054 154.654 174.187 154.654H289.054C289.187 154.654 289.313 154.561 289.407 154.395C289.5 154.23 289.553 154.005 289.553 153.771C289.553 153.536 289.5 153.31 289.407 153.143C289.314 152.977 289.187 152.882 289.054 152.88H174.187C174.053 152.88 173.926 152.974 173.832 153.141C173.737 153.308 173.684 153.534 173.684 153.771Z" fill="#8B8B8B"/>
<path d="M172.275 126.736H366.387C367.441 126.736 368.295 127.716 368.295 128.926V130.539C368.295 131.748 367.441 132.728 366.387 132.728H172.275C171.222 132.728 170.368 131.748 170.368 130.539V128.926C170.368 127.716 171.222 126.736 172.275 126.736Z" fill="url(#paint30_linear_1_662)"/>
<path d="M172.279 127.535H366.391C367.003 127.535 367.499 128.137 367.499 128.879V130.589C367.499 131.331 367.003 131.932 366.391 131.932H172.279C171.667 131.932 171.171 131.331 171.171 130.589V128.879C171.171 128.137 171.667 127.535 172.279 127.535Z" fill="url(#paint31_linear_1_662)"/>
<path d="M376.216 131.494L376.054 131.513C375.188 131.613 374.319 131.353 373.638 130.792C372.957 130.231 372.519 129.413 372.422 128.519L370.504 110.792C370.408 109.897 370.66 109 371.205 108.298C371.749 107.595 372.542 107.144 373.408 107.043L373.569 107.025C373.783 107.001 373.998 107.065 374.166 107.204C374.334 107.343 374.441 107.544 374.466 107.765L376.933 130.569C376.956 130.79 376.894 131.011 376.759 131.185C376.625 131.358 376.429 131.469 376.216 131.494Z" fill="#721014"/>
<path d="M370.522 111.112C370.426 110.142 370.678 109.169 371.223 108.406C371.767 107.644 372.56 107.154 373.426 107.045L373.587 107.025C373.801 106.999 374.016 107.069 374.184 107.22C374.352 107.37 374.46 107.589 374.484 107.828L375.068 113.697L370.837 114.227L370.522 111.112Z" fill="#721014"/>
<path d="M375.07 112.978L375.521 117.01L370.518 117.568L370.067 113.537L375.07 112.978Z" fill="#721014"/>
<path d="M376.094 122.182L376.933 130.516C376.956 130.749 376.894 130.982 376.759 131.165C376.625 131.348 376.429 131.466 376.216 131.492L376.054 131.512C375.188 131.617 374.319 131.343 373.638 130.751C372.957 130.158 372.519 129.295 372.422 128.351L371.841 122.682L376.094 122.182Z" fill="#721014"/>
<path d="M375.52 117.011L376.096 122.168L371.093 122.726L370.517 117.569L375.52 117.011Z" fill="#721014"/>
<path d="M371.196 111.04C370.995 109.028 372.063 107.221 373.58 107.016L373.716 106.996C373.913 106.992 374.102 107.074 374.246 107.224C374.39 107.374 374.476 107.581 374.487 107.801L375.011 113.06C375.027 113.225 374.984 113.391 374.891 113.521C374.798 113.651 374.663 113.734 374.516 113.752L372.063 114.062C371.916 114.08 371.767 114.032 371.651 113.928C371.535 113.824 371.46 113.672 371.443 113.507L371.196 111.04Z" fill="#DD2427"/>
<path d="M375.132 113.529L375.458 116.449C375.492 116.756 375.217 117.039 374.844 117.08L371.859 117.413C371.486 117.455 371.156 117.24 371.121 116.933L370.795 114.013C370.761 113.706 371.036 113.424 371.409 113.382L374.394 113.049C374.767 113.007 375.097 113.222 375.132 113.529Z" fill="url(#paint32_linear_1_662)"/>
<path d="M375.538 122.229C375.685 122.212 375.833 122.258 375.949 122.36C376.064 122.461 376.139 122.608 376.155 122.769L376.933 130.518C376.97 130.731 376.929 130.951 376.818 131.131C376.707 131.311 376.536 131.436 376.341 131.48H376.205C374.688 131.664 373.293 130.221 373.093 128.254L372.573 123.171C372.557 123.011 372.6 122.85 372.692 122.723C372.785 122.597 372.92 122.517 373.067 122.499L375.538 122.229Z" fill="#DD2427"/>
<path d="M375.581 117.565L376.033 121.611C376.067 121.918 375.793 122.2 375.419 122.242L372.434 122.575C372.061 122.616 371.731 122.401 371.697 122.095L371.245 118.049C371.21 117.742 371.485 117.46 371.858 117.418L374.843 117.085C375.217 117.043 375.547 117.258 375.581 117.565Z" fill="#F6883C"/>
<path d="M373.58 112.487C373.595 112.643 373.663 112.785 373.768 112.883C373.873 112.981 374.006 113.026 374.14 113.008C374.205 113 374.269 112.976 374.327 112.939C374.385 112.902 374.436 112.851 374.477 112.791C374.519 112.73 374.549 112.66 374.568 112.586C374.586 112.511 374.592 112.433 374.584 112.356L374.197 108.306C374.19 108.229 374.17 108.154 374.138 108.086C374.106 108.018 374.063 107.958 374.011 107.91C373.96 107.861 373.9 107.825 373.837 107.804C373.773 107.782 373.707 107.776 373.641 107.785C373.575 107.793 373.512 107.816 373.454 107.854C373.396 107.891 373.345 107.941 373.303 108.002C373.262 108.063 373.231 108.132 373.213 108.207C373.195 108.281 373.189 108.359 373.196 108.436L373.58 112.487Z" fill="url(#paint33_linear_1_662)"/>
<path d="M375.28 127.691C375.287 127.768 375.307 127.843 375.339 127.911C375.371 127.979 375.414 128.039 375.465 128.087C375.517 128.136 375.576 128.172 375.64 128.193C375.703 128.215 375.77 128.221 375.836 128.212C375.969 128.195 376.091 128.117 376.175 127.995C376.259 127.873 376.298 127.717 376.284 127.56L375.897 123.507C375.889 123.429 375.869 123.355 375.838 123.287C375.806 123.219 375.763 123.159 375.711 123.11C375.659 123.062 375.6 123.026 375.537 123.004C375.473 122.983 375.406 122.976 375.341 122.985C375.275 122.993 375.21 123.017 375.152 123.055C375.094 123.092 375.042 123.143 375 123.204C374.959 123.265 374.928 123.335 374.909 123.41C374.891 123.485 374.885 123.563 374.893 123.641L375.28 127.691Z" fill="url(#paint34_linear_1_662)"/>
<path d="M374.036 116.501C374.05 116.673 374.117 116.83 374.221 116.938C374.325 117.046 374.458 117.097 374.591 117.079C374.725 117.059 374.847 116.972 374.931 116.837C375.015 116.702 375.054 116.53 375.04 116.358L374.853 114.206C374.838 114.034 374.77 113.878 374.665 113.77C374.561 113.663 374.427 113.614 374.294 113.633C374.228 113.642 374.164 113.668 374.106 113.709C374.048 113.75 373.997 113.806 373.956 113.872C373.915 113.939 373.884 114.015 373.866 114.097C373.847 114.179 373.842 114.264 373.849 114.349L374.036 116.501Z" fill="url(#paint35_linear_1_662)"/>
<path d="M374.484 120.512C374.491 120.597 374.511 120.679 374.543 120.754C374.575 120.828 374.618 120.894 374.669 120.947C374.721 121.001 374.78 121.04 374.844 121.064C374.907 121.087 374.974 121.095 375.04 121.085C375.173 121.066 375.294 120.981 375.379 120.846C375.463 120.712 375.502 120.54 375.488 120.369L375.301 118.216C375.286 118.044 375.218 117.888 375.114 117.78C375.009 117.673 374.875 117.624 374.742 117.643C374.676 117.652 374.612 117.678 374.554 117.719C374.497 117.76 374.445 117.816 374.404 117.882C374.363 117.949 374.332 118.025 374.314 118.107C374.295 118.189 374.29 118.275 374.297 118.359L374.484 120.512Z" fill="url(#paint36_linear_1_662)"/>
<path d="M172.003 115.152H173.204C173.881 115.152 174.43 115.751 174.43 116.489V123.041C174.43 123.78 173.881 124.379 173.204 124.379H172.003C171.325 124.379 170.776 123.78 170.776 123.041V116.489C170.776 115.751 171.325 115.152 172.003 115.152Z" fill="url(#paint37_linear_1_662)"/>
<path d="M172.003 115.463H173.204C173.709 115.463 174.118 115.913 174.118 116.467V123.067C174.118 123.621 173.709 124.071 173.204 124.071H172.003C171.498 124.071 171.088 123.621 171.088 123.067V116.467C171.088 115.913 171.498 115.463 172.003 115.463Z" fill="url(#paint38_linear_1_662)"/>
<path d="M172.003 115.685H172.433C172.486 115.685 172.539 115.696 172.589 115.718C172.638 115.741 172.683 115.774 172.721 115.815C172.758 115.857 172.788 115.906 172.808 115.961C172.829 116.015 172.839 116.074 172.838 116.133V123.397C172.839 123.456 172.829 123.515 172.808 123.57C172.788 123.624 172.759 123.674 172.721 123.716C172.683 123.758 172.638 123.791 172.589 123.814C172.54 123.837 172.487 123.849 172.433 123.849H172.003C171.774 123.849 171.554 123.748 171.392 123.569C171.23 123.39 171.139 123.147 171.139 122.894V116.636C171.139 116.51 171.161 116.387 171.204 116.271C171.248 116.156 171.312 116.051 171.392 115.962C171.472 115.874 171.568 115.804 171.672 115.757C171.777 115.709 171.889 115.685 172.003 115.685Z" fill="#1A1A1A"/>
<path d="M172.146 123.051C172.146 123.085 172.152 123.12 172.164 123.151C172.176 123.183 172.194 123.212 172.216 123.237C172.238 123.261 172.264 123.28 172.293 123.293C172.321 123.306 172.352 123.312 172.383 123.311C172.445 123.311 172.504 123.284 172.548 123.235C172.591 123.186 172.616 123.12 172.616 123.051V116.302C172.616 116.267 172.611 116.233 172.599 116.201C172.588 116.169 172.571 116.139 172.549 116.115C172.527 116.09 172.501 116.071 172.473 116.057C172.444 116.044 172.414 116.037 172.383 116.037C172.352 116.036 172.321 116.043 172.292 116.056C172.263 116.069 172.236 116.089 172.214 116.113C172.192 116.138 172.175 116.167 172.163 116.2C172.151 116.232 172.146 116.267 172.146 116.302V123.051Z" fill="#393937"/>
<path d="M160.658 115.152H161.859C162.536 115.152 163.085 115.751 163.085 116.489V123.041C163.085 123.78 162.536 124.379 161.859 124.379H160.658C159.98 124.379 159.431 123.78 159.431 123.041V116.489C159.431 115.751 159.98 115.152 160.658 115.152Z" fill="url(#paint39_linear_1_662)"/>
<path d="M160.658 115.463H161.859C162.364 115.463 162.773 115.913 162.773 116.467V123.067C162.773 123.621 162.364 124.071 161.859 124.071H160.658C160.153 124.071 159.743 123.621 159.743 123.067V116.467C159.743 115.913 160.153 115.463 160.658 115.463Z" fill="url(#paint40_linear_1_662)"/>
<path d="M160.658 115.685H161.074C161.127 115.684 161.18 115.696 161.229 115.718C161.279 115.74 161.323 115.773 161.361 115.815C161.399 115.857 161.429 115.906 161.449 115.961C161.469 116.015 161.479 116.073 161.479 116.132V123.397C161.479 123.456 161.469 123.514 161.449 123.569C161.429 123.624 161.399 123.674 161.361 123.716C161.324 123.758 161.279 123.791 161.229 123.814C161.18 123.836 161.127 123.848 161.074 123.848H160.643C160.414 123.848 160.194 123.748 160.032 123.569C159.87 123.39 159.779 123.147 159.779 122.894V116.635C159.779 116.509 159.802 116.384 159.846 116.267C159.891 116.15 159.956 116.045 160.038 115.956C160.119 115.868 160.216 115.798 160.323 115.752C160.429 115.705 160.543 115.682 160.658 115.685Z" fill="#1A1A1A"/>
<path d="M160.801 123.051C160.801 123.085 160.807 123.12 160.819 123.151C160.831 123.183 160.849 123.212 160.871 123.237C160.893 123.261 160.919 123.28 160.947 123.293C160.976 123.306 161.007 123.312 161.038 123.311C161.1 123.311 161.159 123.284 161.202 123.235C161.246 123.186 161.271 123.12 161.271 123.051V116.302C161.271 116.267 161.266 116.233 161.254 116.201C161.243 116.169 161.225 116.139 161.204 116.115C161.182 116.09 161.156 116.071 161.128 116.057C161.099 116.044 161.069 116.037 161.038 116.037C161.006 116.036 160.975 116.043 160.947 116.056C160.918 116.069 160.891 116.089 160.869 116.113C160.847 116.138 160.83 116.167 160.818 116.2C160.806 116.232 160.801 116.267 160.801 116.302V123.051Z" fill="#393937"/>
<path d="M239.733 115.152H240.934C241.612 115.152 242.161 115.751 242.161 116.489V123.041C242.161 123.78 241.612 124.379 240.934 124.379H239.733C239.056 124.379 238.507 123.78 238.507 123.041V116.489C238.507 115.751 239.056 115.152 239.733 115.152Z" fill="url(#paint41_linear_1_662)"/>
<path d="M239.733 115.463H240.934C241.439 115.463 241.849 115.913 241.849 116.467V123.067C241.849 123.621 241.439 124.071 240.934 124.071H239.733C239.228 124.071 238.819 123.621 238.819 123.067V116.467C238.819 115.913 239.228 115.463 239.733 115.463Z" fill="url(#paint42_linear_1_662)"/>
<path d="M239.733 115.685H240.163C240.217 115.685 240.27 115.696 240.319 115.718C240.368 115.741 240.413 115.774 240.451 115.815C240.489 115.857 240.519 115.906 240.539 115.961C240.559 116.015 240.569 116.074 240.569 116.133V123.397C240.569 123.456 240.559 123.515 240.539 123.57C240.519 123.624 240.489 123.674 240.451 123.716C240.414 123.758 240.369 123.791 240.319 123.814C240.27 123.837 240.217 123.849 240.163 123.849H239.733C239.504 123.849 239.284 123.748 239.122 123.569C238.96 123.39 238.869 123.147 238.869 122.894V116.636C238.869 116.51 238.891 116.387 238.935 116.271C238.978 116.156 239.042 116.051 239.122 115.962C239.203 115.874 239.298 115.804 239.403 115.757C239.508 115.709 239.62 115.685 239.733 115.685Z" fill="#1A1A1A"/>
<path d="M239.877 123.051C239.877 123.085 239.883 123.12 239.895 123.151C239.907 123.183 239.924 123.212 239.946 123.237C239.968 123.261 239.994 123.28 240.023 123.293C240.052 123.306 240.082 123.312 240.113 123.311C240.175 123.311 240.234 123.284 240.278 123.235C240.322 123.186 240.346 123.12 240.346 123.051V116.302C240.347 116.267 240.341 116.233 240.33 116.201C240.318 116.169 240.301 116.139 240.279 116.115C240.258 116.09 240.232 116.071 240.203 116.057C240.175 116.044 240.144 116.037 240.113 116.037C240.082 116.036 240.051 116.043 240.022 116.056C239.993 116.069 239.967 116.089 239.945 116.113C239.923 116.138 239.905 116.167 239.894 116.2C239.882 116.232 239.876 116.267 239.877 116.302V123.051Z" fill="#393937"/>
<path d="M69.8211 118.928C71.0864 117.06 72.7637 115.54 74.7107 114.495C76.6576 113.45 78.8168 112.912 81.0049 112.926L94.1429 113.009C94.2824 113.01 94.4194 113.047 94.5418 113.117C94.6642 113.187 94.7682 113.288 94.8445 113.41C94.9208 113.532 94.967 113.672 94.9791 113.817C94.9912 113.963 94.9688 114.109 94.9138 114.243L94.8923 114.299C94.3609 115.597 93.4769 116.704 92.35 117.481C91.2231 118.259 89.9027 118.673 88.5528 118.673H82.7834C81.8724 118.673 80.9743 118.899 80.1637 119.335C79.3531 119.77 78.6533 120.4 78.122 121.175L74.9845 128.208C74.7116 128.819 74.2775 129.337 73.7332 129.7C73.1889 130.063 72.5569 130.255 71.9116 130.256H71.7932C70.8796 130.257 69.9833 129.995 69.2025 129.499C68.4217 129.003 67.7865 128.291 67.3665 127.442C66.9466 126.594 66.7581 125.64 66.8217 124.687C66.8853 123.734 67.1985 122.817 67.7271 122.037L69.8211 118.928Z" fill="url(#paint43_linear_1_662)"/>
<path d="M70.574 118.539C71.7546 116.789 73.3214 115.363 75.1411 114.383C76.9609 113.402 78.9798 112.896 81.0264 112.908L93.3074 112.983C93.4375 112.985 93.5652 113.02 93.6792 113.086C93.7931 113.152 93.8898 113.246 93.9607 113.361C94.0316 113.475 94.0745 113.606 94.0856 113.742C94.0968 113.877 94.0758 114.014 94.0245 114.139L94.003 114.192C93.5053 115.406 92.6785 116.44 91.6251 117.168C90.5717 117.895 89.3377 118.283 88.0759 118.284H82.6973C81.8453 118.285 81.0056 118.498 80.2475 118.905C79.4895 119.312 78.8347 119.902 78.3371 120.626L72.5067 129.13L71.431 129.925C67.6553 129.925 66.411 124.67 68.6055 121.441L70.574 118.539Z" fill="url(#paint44_linear_1_662)"/>
<path d="M92.7373 107.347H93.5728C95.9786 107.349 98.3586 106.84 100.562 105.855C102.766 104.869 104.744 103.428 106.374 101.622C113.212 94.0378 126.095 80.5749 138.81 71.6008C138.995 71.466 139.133 71.275 139.205 71.0553C139.276 70.8355 139.278 70.5981 139.21 70.3772C139.141 70.1563 139.006 69.9632 138.824 69.8255C138.641 69.6878 138.42 69.6125 138.193 69.6106H136.659C136.659 69.6106 106.851 89.9624 92.7373 107.347Z" fill="url(#paint45_linear_1_662)"/>
<path d="M96.0182 103.55C97.7645 103.49 99.4818 103.076 101.07 102.334C102.659 101.592 104.087 100.535 105.273 99.2255C110.469 93.4598 120.254 83.2236 129.928 76.4043C130.069 76.3021 130.175 76.1567 130.23 75.9892C130.286 75.8217 130.287 75.6406 130.235 75.4722C130.183 75.3037 130.079 75.1565 129.94 75.0518C129.8 74.9471 129.632 74.8904 129.458 74.8897H129.276C133.729 71.5971 136.659 69.6106 136.659 69.6106H138.193C138.42 69.6125 138.641 69.6878 138.824 69.8255C139.006 69.9632 139.141 70.1563 139.21 70.3772C139.278 70.5981 139.276 70.8355 139.205 71.0553C139.133 71.275 138.995 71.466 138.81 71.6008C126.081 80.5749 113.212 94.0378 106.374 101.622C104.744 103.428 102.766 104.869 100.562 105.855C98.3586 106.84 95.9786 107.349 93.5728 107.347H92.7373C93.7556 106.089 94.8564 104.827 96.0182 103.55Z" fill="url(#paint46_linear_1_662)"/>
<path d="M80.6893 117.939L82.9088 117.825C85.9674 117.662 90.4388 116.011 91.2312 113.814L91.2707 113.779H80.6283C80.4366 113.775 80.2463 113.819 80.0686 113.907C79.8909 113.996 79.7295 114.127 79.5938 114.293C79.458 114.459 79.3508 114.657 79.2785 114.875C79.2061 115.093 79.1701 115.327 79.1725 115.562V116.178C79.1747 116.417 79.2161 116.653 79.2941 116.873C79.3722 117.092 79.4853 117.289 79.6268 117.453C79.7684 117.618 79.9353 117.745 80.1179 117.829C80.3004 117.912 80.4947 117.95 80.6893 117.939Z" fill="url(#paint47_linear_1_662)"/>
<path d="M77.3511 114.213C77.3511 114.213 79.0507 117.577 77.6558 119.955C76.261 122.332 75.2893 123.651 75.2893 123.651H71.2876C71.2876 123.651 69.7709 122.332 69.8318 120.747C69.8318 120.747 73.4713 114.806 77.3511 114.213Z" fill="url(#paint48_linear_1_662)"/>
<path d="M75.4112 115.872C75.4112 116.135 75.475 116.388 75.5887 116.574C75.7023 116.76 75.8565 116.865 76.0172 116.865H91.2994C91.4601 116.865 91.6143 116.76 91.7279 116.574C91.8415 116.388 91.9054 116.135 91.9054 115.872C91.9054 115.609 91.8415 115.356 91.7279 115.17C91.6143 114.984 91.4601 114.879 91.2994 114.879H76.0172C75.8565 114.879 75.7023 114.984 75.5887 115.17C75.475 115.356 75.4112 115.609 75.4112 115.872Z" fill="white"/>
<path d="M70.7139 119.749L72.2701 121.852C72.6634 122.385 72.8924 123.021 72.9287 123.682C72.965 124.342 72.8071 125 72.4745 125.572V125.593L68.6055 124.518C68.6055 124.518 69.2366 121.404 70.7139 119.749Z" fill="white"/>
<path d="M74.7442 115.969L75.1027 116.818C75.1027 116.818 72.6143 118.578 71.7071 120.043L71.3485 119.377C71.3485 119.377 73.1664 116.757 74.7442 115.969Z" fill="white"/>
<path d="M63.8006 133.513C63.8006 133.513 65.9807 132.968 66.5293 132.438C67.078 131.907 67.9816 129.256 67.9816 129.256L65.8911 127.346C65.8911 127.346 63.6178 130.241 63.8006 133.513Z" fill="url(#paint49_linear_1_662)"/>
<path d="M65.5613 154.074L65.9199 154.432C67.0677 155.579 67.7126 157.135 67.7127 158.757V160.495C67.7127 161.242 67.4158 161.959 66.8872 162.487C66.3587 163.015 65.6418 163.312 64.8944 163.312H64.8513C64.4973 163.312 64.1571 163.175 63.9027 162.928C63.6484 162.682 63.4999 162.347 63.4887 161.993L63.2736 155.063C63.2655 154.795 63.3382 154.53 63.4823 154.304C63.6263 154.077 63.8351 153.899 64.0816 153.793C64.3281 153.686 64.6009 153.656 64.8647 153.706C65.1285 153.756 65.3712 153.884 65.5613 154.074Z" fill="url(#paint50_linear_1_662)"/>
<path d="M138.81 72.0331C138.932 72.0321 139.051 71.9838 139.143 71.8969C139.237 71.8151 148.43 63.3963 158.126 63.3963H368.987C369.124 63.3963 369.255 63.3373 369.352 63.2322C369.449 63.1271 369.503 62.9845 369.503 62.8359C369.503 62.6872 369.449 62.5447 369.352 62.4395C369.255 62.3344 369.124 62.2754 368.987 62.2754H158.126C148.047 62.2754 138.86 70.6903 138.476 71.0484C138.374 71.1434 138.31 71.2788 138.299 71.4247C138.289 71.5706 138.332 71.7153 138.419 71.8268C138.466 71.8908 138.525 71.9425 138.593 71.9782C138.661 72.0139 138.735 72.0327 138.81 72.0331Z" fill="white"/>
<path d="M138.81 72.8504C138.932 72.8508 139.05 72.8039 139.143 72.718C139.237 72.6324 148.43 64.2135 158.126 64.2135H368.987C369.058 64.22 369.13 64.2103 369.197 64.1852C369.265 64.16 369.327 64.12 369.379 64.0675C369.432 64.015 369.474 63.9512 369.503 63.8802C369.531 63.8092 369.546 63.7325 369.546 63.655C369.546 63.5774 369.531 63.5007 369.503 63.4297C369.474 63.3587 369.432 63.295 369.379 63.2425C369.327 63.19 369.265 63.1499 369.197 63.1248C369.13 63.0996 369.058 63.09 368.987 63.0964H158.126C148.047 63.0964 138.86 71.5076 138.476 71.8656C138.397 71.9401 138.34 72.0392 138.314 72.1495C138.288 72.2599 138.293 72.3763 138.329 72.4833C138.365 72.5903 138.431 72.6827 138.517 72.7483C138.603 72.8139 138.705 72.8495 138.81 72.8504Z" fill="url(#paint51_linear_1_662)"/>
<path d="M112.365 102.94V112.019C112.364 112.486 112.19 112.933 111.88 113.262C111.57 113.592 111.15 113.778 110.712 113.779H103.512C103.074 113.779 102.653 113.594 102.343 113.264C102.033 112.933 101.859 112.486 101.859 112.019V109.163C101.859 108.901 101.913 108.643 102.018 108.406C102.124 108.17 102.278 107.961 102.469 107.796L109.669 101.57C109.912 101.359 110.206 101.227 110.516 101.187C110.827 101.147 111.142 101.203 111.425 101.346C111.707 101.49 111.945 101.716 112.112 101.998C112.278 102.28 112.366 102.607 112.365 102.94Z" fill="url(#paint52_linear_1_662)"/>
<path d="M111.118 105.305V112.098C111.117 112.447 110.988 112.782 110.761 113.029C110.534 113.275 110.226 113.414 109.906 113.414H104.635C104.314 113.414 104.007 113.275 103.78 113.028C103.554 112.782 103.426 112.447 103.426 112.098V109.962C103.427 109.766 103.468 109.573 103.545 109.396C103.623 109.219 103.735 109.063 103.874 108.94L109.142 104.29C109.319 104.133 109.533 104.034 109.76 104.004C109.987 103.974 110.216 104.015 110.423 104.121C110.629 104.227 110.804 104.394 110.927 104.604C111.05 104.813 111.116 105.056 111.118 105.305Z" fill="url(#paint53_linear_1_662)"/>
<path d="M111.512 102.064L110.583 103.049C109.882 103.792 109.325 104.676 108.946 105.65C108.566 106.624 108.371 107.669 108.371 108.725V110.623C108.371 111.39 108.656 112.126 109.163 112.669C109.67 113.212 110.357 113.517 111.075 113.518H112.028C112.223 113.518 112.415 113.477 112.595 113.397C112.774 113.318 112.937 113.201 113.074 113.054C113.211 112.907 113.32 112.732 113.394 112.54C113.468 112.348 113.506 112.142 113.506 111.934L113.473 102.93C113.472 102.688 113.404 102.451 113.277 102.25C113.151 102.049 112.971 101.893 112.762 101.8C112.552 101.708 112.322 101.683 112.1 101.73C111.877 101.777 111.673 101.893 111.512 102.064Z" fill="url(#paint54_linear_1_662)"/>
<path d="M373.666 106.419H373.731C373.795 106.419 373.857 106.393 373.903 106.346C373.949 106.299 373.975 106.236 373.975 106.17C373.975 106.104 373.949 106.041 373.903 105.994C373.857 105.948 373.795 105.922 373.731 105.922H373.666C372.128 105.92 370.654 105.296 369.566 104.187C368.478 103.078 367.866 101.574 367.865 100.006V70.2939C367.764 68.9337 369.005 68.1257 369.019 68.1001C369.074 68.0654 369.112 68.0102 369.127 67.9466C369.142 67.8829 369.131 67.8159 369.098 67.7601C369.082 67.7322 369.06 67.708 369.034 67.6889C369.008 67.6698 368.979 67.656 368.948 67.6485C368.917 67.6411 368.885 67.6399 368.853 67.6453C368.822 67.6506 368.792 67.6623 368.765 67.6796C368.7 67.7162 367.255 68.6486 367.38 70.2939V99.9872C367.379 100.831 367.54 101.666 367.855 102.446C368.17 103.225 368.632 103.934 369.216 104.532C369.8 105.129 370.493 105.603 371.257 105.927C372.021 106.251 372.839 106.418 373.666 106.419Z" fill="white"/>
<path d="M373.537 106.548H373.598C373.658 106.541 373.713 106.511 373.754 106.465C373.794 106.419 373.816 106.359 373.816 106.298C373.816 106.236 373.794 106.177 373.754 106.13C373.713 106.084 373.658 106.055 373.598 106.047H373.537C371.987 106.046 370.501 105.418 369.404 104.301C368.308 103.184 367.691 101.669 367.689 100.088V70.1543C367.585 68.7833 368.84 67.9607 368.851 67.9607C368.878 67.9435 368.902 67.9209 368.92 67.8942C368.939 67.8676 368.953 67.8375 368.96 67.8056C368.967 67.7737 368.968 67.7406 368.963 67.7083C368.958 67.6759 368.946 67.6449 368.93 67.6171C368.913 67.5893 368.89 67.5651 368.864 67.546C368.838 67.5269 368.809 67.5132 368.777 67.5057C368.746 67.4982 368.714 67.4971 368.682 67.5024C368.65 67.5078 368.62 67.5194 368.592 67.5367C368.532 67.5732 367.076 68.5128 367.201 70.1725V100.088C367.203 101.801 367.871 103.443 369.059 104.654C370.247 105.865 371.857 106.546 373.537 106.548Z" fill="url(#paint55_linear_1_662)"/>
<path d="M366.43 95.8127H366.38C366.103 95.8157 365.836 95.7032 365.638 95.4996C365.44 95.2961 365.326 95.0183 365.322 94.727L365.243 81.3021C365.24 81.1568 365.264 81.0121 365.314 80.8765C365.364 80.7409 365.439 80.617 365.535 80.5119C365.63 80.4069 365.745 80.3227 365.871 80.2642C365.998 80.2057 366.134 80.1741 366.272 80.1711H366.326C366.394 80.1711 366.46 80.1991 366.509 80.2491C366.558 80.2991 366.586 80.3671 366.588 80.4388L366.685 95.5187C366.688 95.556 366.684 95.5936 366.673 95.6292C366.662 95.6648 366.644 95.6975 366.62 95.7252C366.596 95.7529 366.567 95.7751 366.534 95.7901C366.501 95.8052 366.466 95.8129 366.43 95.8127Z" fill="url(#paint56_linear_1_662)"/>
<path d="M365.243 81.6765C365.24 81.4835 365.264 81.2914 365.314 81.1113C365.364 80.9312 365.439 80.7667 365.535 80.6271C365.63 80.4876 365.745 80.3758 365.871 80.2981C365.998 80.2204 366.134 80.1785 366.273 80.1746H366.326C366.394 80.1745 366.46 80.2117 366.509 80.278C366.558 80.3444 366.586 80.4348 366.588 80.53L366.61 82.8731L365.258 82.8981L365.243 81.6765Z" fill="url(#paint57_linear_1_662)"/>
<path d="M365.258 82.1401L366.613 82.1206L366.628 91.4538L365.276 91.4734L365.258 82.1401Z" fill="url(#paint58_linear_1_662)"/>
<path d="M366.653 92.3291L366.685 95.476C366.686 95.5197 366.68 95.5632 366.668 95.604C366.655 95.6447 366.637 95.6819 366.613 95.7133C366.589 95.7446 366.561 95.7695 366.529 95.7866C366.498 95.8036 366.464 95.8123 366.43 95.8123H366.38C366.103 95.816 365.836 95.6784 365.638 95.4297C365.44 95.181 365.326 94.8414 365.322 94.4854L365.297 92.3475L366.653 92.3291Z" fill="url(#paint59_linear_1_662)"/>
<path d="M366.632 90.6793L366.655 92.3275L364.526 92.3572L364.503 90.709L366.632 90.6793Z" fill="url(#paint60_linear_1_662)"/>
<path d="M365.459 81.6694C365.435 81.3133 365.513 80.9588 365.675 80.6819C365.836 80.405 366.069 80.2279 366.323 80.1886H366.366C366.429 80.195 366.488 80.2361 366.529 80.3028C366.571 80.3695 366.592 80.4566 366.588 80.545L366.61 82.6432C366.61 82.7089 366.591 82.772 366.558 82.8189C366.525 82.8658 366.481 82.8929 366.434 82.8942H365.649C365.625 82.8956 365.602 82.8902 365.58 82.8784C365.558 82.8666 365.538 82.8486 365.521 82.8255C365.504 82.8025 365.491 82.7749 365.482 82.7444C365.473 82.7139 365.469 82.6811 365.469 82.6482L365.459 81.6694Z" fill="url(#paint61_linear_1_662)"/>
<path d="M366.473 92.3326C366.497 92.332 366.52 92.3373 366.542 92.3484C366.563 92.3595 366.583 92.376 366.6 92.3971C366.617 92.4181 366.63 92.4432 366.639 92.4709C366.648 92.4986 366.653 92.5284 366.653 92.5584L366.685 95.4758C366.688 95.5157 366.686 95.5562 366.677 95.5948C366.668 95.6335 366.653 95.6695 366.634 95.7007C366.614 95.732 366.59 95.758 366.562 95.7771C366.535 95.7963 366.504 95.8082 366.473 95.8122H366.43C366.176 95.7874 365.939 95.6347 365.771 95.3872C365.603 95.1396 365.518 94.8171 365.534 94.4895L365.512 92.5768C365.512 92.5165 365.531 92.4586 365.564 92.4155C365.596 92.3724 365.641 92.3476 365.688 92.3464L366.473 92.3326Z" fill="url(#paint62_linear_1_662)"/>
<path d="M366.244 94.519C366.244 94.5517 366.249 94.584 366.257 94.6139C366.266 94.6438 366.278 94.6709 366.294 94.6935C366.309 94.7161 366.327 94.7338 366.347 94.7457C366.367 94.7575 366.388 94.7632 366.409 94.7625C366.451 94.7611 366.491 94.7342 366.521 94.6876C366.55 94.6411 366.567 94.5786 366.567 94.5135V92.8093C366.567 92.7766 366.563 92.7441 366.555 92.7139C366.547 92.6836 366.535 92.6562 366.52 92.6334C366.505 92.6105 366.487 92.5927 366.467 92.5811C366.447 92.5695 366.426 92.5643 366.405 92.5658C366.384 92.5658 366.363 92.5723 366.344 92.5849C366.325 92.5974 366.307 92.6159 366.292 92.6391C366.278 92.6623 366.266 92.6898 366.258 92.7199C366.251 92.7501 366.247 92.7824 366.247 92.8148L366.244 94.519Z" fill="url(#paint63_linear_1_662)"/>
<path d="M366.244 159.725C366.312 159.725 366.378 159.697 366.426 159.647C366.475 159.597 366.502 159.529 366.502 159.458V143.484C366.504 141.661 367.206 139.913 368.453 138.624C369.701 137.335 371.393 136.61 373.157 136.608H377.887C377.955 136.608 378.021 136.58 378.069 136.53C378.118 136.48 378.145 136.412 378.145 136.341C378.145 136.27 378.118 136.203 378.069 136.153C378.021 136.103 377.955 136.074 377.887 136.074H373.157C371.255 136.074 369.431 136.855 368.086 138.245C366.741 139.634 365.986 141.519 365.986 143.484V159.458C365.986 159.529 366.013 159.597 366.061 159.647C366.11 159.697 366.175 159.725 366.244 159.725Z" fill="url(#paint64_linear_1_662)"/>
<path d="M248.808 76.7745C248.809 75.8851 249.153 75.0324 249.763 74.4035C250.374 73.7745 251.201 73.4208 252.064 73.4198H314.9C315.763 73.4208 316.591 73.7745 317.201 74.4035C317.812 75.0324 318.155 75.8851 318.156 76.7745V99.127H248.808V76.7745Z" fill="url(#paint65_linear_1_662)"/>
<path d="M323.8 76.7745C323.801 75.8851 324.144 75.0324 324.755 74.4035C325.365 73.7745 326.192 73.4208 327.056 73.4198H356.921C357.784 73.4208 358.612 73.7745 359.222 74.4035C359.833 75.0324 360.176 75.8851 360.177 76.7745V99.127H323.8V76.7745Z" fill="url(#paint66_linear_1_662)"/>
<path d="M171.673 76.7745C171.674 75.8851 172.017 75.0324 172.628 74.4035C173.238 73.7745 174.065 73.4208 174.929 73.4198H237.782C238.645 73.4218 239.472 73.7759 240.081 74.4048C240.691 75.0336 241.034 75.8857 241.035 76.7745V99.127H171.673V76.7745Z" fill="url(#paint67_linear_1_662)"/>
<path d="M139.796 81.479C140.16 81.2034 140.598 81.0553 141.047 81.0559H158.85C159.411 81.0559 159.95 81.2886 160.346 81.7029C160.743 82.1171 160.966 82.679 160.966 83.2648V99.1091H120.993C126.669 92.579 132.969 86.6716 139.796 81.479Z" fill="url(#paint68_linear_1_662)"/>
<path d="M319.92 152.039C313.107 152.039 307.065 155.301 303.426 160.287C306 153.079 312.412 147.982 319.92 147.982C327.429 147.982 333.843 153.095 336.414 160.302C332.775 155.301 326.733 152.039 319.92 152.039Z" fill="url(#paint69_linear_1_662)"/>
<path d="M320.279 179.563C325.223 179.563 329.602 177.348 332.226 173.965C331.335 176.417 329.711 178.535 327.573 180.032C325.436 181.529 322.889 182.332 320.279 182.332C317.669 182.332 315.122 181.529 312.984 180.032C310.847 178.535 309.222 176.417 308.331 173.965C310.977 177.366 315.345 179.563 320.279 179.563Z" fill="url(#paint70_linear_1_662)"/>
<path d="M103.071 152.04C96.2585 152.04 90.2201 155.302 86.5771 160.288C89.1516 153.08 95.5664 147.968 103.071 147.968C110.576 147.968 116.995 153.08 119.566 160.288C115.926 155.302 109.895 152.04 103.071 152.04Z" fill="url(#paint71_linear_1_662)"/>
<path d="M103.437 179.563C108.378 179.563 112.76 177.348 115.385 173.965C114.493 176.417 112.869 178.535 110.731 180.032C108.594 181.529 106.047 182.332 103.437 182.332C100.827 182.332 98.2802 181.529 96.1427 180.032C94.0052 178.535 92.3805 176.417 91.4894 173.965C94.1285 177.366 98.4923 179.563 103.437 179.563Z" fill="url(#paint72_linear_1_662)"/>
<path d="M67.2394 156.389C67.1928 156.288 66.3645 154.3 65.8876 155.851C65.4107 157.403 64.7258 161.499 65.8876 161.406C67.0493 161.312 68.039 159.578 67.4079 156.855" fill="#1A1A1A"/>
<g style="mix-blend-mode:multiply" opacity="0.15">
<path d="M218 181.312C308.02 181.312 381 184.267 381 187.908C381 191.548 308.035 194.503 218 194.503C127.965 194.503 55 191.548 55 187.908C55 184.267 127.99 181.312 218 181.312Z" fill="#414141"/>
</g>
<defs>
<linearGradient id="paint0_linear_1_662" x1="217.5" y1="-23.85" x2="217.5" y2="245.072" gradientUnits="userSpaceOnUse">
<stop stop-color="white"/>
<stop offset="0.37" stop-color="#FDFDFD"/>
<stop offset="0.56" stop-color="#F5F5F5"/>
<stop offset="0.71" stop-color="#E7E7E7"/>
<stop offset="0.85" stop-color="#D4D4D4"/>
<stop offset="0.96" stop-color="#BCBCBC"/>
<stop offset="1" stop-color="#B3B3B3"/>
</linearGradient>
<linearGradient id="paint1_linear_1_662" x1="212.338" y1="164.788" x2="212.338" y2="171.098" gradientUnits="userSpaceOnUse">
<stop stop-color="#161616"/>
<stop offset="0.99" stop-color="#BDBDBD"/>
</linearGradient>
<linearGradient id="paint2_linear_1_662" x1="220.144" y1="67.9436" x2="220.144" y2="183.383" gradientUnits="userSpaceOnUse">
<stop stop-color="#E9E9E9"/>
<stop offset="0.99" stop-color="#BDBDBD"/>
</linearGradient>
<linearGradient id="paint3_linear_1_662" x1="220.689" y1="67.7609" x2="220.689" y2="183.204" gradientUnits="userSpaceOnUse">
<stop stop-color="#E9E9E9"/>
<stop offset="0.99" stop-color="#BDBDBD"/>
</linearGradient>
<linearGradient id="paint4_linear_1_662" x1="220.689" y1="67.7609" x2="220.689" y2="183.204" gradientUnits="userSpaceOnUse">
<stop stop-color="#E9E9E9"/>
<stop offset="0.99" stop-color="#BDBDBD"/>
</linearGradient>
<linearGradient id="paint5_linear_1_662" x1="77.5518" y1="119.681" x2="84.4265" y2="163.439" gradientUnits="userSpaceOnUse">
<stop stop-color="#F4F4F4"/>
<stop offset="0.99" stop-color="#716E6D"/>
</linearGradient>
<linearGradient id="paint6_linear_1_662" x1="89.9439" y1="151.568" x2="68.6998" y2="141.738" gradientUnits="userSpaceOnUse">
<stop stop-color="#E9E9E9"/>
<stop offset="0.99" stop-color="#BDBDBD"/>
</linearGradient>
<linearGradient id="paint7_linear_1_662" x1="62.7572" y1="151.143" x2="79.6028" y2="151.383" gradientUnits="userSpaceOnUse">
<stop stop-color="#E9E9E9"/>
<stop offset="0.99" stop-color="#BDBDBD"/>
</linearGradient>
<linearGradient id="paint8_linear_1_662" x1="283.493" y1="119.218" x2="283.493" y2="62.6155" gradientUnits="userSpaceOnUse">
<stop stop-color="#E9E9E9"/>
<stop offset="0.99" stop-color="#BDBDBD"/>
</linearGradient>
<linearGradient id="paint9_linear_1_662" x1="283.493" y1="118.465" x2="283.493" y2="63.4651" gradientUnits="userSpaceOnUse">
<stop stop-color="#F4F4F4"/>
<stop offset="0.99" stop-color="#716E6D"/>
</linearGradient>
<linearGradient id="paint10_linear_1_662" x1="283.493" y1="121.114" x2="283.493" y2="47.6223" gradientUnits="userSpaceOnUse">
<stop stop-color="#161616"/>
<stop offset="0.99" stop-color="#BDBDBD"/>
</linearGradient>
<linearGradient id="paint11_linear_1_662" x1="341.99" y1="119.218" x2="341.99" y2="62.6155" gradientUnits="userSpaceOnUse">
<stop stop-color="#E9E9E9"/>
<stop offset="0.99" stop-color="#BDBDBD"/>
</linearGradient>
<linearGradient id="paint12_linear_1_662" x1="341.99" y1="118.465" x2="341.99" y2="63.4651" gradientUnits="userSpaceOnUse">
<stop stop-color="#F4F4F4"/>
<stop offset="0.99" stop-color="#716E6D"/>
</linearGradient>
<linearGradient id="paint13_linear_1_662" x1="341.99" y1="121.114" x2="341.99" y2="47.6223" gradientUnits="userSpaceOnUse">
<stop stop-color="#161616"/>
<stop offset="0.99" stop-color="#BDBDBD"/>
</linearGradient>
<linearGradient id="paint14_linear_1_662" x1="206.357" y1="119.218" x2="206.357" y2="62.6155" gradientUnits="userSpaceOnUse">
<stop stop-color="#E9E9E9"/>
<stop offset="0.99" stop-color="#BDBDBD"/>
</linearGradient>
<linearGradient id="paint15_linear_1_662" x1="206.357" y1="118.465" x2="206.357" y2="63.4651" gradientUnits="userSpaceOnUse">
<stop stop-color="#F4F4F4"/>
<stop offset="0.99" stop-color="#716E6D"/>
</linearGradient>
<linearGradient id="paint16_linear_1_662" x1="206.357" y1="121.114" x2="206.357" y2="47.6223" gradientUnits="userSpaceOnUse">
<stop stop-color="#161616"/>
<stop offset="0.99" stop-color="#BDBDBD"/>
</linearGradient>
<linearGradient id="paint17_linear_1_662" x1="140.101" y1="123.045" x2="140.605" y2="90.3742" gradientUnits="userSpaceOnUse">
<stop stop-color="#E9E9E9"/>
<stop offset="0.99" stop-color="#BDBDBD"/>
</linearGradient>
<linearGradient id="paint18_linear_1_662" x1="86.5949" y1="87.3267" x2="199.523" y2="106.588" gradientUnits="userSpaceOnUse">
<stop stop-color="#F4F4F4"/>
<stop offset="0.99" stop-color="#716E6D"/>
</linearGradient>
<linearGradient id="paint19_linear_1_662" x1="140.359" y1="121.13" x2="140.359" y2="47.3181" gradientUnits="userSpaceOnUse">
<stop stop-color="#161616"/>
<stop offset="0.99" stop-color="#BDBDBD"/>
</linearGradient>
<linearGradient id="paint20_linear_1_662" x1="342.169" y1="155.171" x2="297.94" y2="155.171" gradientUnits="userSpaceOnUse">
<stop stop-color="#E9E9E9"/>
<stop offset="0.99" stop-color="#BDBDBD"/>
</linearGradient>
<radialGradient id="paint21_radial_1_662" cx="0" cy="0" r="1" gradientUnits="userSpaceOnUse" gradientTransform="translate(322.379 164.648) rotate(179.321) scale(11.6441 11.9046)">
<stop stop-color="#434241"/>
<stop offset="0.99" stop-color="#BDBDBD"/>
</radialGradient>
<radialGradient id="paint22_radial_1_662" cx="0" cy="0" r="1" gradientUnits="userSpaceOnUse" gradientTransform="translate(320.064 166.702) rotate(180) scale(3.2594 3.64438)">
<stop stop-color="white"/>
<stop offset="0.99" stop-color="#BDBDBD"/>
</radialGradient>
<radialGradient id="paint23_radial_1_662" cx="0" cy="0" r="1" gradientUnits="userSpaceOnUse" gradientTransform="translate(111.996 150.096) rotate(180) scale(22.6867 23.2348)">
<stop stop-color="white"/>
<stop offset="0.99" stop-color="#BDBDBD"/>
</radialGradient>
<linearGradient id="paint24_linear_1_662" x1="96.8214" y1="149.62" x2="109.191" y2="175.467" gradientUnits="userSpaceOnUse">
<stop stop-color="#E9E9E9"/>
<stop offset="0.99" stop-color="#BDBDBD"/>
</linearGradient>
<radialGradient id="paint25_radial_1_662" cx="0" cy="0" r="1" gradientUnits="userSpaceOnUse" gradientTransform="translate(103.211 166.694) rotate(179.71) scale(12.5429 12.8997)">
<stop stop-color="white"/>
<stop offset="0.99" stop-color="#BDBDBD"/>
</radialGradient>
<radialGradient id="paint26_radial_1_662" cx="0" cy="0" r="1" gradientUnits="userSpaceOnUse" gradientTransform="translate(106.132 165.553) rotate(179.686) scale(11.5963 11.9537)">
<stop stop-color="#434241"/>
<stop offset="0.99" stop-color="#BDBDBD"/>
</radialGradient>
<radialGradient id="paint27_radial_1_662" cx="0" cy="0" r="1" gradientUnits="userSpaceOnUse" gradientTransform="translate(103.276 166.702) rotate(180) scale(3.0586 3.44371)">
<stop stop-color="white"/>
<stop offset="0.99" stop-color="#BDBDBD"/>
</radialGradient>
<linearGradient id="paint28_linear_1_662" x1="98.0908" y1="108.114" x2="82.8695" y2="108.114" gradientUnits="userSpaceOnUse">
<stop stop-color="#161616"/>
<stop offset="0.99" stop-color="#BDBDBD"/>
</linearGradient>
<linearGradient id="paint29_linear_1_662" x1="97.1262" y1="108.032" x2="83.9738" y2="108.032" gradientUnits="userSpaceOnUse">
<stop stop-color="#161616"/>
<stop offset="0.99" stop-color="#BDBDBD"/>
</linearGradient>
<linearGradient id="paint30_linear_1_662" x1="269.333" y1="132.045" x2="269.333" y2="123.494" gradientUnits="userSpaceOnUse">
<stop stop-color="#F4F4F4"/>
<stop offset="0.99" stop-color="#716E6D"/>
</linearGradient>
<linearGradient id="paint31_linear_1_662" x1="367.499" y1="129.736" x2="171.171" y2="129.736" gradientUnits="userSpaceOnUse">
<stop stop-color="#E9E9E9"/>
<stop offset="0.99" stop-color="#BDBDBD"/>
</linearGradient>
<linearGradient id="paint32_linear_1_662" x1="375.3" y1="114.992" x2="370.967" y2="115.476" gradientUnits="userSpaceOnUse">
<stop stop-color="#E9E9E9"/>
<stop offset="0.99" stop-color="#BDBDBD"/>
</linearGradient>
<linearGradient id="paint33_linear_1_662" x1="374.393" y1="110.337" x2="373.385" y2="110.432" gradientUnits="userSpaceOnUse">
<stop stop-color="#E9E9E9"/>
<stop offset="0.99" stop-color="#DD2427"/>
</linearGradient>
<linearGradient id="paint34_linear_1_662" x1="376.091" y1="125.535" x2="375.083" y2="125.631" gradientUnits="userSpaceOnUse">
<stop stop-color="#E9E9E9"/>
<stop offset="0.99" stop-color="#DD2427"/>
</linearGradient>
<linearGradient id="paint35_linear_1_662" x1="374.947" y1="115.283" x2="373.937" y2="115.371" gradientUnits="userSpaceOnUse">
<stop stop-color="#E9E9E9"/>
<stop offset="0.98" stop-color="white"/>
</linearGradient>
<linearGradient id="paint36_linear_1_662" x1="375.395" y1="119.294" x2="374.385" y2="119.381" gradientUnits="userSpaceOnUse">
<stop stop-color="#E9E9E9"/>
<stop offset="0.98" stop-color="#F6883C"/>
</linearGradient>
<linearGradient id="paint37_linear_1_662" x1="174.43" y1="119.767" x2="170.78" y2="119.767" gradientUnits="userSpaceOnUse">
<stop stop-color="#F4F4F4"/>
<stop offset="0.99" stop-color="#716E6D"/>
</linearGradient>
<linearGradient id="paint38_linear_1_662" x1="174.118" y1="119.767" x2="171.088" y2="119.767" gradientUnits="userSpaceOnUse">
<stop stop-color="#161616"/>
<stop offset="0.99" stop-color="#BDBDBD"/>
</linearGradient>
<linearGradient id="paint39_linear_1_662" x1="163.085" y1="119.767" x2="159.435" y2="119.767" gradientUnits="userSpaceOnUse">
<stop stop-color="#F4F4F4"/>
<stop offset="0.99" stop-color="#716E6D"/>
</linearGradient>
<linearGradient id="paint40_linear_1_662" x1="162.773" y1="119.767" x2="159.743" y2="119.767" gradientUnits="userSpaceOnUse">
<stop stop-color="#161616"/>
<stop offset="0.99" stop-color="#BDBDBD"/>
</linearGradient>
<linearGradient id="paint41_linear_1_662" x1="242.161" y1="119.767" x2="238.51" y2="119.767" gradientUnits="userSpaceOnUse">
<stop stop-color="#F4F4F4"/>
<stop offset="0.99" stop-color="#716E6D"/>
</linearGradient>
<linearGradient id="paint42_linear_1_662" x1="241.849" y1="119.767" x2="238.819" y2="119.767" gradientUnits="userSpaceOnUse">
<stop stop-color="#161616"/>
<stop offset="0.99" stop-color="#BDBDBD"/>
</linearGradient>
<linearGradient id="paint43_linear_1_662" x1="73.9267" y1="109.393" x2="88.2348" y2="129.536" gradientUnits="userSpaceOnUse">
<stop stop-color="#F4F4F4"/>
<stop offset="0.99" stop-color="#716E6D"/>
</linearGradient>
<linearGradient id="paint44_linear_1_662" x1="77.4478" y1="116.763" x2="89.55" y2="128.807" gradientUnits="userSpaceOnUse">
<stop stop-color="#E9E9E9"/>
<stop offset="0.99" stop-color="#BDBDBD"/>
</linearGradient>
<linearGradient id="paint45_linear_1_662" x1="139.269" y1="88.4807" x2="92.7373" y2="88.4807" gradientUnits="userSpaceOnUse">
<stop stop-color="#161616"/>
<stop offset="0.99" stop-color="#BDBDBD"/>
</linearGradient>
<linearGradient id="paint46_linear_1_662" x1="109.461" y1="80.7285" x2="128.65" y2="103.552" gradientUnits="userSpaceOnUse">
<stop stop-color="#161616"/>
<stop offset="0.99" stop-color="#BDBDBD"/>
</linearGradient>
<linearGradient id="paint47_linear_1_662" x1="85.3578" y1="112.401" x2="84.9482" y2="116.852" gradientUnits="userSpaceOnUse">
<stop stop-color="#E9E9E9"/>
<stop offset="0.99" stop-color="#BDBDBD"/>
</linearGradient>
<linearGradient id="paint48_linear_1_662" x1="74.5004" y1="112.347" x2="73.8" y2="120.957" gradientUnits="userSpaceOnUse">
<stop stop-color="#E9E9E9"/>
<stop offset="0.99" stop-color="#BDBDBD"/>
</linearGradient>
<linearGradient id="paint49_linear_1_662" x1="67.9816" y1="130.424" x2="63.7899" y2="130.424" gradientUnits="userSpaceOnUse">
<stop stop-color="#161616"/>
<stop offset="0.99" stop-color="#BDBDBD"/>
</linearGradient>
<linearGradient id="paint50_linear_1_662" x1="67.7091" y1="158.482" x2="63.2664" y2="158.482" gradientUnits="userSpaceOnUse">
<stop stop-color="#161616"/>
<stop offset="0.99" stop-color="#BDBDBD"/>
</linearGradient>
<linearGradient id="paint51_linear_1_662" x1="251.835" y1="44.834" x2="253.547" y2="61.135" gradientUnits="userSpaceOnUse">
<stop stop-color="#F4F4F4"/>
<stop offset="0.99" stop-color="#716E6D"/>
</linearGradient>
<linearGradient id="paint52_linear_1_662" x1="106.51" y1="100" x2="108.341" y2="120.059" gradientUnits="userSpaceOnUse">
<stop stop-color="#161616"/>
<stop offset="0.99" stop-color="#BDBDBD"/>
</linearGradient>
<linearGradient id="paint53_linear_1_662" x1="107.392" y1="113.39" x2="106.682" y2="90.4485" gradientUnits="userSpaceOnUse">
<stop stop-color="#161616"/>
<stop offset="0.99" stop-color="#BDBDBD"/>
</linearGradient>
<linearGradient id="paint54_linear_1_662" x1="113.506" y1="107.609" x2="108.371" y2="107.609" gradientUnits="userSpaceOnUse">
<stop stop-color="#161616"/>
<stop offset="0.99" stop-color="#BDBDBD"/>
</linearGradient>
<linearGradient id="paint55_linear_1_662" x1="373.842" y1="87.0223" x2="367.194" y2="87.0223" gradientUnits="userSpaceOnUse">
<stop stop-color="#F4F4F4"/>
<stop offset="0.99" stop-color="#716E6D"/>
</linearGradient>
<linearGradient id="paint56_linear_1_662" x1="366.688" y1="87.9953" x2="365.232" y2="88.0146" gradientUnits="userSpaceOnUse">
<stop stop-color="#161616"/>
<stop offset="0.99" stop-color="#BDBDBD"/>
</linearGradient>
<linearGradient id="paint57_linear_1_662" x1="366.598" y1="81.5391" x2="365.243" y2="81.5527" gradientUnits="userSpaceOnUse">
<stop stop-color="#161616"/>
<stop offset="0.99" stop-color="#BDBDBD"/>
</linearGradient>
<linearGradient id="paint58_linear_1_662" x1="366.671" y1="86.783" x2="365.216" y2="86.8017" gradientUnits="userSpaceOnUse">
<stop stop-color="#161616"/>
<stop offset="0.99" stop-color="#BDBDBD"/>
</linearGradient>
<linearGradient id="paint59_linear_1_662" x1="366.669" y1="94.069" x2="365.317" y2="94.0837" gradientUnits="userSpaceOnUse">
<stop stop-color="#161616"/>
<stop offset="0.99" stop-color="#BDBDBD"/>
</linearGradient>
<linearGradient id="paint60_linear_1_662" x1="366.644" y1="91.5034" x2="364.52" y2="91.5331" gradientUnits="userSpaceOnUse">
<stop stop-color="#161616"/>
<stop offset="0.99" stop-color="#BDBDBD"/>
</linearGradient>
<linearGradient id="paint61_linear_1_662" x1="366.598" y1="81.5367" x2="365.458" y2="81.548" gradientUnits="userSpaceOnUse">
<stop stop-color="#161616"/>
<stop offset="0.99" stop-color="#BDBDBD"/>
</linearGradient>
<linearGradient id="paint62_linear_1_662" x1="366.669" y1="94.0684" x2="365.529" y2="94.0807" gradientUnits="userSpaceOnUse">
<stop stop-color="#161616"/>
<stop offset="0.99" stop-color="#BDBDBD"/>
</linearGradient>
<linearGradient id="paint63_linear_1_662" x1="366.559" y1="93.6616" x2="366.237" y2="93.6645" gradientUnits="userSpaceOnUse">
<stop stop-color="#161616"/>
<stop offset="0.99" stop-color="#BDBDBD"/>
</linearGradient>
<linearGradient id="paint64_linear_1_662" x1="372.067" y1="136.074" x2="372.067" y2="159.725" gradientUnits="userSpaceOnUse">
<stop stop-color="#F4F4F4"/>
<stop offset="0.99" stop-color="#716E6D"/>
</linearGradient>
<linearGradient id="paint65_linear_1_662" x1="283.489" y1="105.389" x2="283.489" y2="56.1179" gradientUnits="userSpaceOnUse">
<stop stop-color="#161616"/>
<stop offset="0.99" stop-color="#BDBDBD"/>
</linearGradient>
<linearGradient id="paint66_linear_1_662" x1="341.99" y1="105.389" x2="341.99" y2="56.1179" gradientUnits="userSpaceOnUse">
<stop stop-color="#161616"/>
<stop offset="0.99" stop-color="#BDBDBD"/>
</linearGradient>
<linearGradient id="paint67_linear_1_662" x1="206.357" y1="105.389" x2="206.357" y2="56.1179" gradientUnits="userSpaceOnUse">
<stop stop-color="#161616"/>
<stop offset="0.99" stop-color="#BDBDBD"/>
</linearGradient>
<linearGradient id="paint68_linear_1_662" x1="140.979" y1="103.905" x2="140.979" y2="61.8197" gradientUnits="userSpaceOnUse">
<stop stop-color="#161616"/>
<stop offset="0.99" stop-color="#BDBDBD"/>
</linearGradient>
<linearGradient id="paint69_linear_1_662" x1="319.924" y1="162.711" x2="319.924" y2="139.234" gradientUnits="userSpaceOnUse">
<stop offset="0.11" stop-color="#2E2E2E"/>
<stop offset="0.24" stop-color="#333333"/>
<stop offset="0.39" stop-color="#404040"/>
<stop offset="0.55" stop-color="#575757"/>
<stop offset="0.71" stop-color="#767676"/>
<stop offset="0.88" stop-color="#9E9E9E"/>
<stop offset="0.99" stop-color="#BDBDBD"/>
</linearGradient>
<linearGradient id="paint70_linear_1_662" x1="320.659" y1="177.735" x2="321.447" y2="185.769" gradientUnits="userSpaceOnUse">
<stop stop-color="#2E2E2E"/>
<stop offset="0.99" stop-color="#BDBDBD"/>
</linearGradient>
<linearGradient id="paint71_linear_1_662" x1="103.071" y1="162.712" x2="103.071" y2="139.235" gradientUnits="userSpaceOnUse">
<stop offset="0.11" stop-color="#2E2E2E"/>
<stop offset="0.24" stop-color="#333333"/>
<stop offset="0.39" stop-color="#404040"/>
<stop offset="0.55" stop-color="#575757"/>
<stop offset="0.71" stop-color="#767676"/>
<stop offset="0.88" stop-color="#9E9E9E"/>
<stop offset="0.99" stop-color="#BDBDBD"/>
</linearGradient>
<linearGradient id="paint72_linear_1_662" x1="103.806" y1="177.735" x2="104.598" y2="185.769" gradientUnits="userSpaceOnUse">
<stop stop-color="#2E2E2E"/>
<stop offset="0.99" stop-color="#BDBDBD"/>
</linearGradient>
</defs>
</svg>
