<svg width="435" height="250" viewBox="0 0 435 250" fill="none" xmlns="http://www.w3.org/2000/svg">
<path d="M435 0H0V250H435V0Z" fill="url(#paint0_linear_17_524)"/>
<path d="M342.604 146.405L95.2424 145.83L90.6148 139.905L98.703 118.194L127.941 107.53H329.928L353.269 127.872L342.604 146.405Z" fill="#131721"/>
<path d="M76.7591 113.284L79.6138 109.46L84.8159 100.483C84.8159 100.483 87.509 96.8112 90.8799 95.33C90.8799 95.33 116.114 88.2966 149.608 86.3081L197.679 56.684C197.679 56.684 205.839 53.0124 220.93 53.0124C220.93 53.0124 287.809 52.4289 324.668 59.2604C325.646 59.4435 326.551 59.8995 327.28 60.5756L350.823 82.3807C350.823 82.3807 357.654 85.6977 358.826 90.6934L359.337 100.532L361.968 102.624V115.263L361.205 120.057L363 121.583L361.968 128.621C361.968 128.621 359.144 139.636 353.929 144.03L352.201 144.843L344.79 146.405H342.586C342.756 145.113 342.841 143.812 342.842 142.509C342.849 138.468 342.024 134.468 340.421 130.759C338.817 127.05 336.468 123.71 333.52 120.946C330.572 118.183 327.087 116.055 323.282 114.694C319.476 113.334 315.432 112.769 311.4 113.037C307.368 113.305 303.434 114.398 299.842 116.249C296.25 118.101 293.077 120.671 290.519 123.8C287.962 126.929 286.075 130.55 284.976 134.438C283.876 138.327 283.588 142.4 284.128 146.405H153.773C154.303 142.405 154.007 138.339 152.903 134.458C151.798 130.578 149.909 126.965 147.352 123.844C144.795 120.723 141.625 118.159 138.038 116.313C134.45 114.466 130.522 113.376 126.496 113.109C122.47 112.842 118.432 113.404 114.632 114.76C110.832 116.116 107.351 118.238 104.404 120.994C101.457 123.75 99.1073 127.081 97.4998 130.782C95.8923 134.483 95.0615 138.474 95.0587 142.509C95.058 143.619 95.1209 144.728 95.2472 145.83L82.8769 143.559L76.1711 127.082C75.4552 125.327 75.1187 123.441 75.1836 121.547C75.2779 118.998 75.601 115.461 76.7591 113.284Z" fill="#D3D4D2"/>
<path d="M85.197 99.9936C86.0588 98.9478 88.2671 96.4791 90.8794 95.33C90.8794 95.33 116.114 88.2966 149.607 86.3081L197.679 56.684C197.679 56.684 205.839 53.0124 220.929 53.0124C220.929 53.0124 287.808 52.4289 324.668 59.2604C325.645 59.4435 326.551 59.8995 327.28 60.5756L350.822 82.3807C350.822 82.3807 357.654 85.6977 358.825 90.6934V90.7966H335.745L121.756 96.5015L85.197 99.9936Z" fill="#D9D9D7"/>
<g style="mix-blend-mode:multiply" opacity="0.15">
<path d="M216.54 162.896C295.812 162.896 360.078 165.445 360.078 168.587C360.078 171.729 295.825 174.278 216.54 174.278C137.255 174.278 73.0023 171.729 73.0023 168.587C73.0023 165.445 137.278 162.896 216.54 162.896Z" fill="#414141"/>
</g>
<path d="M98.2995 142.509C98.2995 147.7 99.8392 152.775 102.724 157.091C105.608 161.407 109.708 164.771 114.505 166.757C119.301 168.743 124.579 169.261 129.67 168.247C134.762 167.233 139.438 164.732 143.108 161.06C146.777 157.388 149.275 152.71 150.286 147.618C151.297 142.526 150.774 137.248 148.785 132.453C146.796 127.658 143.429 123.56 139.111 120.679C134.793 117.797 129.717 116.261 124.526 116.264C117.568 116.268 110.897 119.035 105.979 123.956C101.06 128.878 98.2983 135.551 98.2995 142.509Z" fill="#29222C"/>
<path d="M124.525 116.264C129.716 116.264 134.79 117.804 139.106 120.687C143.422 123.571 146.785 127.67 148.772 132.465C150.758 137.261 151.278 142.538 150.265 147.629C149.253 152.72 146.753 157.396 143.083 161.066C139.412 164.737 134.736 167.236 129.645 168.249C124.554 169.261 119.278 168.742 114.482 166.755C109.686 164.769 105.588 161.405 102.704 157.089C99.8202 152.773 98.281 147.699 98.281 142.509C98.281 135.548 101.046 128.873 105.968 123.951C110.889 119.029 117.565 116.264 124.525 116.264ZM107.334 159.695C111.593 163.939 117.28 166.445 123.286 166.725C129.292 167.005 135.187 165.039 139.822 161.21C144.458 157.382 147.502 151.964 148.362 146.014C149.222 140.063 147.835 134.005 144.473 129.021C141.11 124.037 136.013 120.483 130.173 119.052C124.334 117.62 118.17 118.414 112.884 121.279C107.598 124.144 103.568 128.873 101.579 134.547C99.5891 140.221 99.7833 146.432 102.123 151.97C103.348 154.861 105.124 157.484 107.352 159.695H107.334Z" fill="#3F3643"/>
<path d="M124.525 122.032C128.575 122.032 132.534 123.233 135.902 125.483C139.269 127.733 141.893 130.931 143.443 134.673C144.993 138.414 145.399 142.531 144.608 146.503C143.818 150.476 141.868 154.124 139.005 156.988C136.141 159.851 132.492 161.802 128.52 162.592C124.548 163.382 120.431 162.976 116.689 161.427C112.948 159.877 109.75 157.252 107.5 153.885C105.25 150.517 104.049 146.559 104.049 142.509C104.055 137.08 106.214 131.875 110.053 128.036C113.892 124.197 119.096 122.038 124.525 122.032ZM106.702 142.509C106.712 146.904 108.355 151.139 111.31 154.392C114.266 157.645 118.325 159.685 122.699 160.115C127.074 160.545 131.452 159.336 134.985 156.721C138.518 154.106 140.955 150.273 141.821 145.963C142.688 141.654 141.924 137.177 139.677 133.399C137.429 129.622 133.859 126.813 129.659 125.519C125.458 124.224 120.927 124.535 116.943 126.393C112.959 128.25 109.807 131.52 108.097 135.569C107.178 137.767 106.709 140.127 106.72 142.509H106.702Z" fill="#3F3643"/>
<path d="M106.725 142.504C106.725 146.031 107.771 149.478 109.731 152.409C111.691 155.34 114.476 157.624 117.735 158.972C120.994 160.319 124.579 160.669 128.037 159.978C131.495 159.287 134.67 157.585 137.16 155.089C139.65 152.592 141.344 149.413 142.026 145.953C142.709 142.494 142.35 138.909 140.994 135.654C139.638 132.399 137.347 129.619 134.411 127.666C131.475 125.714 128.025 124.676 124.499 124.685C119.785 124.711 115.273 126.598 111.943 129.936C108.614 133.273 106.739 137.791 106.725 142.504Z" fill="#D0D1D2"/>
<path d="M109.911 142.504C109.911 145.399 110.769 148.229 112.378 150.635C113.987 153.042 116.273 154.918 118.948 156.025C121.623 157.132 124.566 157.42 127.405 156.854C130.243 156.288 132.851 154.893 134.896 152.845C136.942 150.796 138.334 148.187 138.897 145.348C139.459 142.508 139.167 139.566 138.057 136.892C136.947 134.219 135.068 131.935 132.66 130.329C130.251 128.723 127.42 127.868 124.525 127.872C120.651 127.888 116.941 129.436 114.203 132.177C111.466 134.918 109.923 138.63 109.911 142.504Z" fill="#29222C"/>
<path d="M109.916 144.039V140.969H115.145C115.245 140.344 115.408 139.731 115.63 139.138L111.087 136.517L112.618 133.859L117.16 136.476C117.564 135.984 118.015 135.533 118.507 135.13L115.877 130.596L118.534 129.061L121.164 133.595C121.756 133.369 122.37 133.205 122.995 133.105V127.867H126.065V133.105C126.692 133.205 127.308 133.369 127.901 133.595L130.505 129.061L133.171 130.596L130.563 135.13C131.055 135.534 131.506 135.985 131.909 136.476L136.438 133.859L137.978 136.517L133.454 139.138C133.678 139.731 133.844 140.344 133.947 140.969H139.172V144.039H133.952C133.856 144.665 133.693 145.279 133.467 145.871L137.991 148.492L136.461 151.154L131.918 148.532C131.515 149.024 131.064 149.475 130.572 149.879L133.202 154.412L130.545 155.952L127.919 151.414C127.327 151.64 126.713 151.806 126.088 151.908V157.141H123.013V151.908C122.388 151.806 121.774 151.641 121.182 151.414L118.574 155.952L115.908 154.412L118.516 149.879C118.025 149.474 117.574 149.023 117.169 148.532L112.64 151.154L111.096 148.492L115.625 145.871C115.398 145.279 115.232 144.665 115.131 144.039H109.916Z" fill="#A5A8AB"/>
<path d="M120.069 142.505C120.069 143.393 120.333 144.262 120.827 145.001C121.321 145.739 122.023 146.315 122.845 146.654C123.666 146.993 124.57 147.08 125.441 146.905C126.313 146.73 127.112 146.3 127.739 145.671C128.366 145.041 128.792 144.239 128.962 143.367C129.133 142.494 129.041 141.591 128.698 140.771C128.355 139.952 127.776 139.252 127.035 138.762C126.294 138.271 125.424 138.012 124.535 138.016C123.348 138.022 122.213 138.498 121.376 139.339C120.539 140.18 120.069 141.318 120.069 142.505Z" fill="#29222C"/>
<path d="M124.526 149.605C125.93 149.606 127.304 149.19 128.472 148.41C129.641 147.63 130.551 146.521 131.089 145.224C131.627 143.926 131.768 142.498 131.495 141.12C131.221 139.742 130.544 138.477 129.551 137.483C128.558 136.49 127.292 135.814 125.914 135.54C124.536 135.266 123.108 135.407 121.811 135.945C120.513 136.483 119.404 137.394 118.624 138.562C117.844 139.731 117.428 141.104 117.429 142.509C117.432 144.39 118.18 146.194 119.51 147.524C120.841 148.854 122.644 149.603 124.526 149.605ZM124.526 136.176C125.778 136.176 127.003 136.547 128.044 137.243C129.086 137.939 129.897 138.928 130.377 140.085C130.856 141.242 130.982 142.516 130.737 143.744C130.493 144.973 129.89 146.101 129.004 146.987C128.118 147.873 126.99 148.476 125.761 148.72C124.533 148.965 123.259 148.839 122.102 148.36C120.945 147.881 119.956 147.069 119.26 146.027C118.564 144.986 118.192 143.761 118.192 142.509C118.195 140.83 118.863 139.22 120.05 138.033C121.237 136.846 122.847 136.178 124.526 136.176Z" fill="#D0D1D2"/>
<path d="M121.945 142.504C121.945 143.018 122.097 143.521 122.383 143.949C122.669 144.376 123.075 144.709 123.55 144.906C124.025 145.102 124.548 145.153 125.052 145.053C125.557 144.952 126.02 144.704 126.383 144.34C126.746 143.976 126.993 143.513 127.093 143.008C127.193 142.504 127.141 141.981 126.943 141.507C126.746 141.032 126.412 140.626 125.984 140.341C125.556 140.056 125.053 139.905 124.539 139.905C123.852 139.909 123.193 140.184 122.707 140.671C122.221 141.158 121.947 141.816 121.945 142.504Z" fill="#CACCCE"/>
<path d="M124.526 133.2C126.368 133.199 128.168 133.744 129.699 134.766C131.231 135.789 132.425 137.242 133.13 138.943C133.835 140.644 134.02 142.516 133.662 144.322C133.303 146.128 132.417 147.787 131.115 149.09C129.813 150.392 128.154 151.279 126.348 151.639C124.543 151.998 122.671 151.814 120.969 151.11C119.268 150.405 117.814 149.212 116.791 147.681C115.768 146.15 115.222 144.35 115.222 142.509C115.224 140.041 116.205 137.676 117.949 135.93C119.693 134.185 122.059 133.203 124.526 133.2ZM116.447 142.509C116.444 143.588 116.661 144.657 117.084 145.651C117.705 147.118 118.744 148.371 120.072 149.251C121.4 150.131 122.958 150.601 124.551 150.601C126.144 150.601 127.702 150.131 129.03 149.251C130.358 148.371 131.397 147.118 132.018 145.651C132.748 143.919 132.854 141.986 132.317 140.185C131.78 138.383 130.634 136.824 129.074 135.775C127.514 134.725 125.638 134.25 123.767 134.432C121.896 134.613 120.146 135.439 118.817 136.768C118.079 137.508 117.491 138.382 117.084 139.344C116.658 140.345 116.441 141.422 116.447 142.509Z" fill="#D0D1D2"/>
<path d="M124.526 125.946C127.802 125.945 131.004 126.916 133.729 128.735C136.453 130.555 138.576 133.141 139.831 136.167C141.085 139.194 141.414 142.524 140.775 145.737C140.137 148.95 138.559 151.902 136.243 154.219C133.927 156.535 130.976 158.113 127.763 158.753C124.55 159.392 121.22 159.064 118.193 157.811C115.166 156.557 112.579 154.435 110.759 151.711C108.939 148.987 107.968 145.785 107.968 142.509C107.972 138.118 109.718 133.909 112.822 130.804C115.926 127.699 120.135 125.952 124.526 125.946ZM110.109 142.509C110.115 146.069 111.443 149.5 113.835 152.137C116.228 154.774 119.514 156.428 123.057 156.778C126.6 157.129 130.147 156.151 133.01 154.035C135.873 151.918 137.848 148.814 138.552 145.323C139.255 141.833 138.638 138.206 136.818 135.146C134.999 132.085 132.108 129.809 128.706 128.76C125.304 127.71 121.633 127.962 118.406 129.466C115.178 130.969 112.625 133.618 111.24 136.898C110.496 138.675 110.118 140.583 110.127 142.509H110.109Z" fill="#D0D1D2"/>
<path d="M287.131 142.509C287.131 147.699 288.67 152.773 291.554 157.089C294.437 161.405 298.536 164.769 303.332 166.755C308.127 168.742 313.404 169.261 318.495 168.249C323.586 167.236 328.262 164.737 331.932 161.066C335.603 157.396 338.102 152.72 339.115 147.629C340.127 142.538 339.608 137.261 337.621 132.465C335.635 127.67 332.271 123.571 327.955 120.687C323.64 117.804 318.565 116.264 313.375 116.264C309.928 116.264 306.515 116.942 303.331 118.261C300.147 119.58 297.253 121.513 294.816 123.95C292.379 126.387 290.446 129.28 289.127 132.465C287.808 135.649 287.13 139.062 287.131 142.509Z" fill="#29222C"/>
<path d="M313.375 116.264C318.565 116.264 323.64 117.804 327.955 120.687C332.271 123.571 335.635 127.67 337.621 132.465C339.608 137.261 340.127 142.538 339.115 147.629C338.102 152.72 335.603 157.396 331.932 161.066C328.262 164.737 323.586 167.236 318.495 168.249C313.404 169.261 308.127 168.742 303.332 166.755C298.536 164.769 294.437 161.405 291.554 157.089C288.67 152.773 287.131 147.699 287.131 142.509C287.13 139.062 287.808 135.649 289.127 132.465C290.446 129.28 292.379 126.387 294.816 123.95C297.253 121.513 300.147 119.58 303.331 118.261C306.515 116.942 309.928 116.264 313.375 116.264ZM296.184 159.695C300.443 163.939 306.13 166.445 312.135 166.725C318.141 167.005 324.036 165.039 328.672 161.21C333.308 157.382 336.352 151.964 337.212 146.014C338.071 140.063 336.685 134.005 333.322 129.021C329.96 124.037 324.862 120.483 319.023 119.052C313.183 117.62 307.02 118.414 301.734 121.279C296.448 124.144 292.417 128.873 290.428 134.547C288.439 140.221 288.633 146.432 290.973 151.97C292.191 154.86 293.961 157.484 296.184 159.695Z" fill="#3F3643"/>
<path d="M313.375 122.032C317.425 122.032 321.384 123.233 324.751 125.483C328.119 127.733 330.743 130.931 332.293 134.673C333.843 138.414 334.248 142.531 333.458 146.503C332.668 150.476 330.718 154.124 327.854 156.988C324.99 159.851 321.342 161.802 317.37 162.592C313.398 163.382 309.281 162.976 305.539 161.427C301.797 159.877 298.599 157.252 296.349 153.885C294.099 150.517 292.898 146.559 292.898 142.509C292.903 137.079 295.062 131.874 298.901 128.035C302.74 124.196 307.946 122.037 313.375 122.032ZM295.538 142.509C295.543 146.917 297.186 151.167 300.147 154.432C303.109 157.698 307.177 159.748 311.564 160.183C315.951 160.619 320.344 159.409 323.889 156.789C327.435 154.169 329.881 150.326 330.753 146.005C331.625 141.683 330.861 137.192 328.609 133.402C326.357 129.612 322.778 126.794 318.565 125.494C314.353 124.194 309.807 124.505 305.811 126.367C301.815 128.228 298.653 131.508 296.938 135.569C296.009 137.765 295.532 140.125 295.538 142.509Z" fill="#3F3643"/>
<path d="M295.538 142.504C295.538 146.031 296.584 149.478 298.544 152.409C300.504 155.34 303.29 157.624 306.549 158.972C309.807 160.319 313.392 160.669 316.85 159.978C320.308 159.287 323.483 157.585 325.973 155.089C328.464 152.592 330.157 149.413 330.84 145.953C331.522 142.494 331.163 138.909 329.807 135.654C328.452 132.399 326.161 129.619 323.225 127.666C320.288 125.714 316.839 124.676 313.313 124.685C308.598 124.71 304.085 126.597 300.756 129.934C297.426 133.272 295.551 137.79 295.538 142.504Z" fill="#D0D1D2"/>
<path d="M298.738 142.504C298.737 145.401 299.595 148.233 301.205 150.641C302.814 153.05 305.102 154.926 307.779 156.034C310.455 157.141 313.4 157.43 316.241 156.862C319.081 156.295 321.69 154.898 323.736 152.848C325.782 150.797 327.173 148.186 327.735 145.344C328.296 142.502 328.001 139.558 326.888 136.884C325.774 134.209 323.893 131.926 321.481 130.321C319.069 128.717 316.235 127.865 313.339 127.872C309.467 127.892 305.76 129.441 303.025 132.182C300.291 134.922 298.749 138.633 298.738 142.504Z" fill="#29222C"/>
<path d="M298.742 144.039V140.969H303.971C304.074 140.344 304.237 139.731 304.461 139.138L299.918 136.517L301.449 133.859L305.991 136.476C306.395 135.984 306.846 135.533 307.338 135.13L304.712 130.596L307.369 129.061L309.995 133.595C310.587 133.37 311.201 133.206 311.826 133.105V127.867H314.901V133.105C315.527 133.205 316.14 133.369 316.732 133.595L319.327 129.066L321.993 130.601L319.385 135.134C319.876 135.539 320.327 135.99 320.732 136.481L325.26 133.864L326.804 136.521L322.276 139.142C322.502 139.735 322.669 140.348 322.774 140.974H328.003V144.044H322.765C322.665 144.669 322.502 145.282 322.28 145.875L326.822 148.496L325.292 151.158L320.75 148.537C320.346 149.029 319.895 149.48 319.403 149.883L322.033 154.417L319.376 155.956L316.746 151.418C316.154 151.645 315.54 151.811 314.914 151.912V157.146H311.844V151.912C311.217 151.811 310.602 151.645 310.009 151.418L307.401 155.956L304.739 154.417L307.347 149.883C306.855 149.48 306.404 149.029 306 148.537L301.471 151.158L299.932 148.496L304.456 145.875C304.229 145.283 304.063 144.67 303.962 144.044L298.742 144.039Z" fill="#A5A8AB"/>
<path d="M308.9 142.504C308.9 143.393 309.164 144.262 309.658 145.001C310.153 145.739 310.855 146.315 311.677 146.654C312.499 146.992 313.403 147.08 314.274 146.904C315.145 146.729 315.945 146.299 316.572 145.668C317.198 145.038 317.624 144.236 317.794 143.363C317.964 142.491 317.871 141.587 317.528 140.768C317.184 139.948 316.604 139.249 315.862 138.759C315.121 138.269 314.25 138.01 313.362 138.016C312.176 138.023 311.041 138.499 310.205 139.34C309.369 140.181 308.9 141.318 308.9 142.504Z" fill="#29222C"/>
<path d="M313.375 149.605C314.779 149.605 316.152 149.189 317.32 148.408C318.488 147.628 319.398 146.518 319.935 145.221C320.473 143.923 320.613 142.495 320.339 141.117C320.064 139.74 319.388 138.475 318.394 137.482C317.401 136.489 316.135 135.813 314.757 135.539C313.38 135.266 311.952 135.407 310.654 135.945C309.357 136.484 308.248 137.394 307.468 138.563C306.689 139.731 306.273 141.104 306.274 142.509C306.275 144.391 307.024 146.196 308.355 147.527C309.687 148.858 311.492 149.605 313.375 149.605ZM313.375 136.176C314.627 136.176 315.852 136.547 316.893 137.243C317.935 137.939 318.747 138.928 319.226 140.085C319.705 141.242 319.831 142.516 319.586 143.744C319.342 144.973 318.739 146.101 317.853 146.987C316.967 147.873 315.839 148.476 314.61 148.72C313.382 148.965 312.108 148.839 310.951 148.36C309.794 147.881 308.805 147.069 308.109 146.027C307.413 144.986 307.041 143.761 307.041 142.509C307.043 140.83 307.71 139.219 308.898 138.032C310.085 136.844 311.695 136.177 313.375 136.176Z" fill="#D0D1D2"/>
<path d="M310.776 142.504C310.776 143.019 310.929 143.521 311.215 143.949C311.501 144.377 311.907 144.71 312.382 144.906C312.858 145.103 313.381 145.153 313.885 145.052C314.389 144.951 314.853 144.703 315.216 144.339C315.579 143.974 315.826 143.51 315.925 143.006C316.024 142.501 315.971 141.978 315.773 141.503C315.575 141.029 315.241 140.624 314.812 140.339C314.384 140.055 313.88 139.904 313.366 139.905C312.678 139.909 312.02 140.184 311.535 140.671C311.05 141.158 310.777 141.817 310.776 142.504Z" fill="#CACCCE"/>
<path d="M313.375 133.2C315.217 133.2 317.016 133.746 318.547 134.768C320.078 135.791 321.271 137.245 321.976 138.946C322.681 140.647 322.865 142.519 322.506 144.325C322.146 146.131 321.26 147.789 319.958 149.091C318.656 150.393 316.997 151.28 315.192 151.639C313.386 151.998 311.514 151.814 309.813 151.109C308.112 150.405 306.658 149.212 305.635 147.681C304.612 146.15 304.066 144.35 304.066 142.509C304.069 140.041 305.05 137.674 306.795 135.929C308.541 134.184 310.907 133.202 313.375 133.2ZM305.269 142.509C305.268 144.512 306.012 146.444 307.355 147.93C308.699 149.416 310.546 150.35 312.54 150.551C314.533 150.751 316.53 150.204 318.142 149.016C319.755 147.827 320.868 146.082 321.267 144.118C321.665 142.155 321.319 140.114 320.298 138.391C319.276 136.668 317.65 135.386 315.736 134.794C313.822 134.202 311.757 134.342 309.94 135.187C308.124 136.032 306.686 137.522 305.907 139.367C305.486 140.361 305.269 141.429 305.269 142.509Z" fill="#D0D1D2"/>
<path d="M313.375 125.946C316.651 125.945 319.854 126.916 322.578 128.735C325.302 130.555 327.426 133.141 328.68 136.167C329.935 139.194 330.263 142.524 329.625 145.737C328.986 148.95 327.409 151.902 325.093 154.219C322.777 156.535 319.826 158.113 316.613 158.753C313.4 159.392 310.069 159.064 307.043 157.811C304.016 156.557 301.429 154.435 299.609 151.711C297.789 148.987 296.817 145.785 296.817 142.509C296.822 138.118 298.568 133.909 301.672 130.804C304.776 127.699 308.985 125.952 313.375 125.946ZM298.958 142.509C298.963 146.076 300.292 149.515 302.689 152.157C305.086 154.8 308.378 156.458 311.928 156.81C315.479 157.162 319.033 156.183 321.902 154.062C324.771 151.942 326.75 148.831 327.455 145.334C328.16 141.837 327.541 138.203 325.717 135.136C323.894 132.07 320.997 129.79 317.588 128.739C314.178 127.688 310.5 127.941 307.267 129.448C304.034 130.956 301.476 133.611 300.089 136.898C299.34 138.673 298.955 140.581 298.958 142.509Z" fill="#D0D1D2"/>
<path d="M124.526 108.392C115.937 108.394 107.668 111.644 101.375 117.488C95.0825 123.333 91.2324 131.341 90.597 139.906C90.5386 139.08 90.5072 138.24 90.5072 137.396C90.5072 128.374 94.0913 119.721 100.471 113.342C106.851 106.962 115.503 103.378 124.526 103.378C133.548 103.378 142.201 106.962 148.58 113.342C154.96 119.721 158.544 128.374 158.544 137.396C158.544 138.24 158.513 139.08 158.454 139.906C157.82 131.34 153.97 123.332 147.677 117.487C141.384 111.642 133.114 108.393 124.526 108.392Z" fill="#D9D9D7"/>
<path d="M313.375 108.392C304.786 108.392 296.516 111.641 290.222 117.486C283.929 123.331 280.08 131.34 279.447 139.906C279.384 139.08 279.357 138.24 279.357 137.396C279.357 128.374 282.941 119.721 289.321 113.342C295.7 106.962 304.353 103.378 313.375 103.378C322.397 103.378 331.05 106.962 337.43 113.342C343.809 119.721 347.394 128.374 347.394 137.396C347.394 138.24 347.362 139.08 347.304 139.906C346.668 131.341 342.818 123.333 336.526 117.488C330.233 111.644 321.963 108.394 313.375 108.392Z" fill="#D9D9D7"/>
<path d="M284.227 138.029C283.801 140.803 283.773 143.623 284.146 146.405H153.773C154.145 143.623 154.118 140.803 153.692 138.029H284.227Z" fill="#323D48"/>
<path d="M358.377 138.029C357.179 140.332 355.684 142.554 353.947 144.03L352.219 144.843L344.808 146.405H342.604C342.971 143.623 342.943 140.804 342.524 138.029H358.377Z" fill="#323D48"/>
<path d="M95.3955 138.029C95.1715 139.515 95.0589 141.015 95.0589 142.518C95.0581 143.628 95.1211 144.737 95.2474 145.839L82.8771 143.568L80.6328 138.038L95.3955 138.029Z" fill="#323D48"/>
<path d="M220.93 53.0171C220.93 53.0171 287.697 52.4336 324.565 59.2471C325.609 59.4402 326.577 59.9241 327.357 60.6431L346.985 78.7228L149.608 86.3083L197.68 56.6842C197.68 56.6842 205.84 53.0171 220.93 53.0171Z" fill="#323D48"/>
<path d="M358.826 90.7966L359.333 100.532L359.93 101.003C355.073 100.941 349.283 100.631 349.283 100.631C341.28 99.9891 336.172 92.7132 336.172 92.7132C335.149 91.6046 335.746 90.7966 335.746 90.7966H358.826Z" fill="#A41E23"/>
<path d="M132.268 96.6183L166.717 94.6613C166.866 94.6526 167.014 94.6923 167.139 94.7745C167.263 94.8567 167.358 94.977 167.408 95.1174C167.459 95.2578 167.463 95.4108 167.419 95.5535C167.375 95.6962 167.287 95.821 167.166 95.9092C165.771 96.9632 164.214 97.7847 162.557 98.3419L142.672 99.6885C139.031 99.8194 135.408 99.1098 132.084 97.6148C131.977 97.5675 131.889 97.4854 131.834 97.3818C131.779 97.2782 131.761 97.1591 131.782 97.0438C131.803 96.9285 131.863 96.8238 131.951 96.7466C132.039 96.6694 132.151 96.6242 132.268 96.6183Z" fill="#323D48"/>
<path d="M247.717 78.3771L251.999 58.2686C251.999 58.2686 217.743 57.7928 206.872 58.2686C206.872 58.2686 191.193 63.0174 165.066 82.5065L247.717 78.3771Z" fill="#322A36"/>
<path d="M255.478 58.4254L253.893 78.3274L329.004 76.3705L314.223 62.6491C314.223 62.6491 276.008 58.7531 255.478 58.4254Z" fill="#322A36"/>
<path d="M164.505 81.7617C178.055 71.6581 188.742 65.6031 195.345 62.2591C202.527 58.6414 206.432 57.4385 206.593 57.3891L206.705 57.3577H206.822C210.04 57.2185 215.615 57.1467 223.394 57.1467C236.621 57.1467 251.851 57.3577 252.003 57.3577H253.121L252.888 58.4484L248.615 78.5614L248.467 79.2526L247.762 79.284L165.102 83.4045L162.09 83.5526L164.505 81.7617ZM247.717 78.3774L251.999 58.2689C251.999 58.2689 236.774 58.0579 223.403 58.0579C216.715 58.0579 210.494 58.1073 206.872 58.2689C206.872 58.2689 191.193 63.0177 165.066 82.5068L247.717 78.3774Z" fill="#131721"/>
<path d="M254.562 58.3538L254.629 57.4965H255.491C275.824 57.8196 313.936 61.6842 314.317 61.7201L314.622 61.7516L314.851 61.9625L329.628 75.6884L331.279 77.2189L329.035 77.2773L253.92 79.2298L252.901 79.2567L252.982 78.2378L254.562 58.3538ZM329.004 76.3706L314.223 62.6493C314.223 62.6493 276.008 58.7532 255.477 58.4256L253.893 78.3276L329.004 76.3706Z" fill="#131721"/>
<path d="M309.973 57.0746C318.126 56.396 326.334 56.8491 334.363 58.4211L335.283 59.7677C335.283 59.7677 333.281 60.625 323.766 66.276L309.973 57.0746Z" fill="#323D48"/>
<path d="M79.6137 109.451L84.8159 100.474C84.8159 100.474 84.9505 100.285 85.1974 99.9847L121.761 96.4927C121.761 96.4927 119.965 99.0107 114.88 101.529L106.652 103.369C106.652 103.369 102.662 104.846 101.064 106.381L79.2905 109.877L79.6137 109.451Z" fill="#EAE6C6"/>
<path d="M85.2423 103.881C84.6588 105.609 84.8204 107.225 85.6104 107.494C86.4004 107.763 87.5225 106.596 88.106 104.855C88.6895 103.113 88.5279 101.511 87.7379 101.242C86.9479 100.972 85.8303 102.157 85.2423 103.881Z" fill="#D8D6AF"/>
<path d="M89.5152 103.252C88.9721 104.855 89.1247 106.354 89.8563 106.601C90.5879 106.848 91.6248 105.757 92.1679 104.154C92.711 102.552 92.5584 101.057 91.8268 100.806C91.0951 100.555 90.0583 101.654 89.5152 103.252Z" fill="#D8D6AF"/>
<path d="M93.5951 102.691C93.0924 104.168 93.2315 105.55 93.9093 105.784C94.5871 106.017 95.5431 105.003 96.0458 103.54C96.5486 102.076 96.4094 100.676 95.7316 100.447C95.0539 100.218 94.0979 101.21 93.5951 102.691Z" fill="#D8D6AF"/>
<path d="M97.5456 102.251C97.0967 103.647 97.2044 104.945 97.8463 105.173C98.4881 105.402 99.3903 104.433 99.8616 103.037C100.333 101.641 100.203 100.344 99.5654 100.115C98.928 99.886 98.0213 100.856 97.5456 102.251Z" fill="#D8D6AF"/>
<path d="M104.947 98.1086L121.761 96.5017C121.761 96.5017 119.965 99.0198 114.88 101.538L106.652 103.378C106.652 103.378 102.662 104.855 101.064 106.39L100.701 106.448L104.947 98.1086Z" fill="#F69220"/>
<path d="M79.6137 109.451L84.8159 100.474C84.8159 100.474 84.9505 100.285 85.1974 99.9847L121.761 96.4927C121.761 96.4927 119.965 99.0107 114.88 101.529L106.652 103.369C106.652 103.369 102.662 104.846 101.064 106.381L79.2905 109.877L79.6137 109.451ZM100.786 105.815C102.527 104.262 106.275 102.866 106.441 102.804H106.477H106.518L114.678 100.977C116.69 100.017 118.555 98.7744 120.217 97.2871L85.5116 100.6C85.4173 100.721 85.3545 100.802 85.3275 100.842L80.5383 109.065L100.786 105.815Z" fill="#414141"/>
<g style="mix-blend-mode:overlay" opacity="0.3">
<path d="M84.8159 100.483C84.8159 100.483 84.9505 100.295 85.1974 99.9938L121.761 96.5017C121.247 97.1523 120.661 97.7426 120.015 98.2612L82.0554 105.245L84.8159 100.483Z" fill="white"/>
</g>
<g style="mix-blend-mode:multiply" opacity="0.21">
<path d="M240.984 94.4328L240.858 90.3931C240.859 90.2511 240.832 90.1103 240.778 89.9788C240.724 89.8473 240.645 89.7278 240.545 89.6269C240.445 89.526 240.326 89.4459 240.195 89.3909C240.064 89.336 239.923 89.3075 239.781 89.3069L225.867 89.7109C225.725 89.7205 225.587 89.7581 225.459 89.8213C225.332 89.8845 225.218 89.9722 225.125 90.0793C225.032 90.1864 224.96 90.3109 224.915 90.4456C224.87 90.5803 224.852 90.7226 224.861 90.8644L224.983 94.8816C224.983 95.1686 225.096 95.444 225.297 95.6481C225.499 95.8523 225.773 95.9688 226.06 95.9723L239.974 95.5639C240.257 95.5454 240.522 95.4165 240.711 95.2049C240.899 94.9933 240.998 94.7161 240.984 94.4328Z" fill="#414141"/>
</g>
<path d="M239.88 93.0413L225.966 93.4498C225.679 93.4474 225.404 93.3313 225.202 93.1269C225 92.9225 224.888 92.6464 224.889 92.3591L224.844 90.8644C224.834 90.7226 224.852 90.5803 224.898 90.4456C224.943 90.3109 225.014 90.1864 225.108 90.0793C225.201 89.9722 225.315 89.8845 225.442 89.8213C225.569 89.7581 225.708 89.7205 225.849 89.7109L239.764 89.3069C239.906 89.3075 240.046 89.336 240.177 89.3909C240.308 89.4459 240.427 89.526 240.527 89.6269C240.627 89.7278 240.707 89.8473 240.76 89.9788C240.814 90.1103 240.842 90.2511 240.841 90.3931L240.89 91.8923C240.909 92.1786 240.813 92.4605 240.623 92.676C240.434 92.8915 240.167 93.0229 239.88 93.0413Z" fill="#182127"/>
<path d="M358.961 93.2744L359.338 100.532L359.935 101.004C358.794 101.004 357.601 100.959 356.447 100.927C354.189 98.928 352.658 96.2366 352.093 93.2744H358.961Z" fill="#EAE6C6"/>
<path d="M335.75 90.7966H358.826L359.333 100.532L359.93 101.003C355.073 100.941 349.283 100.631 349.283 100.631C341.28 99.9891 336.172 92.7132 336.172 92.7132C335.153 91.6046 335.75 90.7966 335.75 90.7966ZM336.625 92.2958L336.652 92.3272L336.675 92.3586C336.724 92.4305 341.72 99.4056 349.328 100.021C349.552 100.021 354.306 100.281 358.713 100.371L358.264 91.3936H336.203C336.219 91.7384 336.371 92.0629 336.625 92.2958Z" fill="#414141"/>
<path d="M284.227 122.028L161.156 126.436V129.596H281.085L284.227 122.028Z" fill="#D9D9D7"/>
<g style="mix-blend-mode:multiply" opacity="0.4">
<path d="M161.48 85.7742L162.679 85.9044L161.134 103.41V134.802H231.914C232.636 134.142 235.783 131.05 239.221 124.097C242.812 116.803 247.498 103.661 249.275 82.4482L250.496 82.5515C248.701 104.029 243.938 117.355 240.262 124.743C236.223 132.823 232.677 135.758 232.529 135.879L232.363 136.014H159.932V103.378L161.48 85.7742Z" fill="#8F9495"/>
</g>
<path d="M90.7226 117.885C89.9505 121.215 88.5771 127.67 88.2 132.953C88.1842 133.157 88.0916 133.348 87.9409 133.487C87.7903 133.626 87.5926 133.703 87.3876 133.702H83.4242C82.941 133.702 82.4776 133.51 82.136 133.168C80.7895 131.79 77.7194 127.562 78.7203 118.105C78.7203 118.105 79.0794 116.498 80.2239 116.166L88.9541 115.762C89.2215 115.749 89.4882 115.799 89.7332 115.907C89.9782 116.015 90.1949 116.178 90.3662 116.383C90.5376 116.589 90.6589 116.832 90.7207 117.092C90.7826 117.353 90.7832 117.624 90.7226 117.885Z" fill="#323D48"/>
<path d="M165.057 82.4975C170.964 78.0898 176.337 74.4182 181.117 71.4288L180.246 81.7524L165.057 82.4975Z" fill="#323D48"/>
<g style="mix-blend-mode:multiply" opacity="0.2">
<path d="M95.0588 142.509C95.0581 143.619 95.121 144.728 95.2473 145.83L82.877 143.559L76.1712 127.082C75.4553 125.327 75.1188 123.441 75.1837 121.548C75.269 119.16 75.5787 115.906 76.5303 113.711H118.184C111.626 115.161 105.76 118.806 101.555 124.042C97.3506 129.279 95.0588 135.793 95.0588 142.509Z" fill="#8F9495"/>
<path d="M130.904 113.733H307.015C299.798 115.324 293.443 119.568 289.208 125.623C284.972 131.678 283.166 139.103 284.146 146.427H153.773C154.753 139.103 152.946 131.678 148.711 125.623C144.475 119.568 138.12 115.324 130.904 113.733Z" fill="#8F9495"/>
<path d="M361.968 128.622C361.968 128.622 359.144 139.636 353.929 144.031L352.201 144.843L344.79 146.405H342.586C342.756 145.113 342.841 143.812 342.842 142.509C342.838 135.8 340.546 129.292 336.345 124.061C332.145 118.829 326.286 115.186 319.735 113.733H361.968V115.286L361.205 120.08L363 121.606L361.968 128.622Z" fill="#8F9495"/>
</g>
<g style="mix-blend-mode:multiply" opacity="0.4">
<path d="M206.863 58.2686C210.485 58.107 216.706 58.0576 223.394 58.0576C236.765 58.0576 251.99 58.2686 251.99 58.2686L247.717 78.3771L165.057 82.4975C191.184 63.0129 206.863 58.2686 206.863 58.2686ZM251.102 58.9733C247.659 58.9284 234.781 58.7758 223.398 58.7758C215.723 58.7758 210.202 58.8431 206.993 58.9822C206.387 59.1753 202.531 60.4635 196.032 63.7446C189.829 66.8865 179.941 72.4792 167.427 81.6402L247.125 77.6724L251.102 58.9733Z" fill="#8F9495"/>
<path d="M314.223 62.6491L329.004 76.3705L253.893 78.3274L255.478 58.4254C276.008 58.7531 314.223 62.6491 314.223 62.6491ZM327.204 75.6927L313.909 63.3493C310.65 63.0216 275.707 59.543 256.146 59.166L254.683 77.5689L327.204 75.6927Z" fill="#8F9495"/>
</g>
<path d="M184.909 77.4526V70.3562C184.909 70.3562 184.81 69.2117 182.728 69.2117C182.728 69.2117 178.154 69.7368 176.632 71.8554C175.281 74.3386 174.37 77.0372 173.939 79.8315C173.939 79.8315 174.5 81.6269 175.771 81.5506C175.771 81.5506 180.389 81.2858 182.503 80.2265C182.521 80.2265 184.909 78.862 184.909 77.4526Z" fill="#D3D4D2"/>
<path d="M182.728 69.2117C182.911 69.2109 183.093 69.2199 183.275 69.2386C181.987 70.8006 178.298 75.6662 177.247 81.4205C176.377 81.5147 175.771 81.5506 175.771 81.5506C174.5 81.6404 173.939 79.8315 173.939 79.8315C174.369 77.037 175.28 74.3382 176.632 71.8555C178.154 69.7459 182.728 69.2117 182.728 69.2117Z" fill="#D9D9D7"/>
<defs>
<linearGradient id="paint0_linear_17_524" x1="217.5" y1="-23.85" x2="217.5" y2="245.072" gradientUnits="userSpaceOnUse">
<stop stop-color="white"/>
<stop offset="0.37" stop-color="#FDFDFD"/>
<stop offset="0.56" stop-color="#F5F5F5"/>
<stop offset="0.71" stop-color="#E7E7E7"/>
<stop offset="0.85" stop-color="#D4D4D4"/>
<stop offset="0.96" stop-color="#BCBCBC"/>
<stop offset="1" stop-color="#B3B3B3"/>
</linearGradient>
</defs>
</svg>
