<svg width="160" height="166" viewBox="0 0 160 166" fill="none" xmlns="http://www.w3.org/2000/svg">
<circle cx="84.153" cy="91" r="75" fill="#D9D9D9" fill-opacity="0.6"/>
<path d="M115.519 94.8058C113.523 94.8058 111.723 94.2709 110.016 93.1697C108.103 91.9349 106.382 90.3963 104.717 88.9075C104.423 88.6449 104.129 88.383 103.835 88.1216C102.997 87.3794 102.143 86.6288 101.317 85.9029C98.3942 83.3337 95.3721 80.6776 92.5334 77.9209C91.9094 77.315 91.4825 76.7836 91.1482 76.1979C90.1339 74.4234 90.1701 73.7226 91.3246 72.6259C91.6293 72.337 92.1766 72.1716 92.8271 72.1716C93.5702 72.1716 94.3163 72.3842 94.8742 72.7546C95.8003 73.372 97.5854 74.9887 99.3102 76.5529C100.663 77.7802 101.94 78.9392 102.846 79.6602C102.923 79.7231 103.019 79.7578 103.118 79.7585C103.201 79.7572 103.283 79.7327 103.353 79.6879C103.423 79.643 103.479 79.5795 103.515 79.5045C103.551 79.4311 103.566 79.3489 103.556 79.2676C103.547 79.1863 103.515 79.1093 103.463 79.0459C102.099 77.2995 98.7338 73.8377 97.1449 72.2514C96.4111 71.519 95.6605 70.7772 94.9342 70.0597C93.616 68.7574 92.2529 67.4111 90.9379 66.0651C89.9337 65.0372 88.9053 63.8094 89.4182 62.243C89.8014 61.0735 90.6561 60.4292 91.8247 60.4292C92.6943 60.4292 93.646 60.8049 94.4363 61.4594C95.9255 62.6928 97.2781 64.1481 98.5861 65.5536C99.0712 66.0766 99.5748 66.6173 100.078 67.1412C100.384 67.4591 100.78 67.8834 101.239 68.376C102.713 69.9547 104.731 72.1161 105.936 73.0699C106.02 73.1382 106.125 73.1758 106.233 73.1767C106.321 73.1752 106.406 73.1507 106.481 73.1055C106.556 73.0604 106.618 72.9962 106.66 72.9196C106.701 72.8439 106.722 72.7584 106.718 72.6721C106.715 72.5858 106.688 72.5022 106.64 72.4301C106.179 71.6984 105.517 70.9836 104.933 70.3521C104.61 70.0024 104.304 69.6721 104.066 69.3757C103.044 68.1061 101.943 66.8691 100.88 65.6713C99.9355 64.6103 98.9591 63.5104 98.0414 62.3965C97.6445 61.9171 97.0796 61.3063 96.423 60.599C94.8676 58.9232 92.9312 56.8382 92.3658 55.4609C91.8807 54.2786 92.2247 53.0504 93.2438 52.3321C93.7589 51.9691 94.3093 51.7852 94.879 51.7852C95.507 51.7852 96.1434 52.0057 96.7705 52.4423C97.7658 53.1342 98.5389 54.0771 99.2864 54.9886C99.5302 55.2863 99.7829 55.5941 100.04 55.89C102.695 58.9444 108.004 64.9499 110.027 67.202C110.062 67.2431 110.106 67.2761 110.155 67.2989C110.204 67.3218 110.257 67.3338 110.311 67.3343C110.381 67.3335 110.449 67.3144 110.509 67.279C110.569 67.2435 110.619 67.193 110.653 67.1324C110.686 67.0732 110.702 67.0063 110.7 66.9387C110.698 66.8711 110.678 66.8053 110.642 66.7482C109.675 65.1717 107.356 61.9546 103.936 57.4432C103.785 57.2439 103.627 57.0379 103.467 56.8258C102.486 55.5425 101.374 54.0881 100.782 52.9671C100.48 52.3682 100.48 51.7213 100.782 51.047C101.167 50.1928 101.97 49.5604 102.876 49.3963C103.023 49.3695 103.173 49.356 103.323 49.3558C103.859 49.3558 104.387 49.5322 104.891 49.8814C105.661 50.4137 106.964 52.0763 108.341 53.8359C109.267 55.0208 110.228 56.2459 111.115 57.2452C111.622 57.8185 112.785 59.332 114.016 60.9368C115.614 63.0205 117.426 65.382 118.229 66.2314C118.882 66.9207 119.596 67.2704 120.358 67.2704C120.684 67.2673 121.007 67.2076 121.312 67.094C122.424 66.694 123.027 65.7825 123.012 64.5274C122.982 62.0252 123.681 60.0222 125.149 58.4037C125.95 57.5217 127.927 56.8007 129.559 56.8007C130.172 56.8007 130.684 56.9043 131.042 57.101C132.216 57.7462 132.568 58.9294 131.958 60.188C131.779 60.5593 131.59 60.9346 131.407 61.2971C130.491 63.1171 129.544 64.9988 129.35 67.1906C129.241 68.4143 129.406 69.5944 129.567 70.7353C129.625 71.1512 129.686 71.5811 129.731 72.0045C129.832 72.9407 129.983 73.8897 130.128 74.807C130.479 77.0049 130.84 79.2778 130.531 81.5177V81.5256V81.5335C130.355 85.2635 128.208 88.1185 126.44 89.8569C124.357 91.9045 121.613 93.5547 119.096 94.2717C117.847 94.6272 116.644 94.8058 115.519 94.8058Z" fill="#6F6E6B"/>
<path d="M110.189 46.5741C113.185 48.2605 115.61 50.8562 117.129 53.9387C117.548 54.7912 117.892 55.6785 118.157 56.5905C118.368 57.3124 119.498 57.005 119.286 56.2787C117.949 51.7383 114.899 47.8956 110.78 45.5625C110.122 45.1925 109.532 46.2037 110.189 46.5737V46.5741Z" fill="#52504C"/>
<path d="M108.99 50.0267C111.643 51.5843 113.601 54.1888 114.444 57.1413C114.651 57.8649 115.781 57.5576 115.574 56.8299C114.856 54.3162 113.396 52.0032 111.399 50.3111C110.831 49.8278 110.223 49.3943 109.58 49.0155C108.929 48.6331 108.339 49.6448 108.99 50.0267Z" fill="#52504C"/>
<path d="M83.35 78.1931C84.9217 81.4636 87.5262 84.2295 90.6705 86.0363C91.5782 86.5554 92.5288 86.9953 93.5119 87.3513C93.8091 87.4594 94.1531 87.2296 94.232 86.9421C94.3202 86.6162 94.1213 86.3304 93.8232 86.2215C90.6481 85.0652 87.8169 82.8933 85.8557 80.1357C85.2869 79.3348 84.7872 78.487 84.3621 77.6013C84.2254 77.3164 83.8183 77.241 83.5608 77.3914C83.2697 77.5616 83.2133 77.9065 83.3509 78.1927L83.35 78.1931Z" fill="#52504C"/>
<path d="M86.8727 77.219C88.0391 79.5373 89.946 81.4737 92.2087 82.7381C92.8795 83.1105 93.5802 83.4264 94.3035 83.6822C94.6011 83.7885 94.9442 83.5623 95.0236 83.2734C95.1118 82.9489 94.9138 82.6596 94.6148 82.5528C91.7214 81.5236 89.2646 79.3715 87.8843 76.6285C87.7419 76.3463 87.3437 76.266 87.083 76.4186C86.7955 76.5866 86.7302 76.9363 86.8727 77.2199V77.219Z" fill="#52504C"/>
<g clip-path="url(#clip0_116_10)">
<path d="M130.017 123.419C130.017 123.419 131.114 116.077 127.098 111.814C123.594 108.093 120.463 107.104 114.084 106.815C108.156 106.545 105.41 106.795 101.489 106.815C98.974 106.827 70.7088 108.858 60.199 106.815C60.199 106.815 66.7052 109.879 81.9703 109.751C94.6433 109.646 105.332 109.804 108.597 109.861C109.195 109.871 109.791 109.854 110.386 109.81C112.362 109.663 117.799 109.472 122.26 111.284C127.82 113.546 129.515 119.587 130.017 123.419Z" fill="#231F20"/>
<path d="M124.013 123.404C124.695 119.12 121.844 115.084 117.647 114.388C113.45 113.693 109.495 116.602 108.814 120.886C108.133 125.17 110.983 129.207 115.18 129.902C119.377 130.598 123.332 127.689 124.013 123.404Z" fill="#6F6E6B"/>
<path d="M60.9979 123.403C61.6792 119.119 58.829 115.082 54.6318 114.387C50.4347 113.692 46.4799 116.601 45.7987 120.885C45.1174 125.169 47.9675 129.206 52.1647 129.901C56.3618 130.597 60.3166 127.687 60.9979 123.403Z" fill="#6F6E6B"/>
<path d="M115.002 112.052C115.002 112.052 105.996 109.498 103.115 121.119H66.7568C66.7568 121.119 64.2935 113.5 58.4456 112.946C58.4456 112.946 58.5678 113.071 58.7591 113.302C60.4185 114.344 61.7489 115.852 62.5912 117.645C63.4335 119.438 63.7522 121.441 63.5091 123.414H106.617C106.617 123.414 105.654 113.055 115.002 112.052Z" fill="#6F6E6B"/>
<path d="M75.9622 100.046C88.2647 100.631 99.716 106.429 99.716 106.429C99.716 106.429 96.2284 102.984 89.4726 100.307C82.7167 97.629 75.0448 95.4915 63.9501 98.3867C53.4594 101.124 55.4476 106.144 37.0122 105.245C36.8753 105.238 36.7391 105.269 36.618 105.335C36.4969 105.401 36.3954 105.498 36.3243 105.618C36.2531 105.738 36.2149 105.875 36.2137 106.015C36.2124 106.154 36.2483 106.292 36.3173 106.413C37.1018 107.789 37.8916 110.124 36.2983 112.562C33.7958 116.394 36.1735 122.141 36.1735 122.141H43.2103C43.2096 119.461 44.2229 116.885 46.0387 114.949C47.8546 113.013 50.3327 111.868 52.9559 111.752C51.2405 111.453 48.5791 111.613 44.6773 113.326H38.4209C38.4209 113.326 40.4241 110.642 39.7984 108.477C39.7984 108.477 46.9302 106.179 53.8123 108.605C60.6943 111.03 75.9581 112.564 85.9684 111.543C85.9684 111.543 61.947 110.393 54.6876 105.157C54.6958 105.155 61.6172 99.3703 75.9622 100.046Z" fill="#6F6E6B"/>
<line y1="-0.5" x2="4.98229" y2="-0.5" transform="matrix(0.925608 -0.378483 0.364389 0.931247 88.6481 108.314)" stroke="#53524E"/>
<path d="M80.8319 108.463L79.4248 105.014" stroke="#53524E"/>
</g>
<path d="M140.378 99C146.126 103.257 149.153 108.085 149.153 113C149.153 117.915 146.126 122.743 140.378 127C134.629 131.257 126.36 134.791 116.403 137.249C106.446 139.706 95.1506 141 83.653 141C72.1553 141 60.8602 139.706 50.903 137.249C40.9457 134.791 32.6771 131.257 26.9283 127C21.1795 122.743 18.153 117.915 18.153 113C18.153 108.085 21.1795 103.257 26.9283 99" stroke="#6F6E6B" stroke-width="2" stroke-linecap="round"/>
<g filter="url(#filter0_d_116_10)">
<path fill-rule="evenodd" clip-rule="evenodd" d="M44.9078 94.6304C49.0681 92.5673 82.9824 74.78 82.9824 43.1769C82.9824 20.9878 65.7493 3 44.4912 3C23.2331 3 6 20.9878 6 43.1769C6 74.78 39.9143 92.5673 44.0746 94.6304C44.3399 94.762 44.6425 94.762 44.9078 94.6304ZM44.4912 60.3955C53.6018 60.3955 60.9874 52.6865 60.9874 43.1769C60.9874 33.6673 53.6018 25.9582 44.4912 25.9582C35.3805 25.9582 27.9949 33.6673 27.9949 43.1769C27.9949 52.6865 35.3805 60.3955 44.4912 60.3955Z" fill="#6F6E6B"/>
</g>
<circle cx="85.653" cy="105.5" r="3.5" fill="#6F6E6B"/>
<defs>
<filter id="filter0_d_116_10" x="0" y="0" width="88.9824" height="103.729" filterUnits="userSpaceOnUse" color-interpolation-filters="sRGB">
<feFlood flood-opacity="0" result="BackgroundImageFix"/>
<feColorMatrix in="SourceAlpha" type="matrix" values="0 0 0 0 0 0 0 0 0 0 0 0 0 0 0 0 0 0 127 0" result="hardAlpha"/>
<feOffset dy="3"/>
<feGaussianBlur stdDeviation="3"/>
<feComposite in2="hardAlpha" operator="out"/>
<feColorMatrix type="matrix" values="0 0 0 0 0 0 0 0 0 0 0 0 0 0 0 0 0 0 0.25 0"/>
<feBlend mode="normal" in2="BackgroundImageFix" result="effect1_dropShadow_116_10"/>
<feBlend mode="normal" in="SourceGraphic" in2="effect1_dropShadow_116_10" result="shape"/>
</filter>
<clipPath id="clip0_116_10">
<rect width="95" height="33" fill="white" transform="translate(35.153 97)"/>
</clipPath>
</defs>
</svg>
