<svg width="1589" height="98" viewBox="0 0 1589 98" fill="none" xmlns="http://www.w3.org/2000/svg">
<path d="M1588.52 97.4185C1489 97.4185 1435.4 84.3893 1392.34 73.9164C1356.21 65.1381 1330.15 58.7966 1270.82 58.7966C1211.49 58.7966 1185.4 65.1422 1149.29 73.9164C1106.23 84.3851 1052.62 97.4185 953.114 97.4185C853.61 97.4185 799.996 84.3893 756.93 73.9164C720.804 65.1381 694.737 58.7966 635.409 58.7966C576.081 58.7966 549.994 65.1422 513.904 73.9164C470.822 84.3893 417.229 97.4185 317.705 97.4185C218.18 97.4185 164.587 84.3893 121.526 73.9164C85.42 65.1422 59.3279 58.8008 0 58.8008L0 0.00412407C99.5244 0.00412407 153.118 13.0334 196.184 23.5063C232.29 32.2722 258.377 38.6219 317.705 38.6219C377.032 38.6219 403.119 32.2722 439.225 23.5022C482.291 13.0334 535.9 0 635.409 0C734.918 0 788.527 13.0293 831.593 23.5022C867.719 32.2804 893.786 38.6219 953.114 38.6219C1012.44 38.6219 1038.53 32.2722 1074.62 23.5022C1117.68 13.0334 1171.29 0 1270.8 0C1370.31 0 1423.92 13.0293 1466.98 23.5022C1503.11 32.2804 1529.18 38.6219 1588.51 38.6219L1588.52 97.4185Z" fill="#5A606D" fill-opacity="0.9"/>
<path d="M953.114 68.7067C937.626 68.7309 922.154 68.3141 906.811 67.4595L907.285 66.1009C922.459 66.9471 937.761 67.3605 953.078 67.3378H956.309V68.7088C955.271 68.7074 954.206 68.7067 953.114 68.7067ZM302.847 68.5892C285.105 68.3047 268.975 67.5151 253.528 66.1772L254.24 64.8351C269.504 66.1566 285.435 66.9358 302.979 67.2183L302.847 68.5892ZM352.472 68.0264L352.126 66.6616C368.427 66.0269 384.536 64.7488 400.224 62.8456L401.206 64.1589C385.315 66.0867 368.999 67.382 352.487 68.0264H352.472ZM1005.82 67.0575L1005.26 65.7051C1021.41 64.6344 1037.25 62.8835 1052.51 60.481L1053.76 61.753C1038.28 64.1929 1022.22 65.9708 1005.83 67.0575H1005.82ZM1511.37 64.901C1495.56 63.1569 1480.84 60.8418 1465.07 57.6174L1466.6 56.3929C1482.18 59.5759 1496.7 61.8581 1512.29 63.5775L1511.37 64.901ZM858.56 62.6828C844.085 60.582 830.224 57.9411 813.622 54.1292L815.291 52.9356C831.72 56.7103 845.418 59.3265 859.705 61.3881L858.56 62.6828ZM206.259 59.9367C190.297 57.0526 175.923 53.6509 162.567 50.4142L164.307 49.235C177.572 52.4511 191.849 55.8321 207.663 58.6833L206.259 59.9367ZM447.035 56.3929L445.448 55.1806C455.924 52.9314 465.968 50.4884 475.687 48.1279C479.757 47.1404 483.94 46.1199 488.117 45.1283L489.832 46.3096C485.67 47.3012 481.477 48.3196 477.427 49.303C467.673 51.6697 457.588 54.1251 447.035 56.3929ZM1098.22 52.8222L1096.51 51.6368C1101.42 50.4802 1106.33 49.2845 1111.09 48.132C1120.15 45.9282 1129.53 43.6501 1139.25 41.5349L1140.86 42.743C1131.19 44.8521 1121.86 47.1219 1112.84 49.3154C1108.07 50.4575 1103.14 51.6512 1098.22 52.818V52.8222ZM1422.02 47.6682C1409.59 44.6644 1394.95 41.2216 1378.54 38.3395L1379.88 37.0819C1396.49 39.9949 1411.23 43.4728 1423.75 46.489L1422.02 47.6682ZM771.008 43.9821C754.726 40.2856 740.958 37.7292 726.421 35.6924L727.53 34.3957C742.286 36.4572 756.182 39.0466 772.662 42.7863L771.008 43.9821ZM119.658 40.5701C104.998 37.6078 89.6234 35.2651 73.7782 33.5793L74.633 32.2516C90.7014 33.9605 106.292 36.3356 121.159 39.3394L119.658 40.5701ZM533.666 37.3169L532.399 36.0429C547.807 33.5372 563.82 31.693 580.177 30.5405L580.767 31.8908C564.642 33.0271 548.855 34.8458 533.666 37.3169ZM1185.89 34.876L1184.87 33.569C1200.72 31.5674 1217.01 30.2056 1233.51 29.5035L1233.88 30.8683C1217.6 31.5593 1201.52 32.9018 1185.89 34.876V34.876ZM1331.8 32.3794C1316.54 31.1218 1300.58 30.3982 1283.01 30.1673L1283.12 28.7964C1300.88 29.0293 1317.03 29.7612 1332.48 31.0332L1331.8 32.3794ZM678.719 31.1816C664.357 30.4334 649.889 30.0684 635.409 30.089C633.486 30.089 631.552 30.089 629.654 30.1055L629.609 28.7345C631.517 28.7221 633.47 28.716 635.409 28.716C650.039 28.6962 664.656 29.0653 679.167 29.821L678.719 31.1816Z" fill="white"/>
</svg>
