<svg width="1519" height="100" viewBox="0 0 1519 100" fill="none" xmlns="http://www.w3.org/2000/svg">
<path d="M0 80.036L50.6333 70.0539C101.267 60.0719 202.533 40.1079 303.8 23.4504C405.067 7.04242 506.333 -6.68286 607.6 3.48633C708.867 13.2812 810.133 46.9705 911.4 56.7654C1012.67 66.9346 1113.93 53.2093 1215.2 56.7654C1316.47 60.0719 1417.73 80.036 1468.37 90.018L1519 100H1468.37C1417.73 100 1316.47 100 1215.2 100C1113.93 100 1012.67 100 911.4 100C810.133 100 708.867 100 607.6 100C506.333 100 405.067 100 303.8 100C202.533 100 101.267 100 50.6333 100H0V80.036Z" fill="#484F5D" fill-opacity="0.9"/>
</svg>
