<svg width="184" height="150" viewBox="0 0 184 150" fill="none" xmlns="http://www.w3.org/2000/svg">
<circle cx="100" cy="75" r="75" fill="#D9D9D9" fill-opacity="0.6"/>
<g filter="url(#filter0_d_116_11)">
<path d="M174.094 82.9368L174.612 83.0051L174.896 83.0801L175.077 83.1993L175.144 83.4655L174.941 83.9139L175.139 84.8462L174.985 85.4492L174.749 86.0665L174.45 88.0352L173.396 90.3203L172.991 91.5278L172.99 91.7748L173.038 91.992L173.179 92.4299L173.244 92.525L173.447 92.6985L173.495 92.7929L173.467 92.994L173.388 93.1333L173.293 93.2599L173.231 93.4202L173.108 93.9604L173.082 94.2209L173.135 94.5358L173.248 94.7753L173.546 95.1958L173.625 95.4494L173.556 96.0221L173.17 97.1901L172.927 97.9246L173.007 99.5322L172.774 100.228L172.76 100.423L172.81 100.604L172.924 100.768L173.278 101.047L173.731 101.829L174.119 102.027L174.449 102.142L174.742 102.364L175.229 102.92L175.71 103.62L176.096 104.388L176.307 104.723L176.833 105.371L177.043 105.709L177.163 106.093L177.336 107.066L177.605 107.951L177.673 108.379L177.685 108.813L177.645 109.274L177.403 110.308L176.664 112.201L176.463 113.204L176.363 113.708L176.372 113.94L176.464 114.218L176.391 115.164L175.89 116.32L175.202 117.209L174.573 117.347L174.253 117.095L173.555 116.764L173.239 116.524L173.089 116.32L172.917 115.937L172.802 115.761L172.752 115.778L172.22 115.424L172.193 115.336L171.84 115.463L171.27 116.05L170.92 116.088L170.522 115.93L170.164 115.84L169.912 115.97L169.823 116.464L169.71 116.825L169.425 117.007L169.081 116.997L168.785 116.784L168.432 116.637L168.007 116.833L167.802 117.026L167.335 117.463L166.613 117.876L165.88 117.75L164.332 117.063L163.693 117.007L163.02 117.112L162.38 117.366L161.846 117.762L161.644 118.111L161.343 118.966L161.115 119.207L160.834 119.185L159.936 118.886L159.652 118.747L159.439 118.469L159.264 118.132L159.031 117.941L158.425 118.197L157.346 118.427L156.735 118.247L156.204 117.673L155.789 116.945L155.519 116.302L155.515 116.302L155.169 115.203L155.119 114.821L155.013 114.395L154.78 114.427L154.509 114.702L153.956 115.407L153.714 115.63L152.979 115.971L152.427 116.227L151.828 116.667L151.668 117.199L151.319 117.687L150.851 118.067L150.347 118.268L150.155 118.252L149.405 118.041L149.13 118.11L148.999 118.35L148.891 118.632L148.693 118.821L148.309 118.775L146.797 118.053L145.357 117.561L144.925 117.355L144.92 117.356L144.614 117.06L144.309 116.837L143.971 116.694L143.565 116.64L142.914 116.45L141.597 115.897L140.963 115.736L140.783 115.754L140.346 115.856L140.197 115.85L140.039 115.705L139.999 115.384L139.835 115.242L139.482 115.209L139.053 115.319L138.305 115.662L137.879 115.998L137.74 116.056L137.522 116.037L137.388 115.954L137.279 115.857L137.135 115.796L136.817 115.735L136.687 115.731L136.654 115.73L136.193 115.805L136.061 115.766L135.946 115.681L134.449 114.941L133.81 114.798L133.104 115.1L132.628 115.201L132.292 115.444L131.016 116.787L130.601 117.09L130.275 117.177L130.121 117.064L130.065 116.891L130.041 116.692L129.983 116.504L129.807 116.377L129.615 116.45L129.418 116.553L129.229 116.522L128.041 115.759L127.716 115.433L127.419 114.653L127.403 112.954L127.166 112.192L126.844 111.874L125.155 111.141L124.927 111.086L123.374 111.884L122.528 112.455L121.831 112.927L121.473 113.08L121.087 113.004L120.732 113.02L120.422 113.36L120.173 113.732L120.134 113.789L119.828 114.067L119.141 114.353L118.834 114.392L116.899 114.081L116.239 113.517L116.158 112.731L116.018 112.05L115.185 111.795L114.727 111.89L113.624 112.455L113.1 112.46L113.035 112.157L113.025 111.809L112.655 111.666L112.393 111.657L112.133 111.611L111.638 111.413L111.424 111.018L111.26 110.554L110.921 110.149L110.435 109.932L109.384 109.692L108.876 109.45L108.873 109.448L108.62 109.112L108.295 109.072L107.971 109.226L107.716 109.465L107.486 109.492L104.96 109.067L104.677 108.908L104.51 108.429L104.639 107.89L104.876 107.338L105.029 106.824L105.049 105.905L104.918 105.035L104.64 104.201L104.225 103.404L103.631 102.691L102.986 102.326L97.0046 101.833L96.5331 101.593L96.0946 101.084L95.8505 100.676L95.5541 100.491L94.9456 100.652L94.7477 100.612L94.4728 100.077L94.2609 99.8849L93.7506 99.7372L93.5182 99.6294L93.3067 99.4524L93.1753 99.0416L92.8073 98.9951L92.4166 99.2037L91.5084 100.585L91.1041 100.924L90.4565 101.014L89.6274 100.949L89.3546 100.887L89.3352 100.895L88.8957 101.073L87.9555 101.234L87.5744 101.431L87.787 101.78L88.4338 102.377L88.5056 102.586L88.61 102.811L88.6235 102.998L88.4296 103.095L88.3203 103.196L88.1963 103.427L88.1678 103.403L88.0474 103.303L87.0742 103.056L84.0925 101.819L82.547 101.409L80.2817 101.331L78.3614 101.505L77.8483 101.747L77.7669 101.98L77.7524 102.264L77.8191 102.526L78.1704 102.918L78.1693 103.196L78.0586 103.497L77.6827 104.198L77.3744 104.581L76.9988 104.844L76.5431 104.912L76.0582 104.794L75.8297 104.586L75.6691 104.277L75.3903 103.865L75.1094 103.602L74.011 102.846L73.2289 102.623L70.7328 102.89L69.4082 102.7L68.4186 102.265L67.8914 102.152L65.3395 102.234L64.8286 101.748L64.5204 100.9L64.1535 99.2039L63.8167 98.346L63.4049 97.8073L63.2818 97.7719L62.8202 97.6395L60.3132 98.5594L58.5878 98.9346L57.7717 98.7666L56.5573 97.7553L54.8955 97.1212L52.2569 95.3464L51.3311 95.0834L50.9627 94.9166L50.5402 94.5476L50.0961 94.2401L50.0666 94.2333L49.5813 94.1231L48.5228 94.1227L47.9457 94.4487L47.2191 95.502L46.7838 95.8715L46.217 95.884L45.6156 95.6025L45.0078 95.2345L43.9277 94.7478L43.0296 93.9579L42.5557 93.6407L42.0581 93.5137L41.0052 93.3757L40.5722 93.1041L40.5668 93.1022L40.2608 92.7051L39.8179 92.4536L37.9186 91.7028L37.5823 91.4832L37.4754 91.2769L37.4292 91.0386L37.3002 90.7171L36.9933 90.3201L36.5876 89.9593L36.1216 89.6887L35.6385 89.5691L35.3303 89.643L35.2195 89.8676L35.1623 90.1613L35.0022 90.4497L34.7226 90.6285L34.3884 90.7182L34.1563 90.6365L34.1891 90.3026L33.8474 90.2535L33.701 90.0888L33.7636 89.8918L34.0612 89.7347L33.7283 89.206L32.4072 87.9586L32.0657 87.3436L31.5133 86.0118L31.038 85.518L30.5358 85.3131L28.4697 85.1258L27.4987 85.0377L27.3261 84.8023L27.2595 84.5189L27.163 84.2781L26.9088 84.1646L26.6028 84.3036L26.2071 84.3332L25.7939 84.2924L25.455 84.2175L25.0478 83.9794L24.9173 83.6642L24.8522 83.3197L24.6519 82.9897L24.3478 82.8897L23.5106 82.9705L23.1235 82.9354L22.7609 82.7602L21.9011 82.0229L21.5432 81.8314L20.8857 81.7139L20.5187 81.582L20.2788 81.3341L19.7966 80.601L19.5183 80.4391L18.7468 80.3774L18.3845 80.2927L18.0029 80.1415L17.8473 79.9703L17.8364 79.7533L17.8501 79.5488L17.7711 79.4183L17.3328 79.4476L16.9876 79.4707L16.6009 79.7407L16.4298 80.0774L16.4145 80.4807L16.7342 81.9367L16.6633 82.2523L16.2407 82.0745L15.274 81.1196L14.8805 80.9359L14.469 80.9556L14.0869 81.1011L13.6979 81.1967L13.2717 81.0693L13.0103 80.7998L12.3389 79.7074L12.1697 79.5913L11.7891 79.5373L11.6145 79.4736L11.4412 79.3161L11.1911 78.9656L11.06 78.8274L10.6946 78.6477L9.96263 78.5952L9.55842 78.495L9.23971 78.292L8.46744 77.4491L7.76816 77.1259L7.58462 77.1074L7.20401 77.0689L6.7986 76.8083L6.57946 75.8775L6.54986 75.4087L6.56503 74.9819L6.66106 74.5767L6.87678 74.1728L7.16849 73.8899L7.49293 73.6806L7.76163 73.4241L7.89483 73.0048L7.8944 73.0005L7.75316 72.244L7.821 71.1903L8.13202 70.2666L8.73276 69.8978L9.08563 69.9106L9.51231 69.8718L9.89359 69.7185L10.1164 69.3855L10.0279 69.0318L9.58918 68.0921L9.65887 67.7437L10.0067 67.6624L10.2842 67.8388L10.483 67.8647L10.751 66.2945L10.7797 65.7451L10.6812 65.3116L10.5185 65.1971L10.3316 65.2247L10.1534 65.2115L10.0175 64.9812L9.77399 64.054L9.26552 63.3341L9.07882 62.9577L9.11782 62.5355L9.31883 62.3487L9.89471 62.0948L9.99583 61.8685L10.023 61.562L10.147 61.3955L10.3177 61.2458L10.4795 60.9866L10.4855 60.9828L10.8639 60.6296L11.0213 60.4325L11.1459 60.2075L11.1426 60.0877L11.0768 59.9626L11.0329 59.8219L11.0907 59.6527L11.1936 59.551L11.4332 59.3881L11.5407 59.2896L11.9496 58.7271L12.1444 58.2204L12.1249 57.7031L11.8764 57.1109L11.5356 56.5125L11.2828 55.9431L11.2217 55.349L11.457 54.6721L11.9497 54.182L13.135 53.733L13.5336 53.3254L14.4474 51.9032L14.8283 51.1254L15.0166 50.2539L15.1497 49.8343L15.4366 49.6331L16.164 49.4653L16.5423 49.3028L16.7853 49.1096L17.267 48.5522L17.9457 47.9813L18.1262 47.7392L18.6407 46.6969L18.896 46.3699L20.0314 45.3119L20.3753 44.6547L20.0427 44.0548L20.3 43.7471L20.6152 43.2826L20.9174 43.0096L21.1456 43.279L21.3844 43.6749L21.751 43.7281L23.0796 43.1235L23.239 43.0979L23.4722 43.2662L23.775 43.6311L24.0549 44.0669L24.3914 44.8048L24.9372 45.5351L25.1281 45.8778L25.4402 46.8909L25.4523 46.9299L25.7378 47.1207L26.272 46.9292L26.7511 46.8705L27.7426 47.2166L28.1899 47.0839L28.3697 46.7278L28.2727 46.0734L28.5351 45.85L28.883 45.7028L29.0664 45.5326L29.0839 45.481L29.1495 45.2878L29.1936 44.9168L29.1481 44.7595L28.945 44.4106L28.9405 44.237L29.1441 44.0561L29.4594 44.0015L29.7937 43.9865L30.0525 43.9204L30.3536 43.6586L30.5621 43.3128L30.6718 42.9143L30.6916 42.1713L30.9052 41.7144L30.9537 41.4838L30.9145 41.2839L30.746 40.9187L30.6949 40.715L30.593 39.8935L30.6277 39.5129L30.8104 39.1532L30.8824 38.8167L30.7969 38.4491L30.8204 38.1382L31.2144 37.9735L31.6121 38.0927L32.4344 38.752L32.8703 38.9335L33.4155 38.9628L33.6383 38.8557L33.7784 37.9287L33.8584 37.7253L34.001 37.6141L34.3824 37.5061L34.6443 37.3523L34.7321 37.142L34.7751 36.9312L34.8937 36.7731L35.3455 36.6655L35.8026 36.7615L38.3994 37.6466L38.8531 37.7171L39.3046 37.5948L39.7234 37.3897L40.1575 37.2752L41.0691 37.5692L41.7644 37.4436L42.1755 37.4838L42.3701 37.5971L42.6494 37.9197L42.8035 38.0321L43.0075 38.0462L43.1969 37.9574L43.3852 37.8366L43.572 37.753L44.4286 37.61L44.9104 37.61L45.2447 37.7463L45.3714 38.0987L45.2789 39.4724L45.4 40.0902L45.6632 40.4764L46.0642 40.704L46.6174 40.8429L46.9595 41.1096L46.908 41.5686L46.5186 42.5064L46.5735 42.8235L46.7556 43.3043L46.993 43.7624L47.2094 44.0081L47.6325 44.0297L47.9847 43.8525L48.3556 43.7458L49.3336 44.2355L49.7538 44.2587L50.1729 44.2195L50.6418 44.2919L50.8249 44.4181L51.1071 44.7808L51.2884 44.9L51.6293 44.92L51.9389 44.8403L52.2516 44.8117L52.5851 44.9805L52.887 45.3045L53.2462 45.5974L53.6438 45.8346L54.047 45.9977L55.0666 46.2071L55.4469 46.386L57.2076 48.1851L57.5874 48.4029L57.8019 48.3741L58.2086 48.1991L58.4212 48.1927L58.6753 48.3252L58.6986 48.5161L58.6288 48.7564L58.5977 49.043L58.825 49.422L60.1584 50.2686L60.5968 50.8198L60.8415 51.0093L61.0994 51.1161L61.3547 51.1745L61.5804 51.29L61.748 51.5609L62.0804 51.9569L62.4918 51.7648L62.9194 51.3701L63.3034 51.1593L63.5043 51.2291L63.8367 51.5496L64.0172 51.6609L64.2281 51.6693L64.675 51.5554L64.9156 51.5754L66.1809 52.4783L66.3681 52.7001L66.702 53.2389L66.9321 53.3873L67.2288 53.3377L67.3263 53.0743L67.3527 52.7405L67.428 52.48L67.5636 52.4067L68.0896 52.2189L68.5615 52.1196L68.8086 52.1061L69.0519 52.174L69.3529 52.3606L69.4388 52.4746L69.5435 52.7771L69.6089 52.878L69.777 52.9602L70.135 53.0447L70.2961 53.1201L70.8191 53.5576L71.0186 53.8482L71.1039 54.1925L71.0535 54.3937L70.9459 54.5335L70.8539 54.7011L70.8497 54.9805L71.242 55.4539L72.5218 55.0434L73.1344 55.5551L73.2289 55.9697L73.2104 56.3198L73.2765 56.6103L73.9447 57.0587L74.0146 57.3123L74.0198 57.5996L74.1515 57.9156L74.4169 58.1192L74.6904 58.2234L74.9197 58.3757L75.1697 59.015L75.4142 59.1902L76.0006 59.3635L76.3845 59.5788L76.6159 59.9116L76.8971 60.7667L76.9895 61.2672L77.0637 61.4973L77.2186 61.6726L77.4787 61.7494L78.0049 61.7675L78.2405 61.9281L78.4955 62.0497L79.3405 62.123L79.6452 62.1092L79.9533 61.9456L79.9731 61.935L80.0916 61.5934L80.1397 61.1769L80.2515 60.7794L80.6281 60.3324L81.106 60.1104L81.6275 60.038L82.1488 60.0383L82.6042 59.9341L83.4715 59.3951L83.9426 59.2024L84.0829 59.1124L84.2261 58.7844L84.3374 58.6498L84.9524 58.4149L85.3301 58.3213L85.5834 58.295L85.8432 58.3349L86.0433 58.417L86.1835 58.5836L86.267 58.8877L86.507 58.7278L86.7586 58.6323L87.0014 58.6628L87.2093 58.8877L87.5171 59.1429L87.8749 59.043L88.2479 58.8503L88.6097 58.8229L88.824 59.0278L89.0134 59.6458L89.182 59.8836L89.4671 59.9221L89.7886 59.8427L90.0678 59.8533L90.2271 60.1691L90.1337 60.5684L89.8946 60.9608L89.7395 61.3631L89.901 61.797L90.3971 62.198L90.5378 62.349L90.6315 62.5636L90.8216 63.2848L91.3139 63.5199L91.7858 63.6233L92.0373 63.9014L91.7299 65.9337L92.1704 66.5125L92.4042 66.8197L93.5033 67.3265L94.9208 67.4774L95.1824 67.5579L95.4107 67.7205L95.8039 68.2552L96.2747 68.5849L96.4678 68.7788L96.8816 69.811L97.1924 70.2356L97.7164 70.3377L98.1816 70.2781L98.5449 70.3932L98.8985 70.5619L99.3182 70.6678L100.469 70.745L100.663 70.832L100.9 71.2195L101.056 71.3745L101.471 71.483L101.865 71.5243L102.125 71.69L102.125 72.7739L102.411 72.9387L103.351 72.8911L103.759 73.0552L104.355 73.6157L104.737 73.8643L105.01 73.9457L105.258 73.9549L106.381 73.7708L106.633 73.7893L106.98 73.8659L107.205 73.8749L107.398 73.7905L107.546 73.6283L107.747 73.0589L107.856 72.9075L108.432 72.5163L108.617 72.446L108.78 72.3451L108.898 72.1438L109.054 71.7235L109.168 71.5122L109.294 71.3674L109.75 71.2139L110.177 71.3358L110.982 71.7899L112.016 72.0102L112.187 72.2693L112.076 73.4498L112.03 73.647L111.926 73.8693L111.789 73.9976L111.452 74.179L111.347 74.3589L111.329 74.497L111.37 74.9309L111.276 75.2539L110.781 75.6246L110.679 75.8645L110.971 77.1114L111.015 77.5613L111.006 78.2578L111.002 78.5593L111.182 78.8836L111.659 79.1127L112.165 79.0689L112.562 78.8222L112.942 78.7038L113.658 79.2396L114.045 79.3546L114.451 79.402L114.784 79.3917L115.054 79.2974L115.598 78.9815L115.83 78.9186L116.111 79.016L116.316 79.1985L116.549 79.3487L116.904 79.3502L117.201 79.1737L117.63 78.5995L117.895 78.3948L118.227 78.3473L118.546 78.43L119.17 78.6721L119.608 78.5466L120.079 78.4925L120.555 78.5043L121.008 78.5762L121.449 78.8166L121.752 79.0743L122.014 79.041L122.487 78.1377L122.634 77.9877L123.051 77.7866L123.179 77.6378L123.182 77.4339L123.155 77.2123L123.201 77.0175L123.478 76.9358L123.631 77.4284L123.769 78.4481L124.151 79.0097L124.587 79.4749L125.081 79.8517L125.65 80.1477L126.592 80.4645L127.055 80.6872L127.399 81.0158L127.498 81.2484L127.644 81.7462L128.046 82.1866L128.108 82.3988L128.105 82.6232L128.145 82.8998L128.358 83.4176L128.607 83.7089L129.386 84.2755L129.686 84.6757L129.724 85.1215L129.679 85.5924L129.713 86.0668L130.005 86.615L130.377 86.722L131.31 86.5188L131.825 86.5227L131.889 86.5055L132.032 86.4672L132.304 86.3069L132.883 85.5976L132.99 85.4951L132.954 85.2556L132.835 85.1054L132.686 84.9809L132.567 84.8155L132.531 84.5627L132.572 84.3582L132.555 84.1714L132.356 83.9799L132.356 83.9763L132.354 83.9765L132.133 83.8531L132.088 83.7224L132.112 83.5717L132.093 83.3801L132.144 82.982L132.148 82.858L132.065 82.684L131.799 82.3613L131.746 82.1327L133.345 80.1176L133.762 80.1578L134.011 80.5865L134.091 81.1564L134.006 81.6289L133.871 82.0361L133.938 82.2475L134.106 82.4068L134.281 82.6515L134.488 83.3061L134.658 83.5679L134.977 83.7128L134.98 83.7136L134.99 83.7173L135.413 83.7953L135.836 83.7978L136.234 83.85L136.599 84.0767L137.141 84.6406L137.349 84.7617L137.553 84.7797L137.711 84.6968L137.867 84.5912L138.054 84.5426L138.248 84.6193L138.994 85.125L139.41 85.2479L139.684 85.199L140.394 84.7395L140.809 84.4594L141.052 84.0973L141.137 83.6473L141.078 83.1119L141.032 82.7092L141.131 82.4329L141.284 82.1858L141.405 81.8602L141.419 81.5102L141.393 81.1397L141.418 80.7928L141.585 80.5171L141.905 80.4281L142.203 80.5981L142.51 80.8357L142.84 80.9478L143.135 80.8439L143.551 80.3909L143.793 80.2351L144.165 80.2241L144.581 80.3451L144.974 80.55L145.287 80.7828L145.401 81.052L145.392 81.7481L145.578 82.0427L146.216 82.198L147.649 81.993L148.261 82.3947L148.261 82.3983L148.494 82.9346L148.862 83.2804L149.326 83.445L149.854 83.4394L150.454 83.2788L150.689 83.1803L150.82 83.1253L151.168 83.1134L151.707 83.3714L152.417 83.9897L153.677 85.3468L154.522 85.6987L155.06 85.6752L156.087 85.4518L157.295 85.6481L157.745 85.3131L158.152 84.8601L158.703 84.5989L159.156 84.6893L159.092 85.011L158.894 85.4192L158.928 85.767L159.288 85.7204L161.051 85.0277L161.827 84.7533L162.172 84.6817L162.586 84.7545L162.692 84.8555L162.789 85.0317L162.915 85.2098L163.097 85.3272L163.438 85.3028L164.039 84.8965L164.336 84.7717L164.832 84.8099L165.226 84.9222L165.692 85.0547L166.225 84.9524L166.8 84.6027L167.236 84.117L167.565 83.5265L167.819 82.8629L168.023 82.4801L168.239 82.4177L168.658 82.6017L170.268 82.5184L170.492 82.5656L170.947 82.7423L171.198 82.7691L171.466 82.6931L171.982 82.4211L172.221 82.3698L172.703 82.4803L173.628 82.8802L174.094 82.9368Z" fill="#62615D" fill-opacity="0.9" shape-rendering="crispEdges"/>
</g>
<path fill-rule="evenodd" clip-rule="evenodd" d="M159.537 105.154C160.966 104.373 165.067 101.777 165.375 97.5412C165.621 94.1561 163.264 91.2265 160.112 90.9976C156.959 90.7688 154.204 93.3274 153.959 96.7124C153.651 100.946 157.311 104.105 158.606 105.085C158.879 105.291 159.236 105.318 159.537 105.154ZM159.428 100.324C160.779 100.422 162.008 98.7551 162.113 97.3044C162.218 95.8537 161.209 94.5981 159.857 94.5C158.506 94.4019 157.326 95.4985 157.22 96.9492C157.115 98.4 158.077 100.226 159.428 100.324Z" fill="white"/>
<circle cx="160.065" cy="112.168" r="1.5" transform="rotate(4.15213 160.065 112.168)" fill="white"/>
<path fill-rule="evenodd" clip-rule="evenodd" d="M38.3634 69.4941C39.8317 68.715 44.2062 66.0242 44.5416 61.4718C44.8075 57.8617 42.3307 54.7368 39.0094 54.4921C35.6882 54.2474 32.7801 56.9756 32.5142 60.5857C32.1788 65.1381 36.1117 68.4409 37.4499 69.4268C37.7196 69.6254 38.0675 69.6511 38.3634 69.4941ZM38.2691 64.5409C39.6925 64.6458 40.9912 62.7658 41.1052 61.2186C41.2191 59.6714 40.1576 58.3322 38.7342 58.2273C37.3108 58.1225 36.0645 59.2917 35.9506 60.8389C35.8366 62.386 36.8457 64.4361 38.2691 64.5409Z" fill="white"/>
<circle cx="38.4465" cy="75.4118" r="1.5" transform="rotate(4.21346 38.4465 75.4118)" fill="white"/>
<path d="M40.6097 74.4028L154.768 109.459" stroke="white" stroke-width="2" stroke-linecap="square" stroke-dasharray="5 4"/>
<path d="M69.1352 68.5437C70.9327 62.993 76.5421 59.9511 81.5429 61.5706C86.5445 63.1903 89.3055 68.9445 87.5082 74.4945C85.711 80.0442 80.1009 83.0859 75.0999 81.4664C70.0991 79.847 67.3377 74.0944 69.1352 68.5437ZM72.537 69.995C71.5593 73.0143 73.1441 76.2913 76.1455 77.2633C79.1468 78.2352 82.3515 76.5103 83.3296 73.4901C84.3076 70.47 82.7229 67.193 79.7214 66.221C76.7197 65.249 73.5147 66.976 72.537 69.995Z" fill="white" stroke="#71706D" stroke-width="2"/>
<path d="M123.218 91.5449L124.17 91.853L124.198 91.7667C126.888 92.1274 129.531 90.4655 130.403 87.7719C131.381 84.7517 129.796 81.4746 126.794 80.5026C123.793 79.5306 120.588 81.2576 119.61 84.2767C118.632 87.296 120.217 90.5729 123.218 91.5449ZM116.208 82.8253C118.006 77.2746 123.615 74.2327 128.617 75.8525C133.617 77.4719 136.378 83.2269 134.581 88.7752C132.785 94.3236 127.176 97.3672 122.174 95.7475C117.172 94.1277 114.411 88.3759 116.208 82.8253Z" fill="white" stroke="#71706D" stroke-width="2"/>
<path d="M140.448 88.9579L141.536 87.8074C142.658 86.6195 143.5 85.1951 144 83.639L144.001 83.6367L144.283 82.7647C145.847 77.9349 143.903 72.9996 140.148 71.0446L139.514 70.7149L139.621 70.0088C140.307 65.4465 138.424 60.4546 134.474 55.9612C130.533 51.4775 124.599 47.5776 117.416 45.2514C110.485 43.0069 103.638 42.6317 97.9362 43.7965C92.2214 44.964 87.7517 47.653 85.3979 51.4467L84.9977 52.0917L84.2688 51.8797C82.0383 51.2309 79.7484 50.8073 77.4334 50.6152L77.4113 50.6133L77.3892 50.6105C73.8274 50.1548 69.5426 49.9322 65.9061 50.6523C62.2568 51.3749 59.5266 52.9811 58.5594 55.9677C57.6927 58.644 57.3454 60.5365 57.2862 61.8616C57.2269 63.1914 57.4608 63.8725 57.6699 64.2062C57.8611 64.5111 58.0785 64.6025 58.2382 64.6382C58.3279 64.6583 58.4076 64.6614 58.4613 64.6597C58.4835 64.659 58.4994 64.6575 58.5074 64.6566L58.8436 64.5897L59.1614 64.7623L65.4536 68.1794C65.5197 67.9263 65.5923 67.6749 65.6712 67.4254L65.6733 67.419C68.0818 59.9815 75.6709 55.6364 82.7248 57.9207C89.7791 60.2051 93.3785 68.1785 90.9701 75.6157L90.9692 75.6184C90.7119 76.405 90.3915 77.1688 90.0113 77.9023L112.042 85.3815C112.124 84.1346 112.36 82.9007 112.745 81.7082L112.745 81.7074C115.154 74.27 122.742 69.9246 129.796 72.2091C136.851 74.4936 140.451 82.4618 138.043 89.8991M140.448 88.9579L136.252 91.636C136.584 90.9782 136.865 90.2948 137.092 89.5918L138.043 89.8999C138.043 89.8996 138.043 89.8994 138.043 89.8991M140.448 88.9579L141.954 89.4456L144.291 90.2023M140.448 88.9579L144.291 90.2023M138.043 89.8991C137.931 90.2483 137.805 90.593 137.668 90.9326L139.168 90.1879L139.533 90.0066L139.92 90.1322L143.897 91.4199L144.291 90.2023M138.043 89.8991L144.291 90.2023M115.666 62.5626L116.631 62.8962L116.945 61.9257L120.724 50.2572L121.004 49.3924L120.169 49.0314C119.177 48.6016 118.126 48.2006 117.009 47.8389C108.388 45.047 101.952 46.1917 97.6452 48.0974C95.5023 49.0455 93.9042 50.1736 92.8364 51.0713C92.3023 51.5204 91.8998 51.9126 91.6269 52.1974C91.4905 52.3398 91.3863 52.4555 91.3142 52.5382C91.2781 52.5795 91.25 52.6126 91.2299 52.6367L91.2058 52.6659L91.1981 52.6753L91.1954 52.6787L91.1944 52.68C91.1939 52.6806 91.1935 52.6811 91.9743 53.3059L91.1935 52.6811L90.3081 53.7875L91.6472 54.2509L115.666 62.5626ZM117.366 62.1136L117.063 63.0464L117.99 63.3668L135.037 69.2609L136.572 69.7918L136.355 68.1819L135.364 68.3158C136.355 68.1819 136.355 68.1814 136.355 68.1808L136.355 68.1795L136.354 68.1761L136.353 68.1662L136.348 68.1346C136.344 68.1084 136.338 68.0718 136.331 68.0253C136.315 67.9324 136.291 67.7999 136.257 67.6318C136.188 67.2957 136.078 66.8165 135.908 66.2251C135.567 65.0432 134.987 63.4088 134.023 61.5725C132.093 57.8947 128.622 53.4087 122.477 50.1416L121.424 49.5816L121.056 50.7165L117.366 62.1136Z" fill="white" stroke="#71716D" stroke-width="2"/>
<circle cx="125.047" cy="59.888" r="2.75916" transform="rotate(17.9438 125.047 59.888)" fill="#71706D" stroke="#71706D" stroke-width="2"/>
<path d="M106.164 33.6271C106.675 32.0509 108.366 31.1869 109.942 31.6973L131.365 38.6347C132.941 39.1452 133.805 40.8368 133.295 42.413L131.652 47.4872C131.127 49.1063 129.234 49.8183 127.773 48.946L124.86 47.4208L121.76 46.0561L118.861 44.9081L115.131 43.8048L111.339 42.8911L107.596 42.2489L107.229 42.2152C105.315 42.0393 104.057 40.1328 104.65 38.3035L106.164 33.6271Z" fill="#6F6E6B"/>
<rect x="113.337" y="23.2588" width="22.555" height="9.07384" rx="3" transform="rotate(17.9438 113.337 23.2588)" fill="#71706D"/>
<line x1="122.919" y1="26.4183" x2="115.035" y2="44.0308" stroke="white" stroke-opacity="0.8"/>
<line x1="124.685" y1="26.835" x2="122.273" y2="46.1635" stroke="white" stroke-opacity="0.8"/>
<circle cx="109.755" cy="54.936" r="3.75916" transform="rotate(17.9438 109.755 54.936)" fill="#71706D"/>
<line x1="99.85" y1="52.1907" x2="100.698" y2="56.4294" stroke="#71716D" stroke-width="2"/>
<defs>
<filter id="filter0_d_116_11" x="0.549866" y="34.6655" width="183.135" height="94.5419" filterUnits="userSpaceOnUse" color-interpolation-filters="sRGB">
<feFlood flood-opacity="0" result="BackgroundImageFix"/>
<feColorMatrix in="SourceAlpha" type="matrix" values="0 0 0 0 0 0 0 0 0 0 0 0 0 0 0 0 0 0 127 0" result="hardAlpha"/>
<feOffset dy="4"/>
<feGaussianBlur stdDeviation="3"/>
<feComposite in2="hardAlpha" operator="out"/>
<feColorMatrix type="matrix" values="0 0 0 0 0 0 0 0 0 0 0 0 0 0 0 0 0 0 0.25 0"/>
<feBlend mode="normal" in2="BackgroundImageFix" result="effect1_dropShadow_116_11"/>
<feBlend mode="normal" in="SourceGraphic" in2="effect1_dropShadow_116_11" result="shape"/>
</filter>
</defs>
</svg>
